<svg width="30" height="27" viewBox="0 0 30 27" fill="none" xmlns="http://www.w3.org/2000/svg">
<path d="M26.9168 8.8547H19.0459L20.7686 4.5485C21.015 3.93499 21.0758 3.26266 20.9434 2.61493C20.8111 1.9672 20.4914 1.37259 20.0241 0.904897C19.7613 0.642358 19.4445 0.440169 19.0957 0.31237C18.7469 0.184572 18.3745 0.134226 18.0043 0.164829C17.6341 0.195432 17.275 0.306251 16.9519 0.48959C16.6288 0.672928 16.3495 0.924394 16.1334 1.22652L11.5309 7.66648C10.8439 8.62584 10.08 9.52768 9.24671 10.3631L7.7726 11.8372C7.70548 11.9042 7.65225 11.9838 7.61596 12.0715C7.57968 12.1591 7.56106 12.2531 7.56116 12.3479V23.4276C7.56105 23.6196 7.63709 23.8038 7.7726 23.9398L9.42391 25.5986C9.84456 26.0214 10.3449 26.3566 10.8959 26.5849C11.4469 26.8131 12.0378 26.9298 12.6342 26.9283H21.607C22.3154 26.9277 23.0085 26.722 23.6025 26.3359C24.1966 25.9498 24.666 25.4 24.9542 24.7528L29.3558 14.8494C29.6374 14.2179 29.782 13.5338 29.7801 12.8423V11.7196C29.7793 10.9602 29.4775 10.2322 28.9407 9.6952C28.4039 9.15815 27.6761 8.85589 26.9168 8.8547Z" fill="#633ABD"/>
<path d="M2.60129 10.8678C1.91139 10.8678 1.24974 11.1419 0.761902 11.6297C0.274064 12.1176 0 12.7792 0 13.4691V23.2504C0 23.9403 0.274064 24.602 0.761902 25.0898C1.24974 25.5776 1.91139 25.8517 2.60129 25.8517C3.2912 25.8517 3.95285 25.5776 4.44069 25.0898C4.92853 24.602 5.20259 23.9403 5.20259 23.2504V13.4691C5.20259 12.7792 4.92853 12.1176 4.44069 11.6297C3.95285 11.1419 3.2912 10.8678 2.60129 10.8678Z" fill="#633ABD"/>
</svg>
