<svg width="28" height="27" viewBox="0 0 28 27" fill="none" xmlns="http://www.w3.org/2000/svg">
<path d="M24.8436 9.36566H17.0934L18.7964 5.10682C19.0355 4.51153 19.0944 3.85907 18.9657 3.23059C18.8369 2.6021 18.5263 2.02533 18.0723 1.57202C17.8183 1.31759 17.5118 1.12162 17.1743 0.997741C16.8368 0.873866 16.4763 0.825072 16.118 0.854759C15.7597 0.884446 15.4122 0.9919 15.0996 1.16963C14.7871 1.34737 14.5171 1.59111 14.3084 1.88387L9.80275 8.19011C9.13152 9.13145 8.38321 10.0154 7.56553 10.8327L6.9947 11.4036C6.68257 10.6909 6.13477 10.1073 5.44326 9.75068C4.75174 9.3941 3.95861 9.28625 3.19699 9.44526C2.43537 9.60426 1.75163 10.0204 1.26054 10.6239C0.769455 11.2274 0.500916 11.9814 0.5 12.7594V23.6066C0.500916 24.3846 0.769455 25.1386 1.26054 25.7421C1.75163 26.3456 2.43537 26.7617 3.19699 26.9207C3.95861 27.0797 4.75174 26.9719 5.44326 26.6153C6.13477 26.2587 6.68257 25.6751 6.9947 24.9624L7.73909 25.7082C8.14788 26.1187 8.63392 26.4443 9.16916 26.6661C9.7044 26.8878 10.2783 27.0014 10.8576 27.0003H19.6451C20.3337 27.0004 21.0075 26.8009 21.585 26.426C22.1626 26.0511 22.6191 25.5168 22.8993 24.8879L27.211 15.1838C27.4808 14.5721 27.6194 13.9107 27.6178 13.2421V12.1425C27.6174 11.4066 27.3251 10.7009 26.805 10.1803C26.2849 9.65973 25.5795 9.36674 24.8436 9.36566ZM3.88972 25.6363C3.35031 25.6363 2.833 25.422 2.45158 25.0406C2.07017 24.6592 1.85589 24.1419 1.85589 23.6025V12.7554C1.85589 12.216 2.07017 11.6987 2.45158 11.3172C2.833 10.9358 3.35031 10.7215 3.88972 10.7215C4.42913 10.7215 4.94644 10.9358 5.32786 11.3172C5.70927 11.6987 5.92355 12.216 5.92355 12.7554V23.6025C5.92355 24.1419 5.70927 24.6592 5.32786 25.0406C4.94644 25.422 4.42913 25.6363 3.88972 25.6363ZM26.2619 13.2421C26.2626 13.7224 26.1619 14.1974 25.9663 14.636L21.6518 24.3292C21.4788 24.7183 21.1966 25.0489 20.8394 25.2809C20.4823 25.5129 20.0656 25.6364 19.6397 25.6363H10.8617C10.4588 25.6379 10.0595 25.5596 9.68712 25.4057C9.31472 25.2519 8.97657 25.0256 8.69227 24.7401L7.27944 23.3218V13.036L8.52414 11.7913C9.39491 10.9209 10.1922 9.97982 10.9078 8.97788L15.4148 2.673C15.5083 2.54094 15.6296 2.4309 15.7701 2.35057C15.9107 2.27024 16.067 2.22156 16.2283 2.20793C16.3903 2.19499 16.5532 2.21725 16.7058 2.27319C16.8584 2.32912 16.9971 2.41741 17.1123 2.53199C17.3783 2.79775 17.5603 3.1358 17.6358 3.50413C17.7112 3.87247 17.6768 4.25485 17.5367 4.60378L15.4622 9.79277C15.4213 9.89556 15.4061 10.0068 15.4181 10.1168C15.43 10.2268 15.4687 10.3322 15.5308 10.4238C15.5928 10.5154 15.6763 10.5904 15.7741 10.6423C15.8718 10.6942 15.9807 10.7214 16.0914 10.7215H24.8423C25.2185 10.7215 25.5794 10.8709 25.8456 11.1369C26.1118 11.4028 26.2615 11.7635 26.2619 12.1398V13.2421Z" fill="#495057"/>
</svg>
