<svg width="25" height="26" viewBox="0 0 25 26" fill="none" xmlns="http://www.w3.org/2000/svg">
<circle cx="12.5" cy="12.656" r="12.5" fill="#A189D7"/>
<path d="M18.2906 10.2088H14.1293L15.0437 7.92214C15.1721 7.60251 15.2037 7.25219 15.1346 6.91474C15.0655 6.57729 14.8987 6.2676 14.6549 6.0242C14.5185 5.8876 14.354 5.78237 14.1728 5.71586C13.9915 5.64935 13.798 5.62315 13.6056 5.63909C13.4132 5.65503 13.2266 5.71272 13.0588 5.80815C12.891 5.90358 12.746 6.03445 12.634 6.19165L10.2148 9.57765C9.85437 10.0831 9.45257 10.5577 9.01354 10.9966L8.70705 11.303C8.53945 10.9204 8.24532 10.607 7.87403 10.4156C7.50273 10.2241 7.07688 10.1662 6.66794 10.2516C6.259 10.3369 5.89188 10.5604 5.62821 10.8844C5.36453 11.2084 5.22034 11.6133 5.21985 12.0311V17.8552C5.22034 18.2729 5.36453 18.6778 5.62821 19.0018C5.89188 19.3259 6.259 19.5493 6.66794 19.6347C7.07688 19.7201 7.50273 19.6621 7.87403 19.4707C8.24532 19.2792 8.53945 18.9659 8.70705 18.5832L9.10673 18.9836C9.32622 19.2041 9.58719 19.3789 9.87458 19.4979C10.162 19.617 10.4701 19.678 10.7812 19.6774H15.4994C15.8691 19.6775 16.2309 19.5704 16.541 19.3691C16.8511 19.1677 17.0962 18.8809 17.2467 18.5432L19.5618 13.3328C19.7066 13.0043 19.781 12.6492 19.7802 12.2902V11.6998C19.78 11.3047 19.623 10.9258 19.3438 10.6463C19.0645 10.3667 18.6858 10.2094 18.2906 10.2088ZM7.03989 18.945C6.75027 18.945 6.47251 18.83 6.26771 18.6252C6.06292 18.4204 5.94786 18.1426 5.94786 17.853V12.0289C5.94786 11.7393 6.06292 11.4615 6.26771 11.2567C6.47251 11.0519 6.75027 10.9369 7.03989 10.9369C7.32951 10.9369 7.60727 11.0519 7.81207 11.2567C8.01686 11.4615 8.13191 11.7393 8.13191 12.0289V17.853C8.13191 18.1426 8.01686 18.4204 7.81207 18.6252C7.60727 18.83 7.32951 18.945 7.03989 18.945ZM19.0522 12.2902C19.0526 12.5481 18.9985 12.8031 18.8934 13.0386L16.5769 18.2432C16.484 18.4521 16.3324 18.6296 16.1407 18.7542C15.9489 18.8788 15.7252 18.9451 15.4965 18.945H10.7833C10.567 18.9459 10.3526 18.9038 10.1527 18.8212C9.95273 18.7386 9.77117 18.6171 9.61852 18.4638L8.85993 17.7023V12.1796L9.52825 11.5113C9.99579 11.0439 10.4239 10.5386 10.8081 10.0006L13.228 6.61535C13.2783 6.54444 13.3434 6.48536 13.4188 6.44223C13.4943 6.3991 13.5782 6.37296 13.6648 6.36564C13.7518 6.3587 13.8393 6.37065 13.9212 6.40068C14.0031 6.43072 14.0776 6.47812 14.1395 6.53964C14.2823 6.68233 14.38 6.86384 14.4205 7.06161C14.4611 7.25938 14.4426 7.4647 14.3674 7.65205L13.2535 10.4382C13.2315 10.4934 13.2234 10.5531 13.2298 10.6122C13.2362 10.6712 13.257 10.7278 13.2903 10.777C13.3236 10.8262 13.3685 10.8665 13.4209 10.8943C13.4734 10.9222 13.5319 10.9368 13.5913 10.9369H18.2899C18.4919 10.9369 18.6857 11.0171 18.8286 11.1599C18.9716 11.3026 19.052 11.4963 19.0522 11.6984V12.2902Z" fill="white"/>
</svg>
