<svg width="21" height="21" viewBox="0 0 21 21" fill="none" xmlns="http://www.w3.org/2000/svg">
<path d="M20.4661 18.5796V3.26709C20.4661 1.97467 19.4147 0.92334 18.1223 0.92334H2.80981C1.5174 0.92334 0.466064 1.97467 0.466064 3.26709V18.5796C0.466064 19.872 1.5174 20.9233 2.80981 20.9233H18.1223C19.4147 20.9233 20.4661 19.872 20.4661 18.5796ZM18.1223 2.48584C18.5531 2.48584 18.9036 2.83633 18.9036 3.26709V18.5796C18.9036 19.0103 18.5531 19.3608 18.1223 19.3608H2.80981C2.37906 19.3608 2.02856 19.0103 2.02856 18.5796V3.26709C2.02856 2.83633 2.37906 2.48584 2.80981 2.48584H18.1223Z" fill="#495057"/>
<path d="M11.6966 9.91119L16.5117 4.31396H15.3707L11.1897 9.17395L7.85032 4.31396H3.99878L9.04853 11.6631L3.99878 17.5327H5.13988L9.55512 12.4004L13.0817 17.5327H16.9333L11.6963 9.91119H11.6966ZM10.1337 11.7279L9.62201 10.9961L5.55104 5.17296H7.3037L10.589 9.87239L11.1007 10.6042L15.3712 16.7127H13.6185L10.1337 11.7282V11.7279Z" fill="#495057"/>
</svg>
