<svg width="12" height="13" viewBox="0 0 12 13" fill="none" xmlns="http://www.w3.org/2000/svg">
<path fill-rule="evenodd" clip-rule="evenodd" d="M6.33934 1.75128L5.98546 1.3135C5.86686 1.16681 5.64326 1.16682 5.52466 1.3135L5.17077 1.75128C4.75329 2.26774 4.07063 2.48953 3.42935 2.31712L2.8857 2.17097C2.70357 2.12199 2.52263 2.25342 2.51292 2.4418L2.48395 3.00399C2.44975 3.66719 2.02786 4.24787 1.40768 4.48533L0.881964 4.68662C0.70581 4.75407 0.636705 4.96677 0.739566 5.12484L1.04658 5.59673C1.40873 6.15335 1.40873 6.87113 1.04658 7.42775L0.739566 7.89961C0.636702 8.05771 0.70581 8.27042 0.881964 8.33786L1.40768 8.53915C2.02786 8.77658 2.44975 9.35729 2.48395 10.0205L2.51292 10.5827C2.52263 10.7711 2.70357 10.9025 2.8857 10.8535L3.42935 10.7074C4.07063 10.535 4.75329 10.7567 5.17077 11.2732L5.52466 11.711C5.64326 11.8577 5.86686 11.8577 5.98546 11.711L6.33934 11.2732C6.75683 10.7567 7.43948 10.535 8.08077 10.7074L8.62442 10.8535C8.80655 10.9025 8.98749 10.7711 8.9972 10.5827L9.02617 10.0205C9.06036 9.35729 9.48226 8.77658 10.1024 8.53915L10.6282 8.33786C10.8043 8.27042 10.8734 8.05771 10.7705 7.89961L10.4635 7.42775C10.1014 6.87113 10.1014 6.15335 10.4635 5.59673L10.7705 5.12484C10.8734 4.96677 10.8043 4.75407 10.6282 4.68662L10.1024 4.48533C9.48226 4.24787 9.06036 3.66719 9.02617 3.00399L8.9972 2.4418C8.98749 2.25342 8.80655 2.12199 8.62442 2.17097L8.08077 2.31712C7.43948 2.48953 6.75683 2.26774 6.33934 1.75128ZM6.52302 0.878945C6.12779 0.390002 5.38233 0.390002 4.9871 0.878945L4.63321 1.31674C4.38762 1.62053 3.98607 1.75102 3.60881 1.64957L3.06519 1.50342C2.45805 1.34016 1.85495 1.77834 1.82259 2.40622L1.79362 2.9684C1.77351 3.35853 1.52532 3.70011 1.1605 3.83977L0.634789 4.04109C0.0476422 4.26588 -0.182715 4.97484 0.160161 5.50183L0.467168 5.97369C0.680204 6.30112 0.680204 6.72337 0.467168 7.05079L0.160161 7.52265C-0.182715 8.04965 0.0476422 8.75861 0.634789 8.98339L1.1605 9.18468C1.52532 9.32438 1.77351 9.66595 1.79362 10.0561L1.82259 10.6183C1.85495 11.2461 2.45805 11.6843 3.06519 11.5211L3.60881 11.3749C3.98607 11.2735 4.38762 11.404 4.63321 11.7077L4.9871 12.1455C5.38233 12.6345 6.12779 12.6345 6.52302 12.1455L6.87691 11.7077C7.1225 11.404 7.52405 11.2735 7.9013 11.3749L8.44492 11.5211C9.05207 11.6843 9.65517 11.2461 9.68753 10.6183L9.71649 10.0561C9.7366 9.66595 9.9848 9.32438 10.3496 9.18468L10.8753 8.98339C11.4625 8.75861 11.6928 8.04965 11.3499 7.52265L11.0429 7.05079C10.8299 6.72337 10.8299 6.30112 11.0429 5.97369L11.3499 5.50183C11.6928 4.97484 11.4625 4.26588 10.8753 4.04109L10.3496 3.83977C9.9848 3.70011 9.7366 3.35853 9.71649 2.9684L9.68753 2.40622C9.65517 1.77834 9.05207 1.34016 8.44492 1.50342L7.9013 1.64957C7.52405 1.75102 7.1225 1.62053 6.87691 1.31674L6.52302 0.878945Z" fill="#2C3E50"/>
<path fill-rule="evenodd" clip-rule="evenodd" d="M8.27251 4.72285C8.40638 4.85893 8.40454 5.07776 8.26843 5.2116L5.63332 7.80309C5.23309 8.19671 4.58785 8.18565 4.20131 7.77857L3.26589 6.79344C3.13445 6.65503 3.14011 6.43626 3.27853 6.30479C3.41694 6.17336 3.63571 6.17902 3.76714 6.31747L4.7026 7.30259C4.82301 7.42939 5.02397 7.43285 5.14862 7.31023L7.78376 4.71877C7.91984 4.58493 8.13867 4.58674 8.27251 4.72285Z" fill="#2C3E50"/>
</svg>
