<svg width="213" height="208" viewBox="0 0 213 208" fill="none" xmlns="http://www.w3.org/2000/svg">
<circle cx="164.405" cy="13.6078" r="6.77636" transform="rotate(-14.5264 164.405 13.6078)" fill="#F0F2F5"/>
<rect x="24.1855" y="53.8023" width="134.601" height="134.602" rx="15" transform="rotate(-14.5264 24.1855 53.8023)" fill="#F0F2F5"/>
<path d="M113.953 131.931C129.851 127.812 139.559 111.502 135.405 95.4732C131.287 79.5785 114.979 69.8665 98.9475 74.0205C83.0572 78.1378 73.3394 94.4411 77.4948 110.478C81.6039 126.337 97.8796 136.096 113.953 131.931ZM83.019 91.3571L94.3437 98.0209C93.5304 100.001 93.1973 102.192 93.4446 104.414L80.7169 107.712C79.6588 101.983 80.5739 96.2799 83.019 91.3571ZM131.245 94.6198L118.518 97.9177C117.655 95.8548 116.299 94.1013 114.627 92.7656L121.291 81.4408C125.819 84.5569 129.388 89.0974 131.245 94.6198ZM129.881 114.594L118.556 107.93C119.37 105.951 119.703 103.76 119.455 101.537L132.183 98.2393C133.241 103.969 132.326 109.671 129.881 114.594ZM104.106 93.9272C109.095 92.6344 114.206 95.6418 115.499 100.631C116.791 105.621 113.784 110.731 108.795 112.024C103.805 113.317 98.6943 110.31 97.4015 105.32C96.1088 100.331 99.1162 95.22 104.106 93.9272ZM101.495 115.082C103.475 115.896 105.666 116.229 107.889 115.981L111.187 128.709C105.457 129.767 99.7546 128.852 94.8318 126.407L101.495 115.082ZM111.508 115.043C113.571 114.18 115.324 112.825 116.661 111.153L127.985 117.817C124.869 122.345 120.329 125.914 114.806 127.771L111.508 115.043ZM111.405 90.8694C109.425 90.0561 107.234 89.723 105.011 89.9703L101.714 77.2426C107.443 76.1844 113.146 77.0997 118.069 79.5447L111.405 90.8694ZM101.392 90.9081C99.3291 91.7713 97.576 93.1263 96.2399 94.7984L84.9152 88.1347C88.0312 83.607 92.5717 80.0378 98.0942 78.1804L101.392 90.9081ZM94.3824 108.034C95.2457 110.097 96.6007 111.85 98.2731 113.186L91.6095 124.511C87.0814 121.395 83.5117 116.854 81.6548 111.332L94.3824 108.034Z" fill="#2C3E50"/>
<path d="M141.996 23.2761L36.6715 50.5668C29.7863 52.3508 25.636 59.4041 27.4201 66.2893L54.7108 171.614C56.4948 178.499 63.548 182.65 70.4332 180.866L175.758 153.575C182.643 151.791 186.794 144.738 185.01 137.852L157.719 32.5276C155.935 25.6424 148.882 21.4921 141.996 23.2761ZM142.079 54.154L114.934 61.1876C113.934 61.4467 113.334 62.4669 113.593 63.4663C113.852 64.4656 114.872 65.0661 115.871 64.8071L143.017 57.7734L160.367 124.732L133.221 131.766C132.222 132.025 131.621 133.045 131.88 134.045C132.139 135.044 133.159 135.645 134.159 135.386L161.305 128.352L163.18 135.591L72.695 159.036L70.8193 151.797L76.2484 150.391C77.2478 150.132 77.8483 149.112 77.5892 148.112L74.3069 135.444C74.0478 134.445 73.0276 133.844 72.0282 134.103L66.5991 135.51L55.8141 93.8869L61.2433 92.4802C62.2426 92.2212 62.843 91.2009 62.584 90.2016L59.3017 77.5336C59.0427 76.5343 58.0224 75.9339 57.023 76.1928L51.5939 77.5996L49.7183 70.3607L140.204 46.9151L142.079 54.154ZM39.5268 98.1071L52.1947 94.8247L62.9797 136.448L50.3118 139.73L39.5268 98.1071ZM51.2496 143.35L71.1564 138.192L73.5009 147.24L53.5942 152.398L51.2496 143.35ZM56.1512 80.2812L58.4957 89.3297C55.3628 90.1415 43.481 93.2202 38.589 94.4877L36.2444 85.4392L56.1512 80.2812ZM181.39 138.79C182.657 143.68 179.71 148.689 174.82 149.956L69.4954 177.246C64.6059 178.513 59.5972 175.566 58.3302 170.676L54.532 156.018L67.1999 152.735L69.5445 161.784C69.8035 162.784 70.8238 163.384 71.8231 163.125L165.928 138.741C166.927 138.482 167.528 137.462 167.269 136.463L143.354 44.1676C143.095 43.1683 142.075 42.5678 141.075 42.8268L46.9707 67.2102C45.9714 67.4692 45.371 68.4895 45.63 69.4889L47.9745 78.5374L35.3066 81.8198L31.0395 65.3515C29.7726 60.462 32.7199 55.4531 37.6094 54.1862L142.934 26.8955C147.824 25.6285 152.833 28.576 154.099 33.4654L181.39 138.79Z" fill="#2C3E50"/>
<path d="M162.06 4.55903C157.071 5.85182 154.063 10.9628 155.356 15.9521C156.649 20.9415 161.76 23.9489 166.749 22.6561C171.739 21.3633 174.746 16.2524 173.453 11.263C172.161 6.27364 167.05 3.26624 162.06 4.55903ZM165.812 19.0367C162.818 19.8124 159.751 18.0079 158.976 15.0143C158.2 12.0207 160.004 8.95421 162.998 8.17844C165.992 7.40277 169.058 9.20721 169.834 12.2008C170.61 15.1944 168.805 18.261 165.812 19.0367Z" fill="#2C3E50"/>
<path d="M172.072 61.8321C173.572 61.4437 174.472 59.9134 174.084 58.4142C173.695 56.915 172.165 56.0145 170.666 56.403C169.167 56.7915 168.266 58.3217 168.655 59.8209C169.043 61.3201 170.573 62.2206 172.072 61.8321Z" fill="#2C3E50"/>
<path d="M172.123 173.829C173.622 173.44 174.523 171.91 174.134 170.411C173.746 168.912 172.216 168.011 170.717 168.4C169.217 168.788 168.317 170.318 168.705 171.818C169.094 173.317 170.624 174.217 172.123 173.829Z" fill="#2C3E50"/>
<path d="M106.44 181.192C107.939 180.804 108.839 179.273 108.451 177.774C108.062 176.275 106.532 175.375 105.033 175.763C103.534 176.152 102.633 177.682 103.022 179.181C103.41 180.68 104.94 181.581 106.44 181.192Z" fill="#2C3E50"/>
<path d="M44.176 164.495C45.6752 164.106 46.5756 162.576 46.1872 161.077C45.7987 159.578 44.2685 158.677 42.7692 159.066C41.27 159.454 40.3696 160.984 40.7581 162.484C41.1465 163.983 42.6768 164.883 44.176 164.495Z" fill="#2C3E50"/>
<path d="M96.9445 25.2937C98.4437 24.9052 99.3442 23.375 98.9557 21.8757C98.5673 20.3765 97.037 19.4761 95.5378 19.8646C94.0386 20.253 93.1382 21.7833 93.5266 23.2825C93.9151 24.7817 95.4453 25.6821 96.9445 25.2937Z" fill="#2C3E50"/>
<path d="M30.4533 44.4534C31.9525 44.065 32.853 42.5347 32.4645 41.0355C32.0761 39.5363 30.5458 38.6359 29.0466 39.0243C27.5474 39.4128 26.6469 40.943 27.0354 42.4423C27.4239 43.9415 28.9541 44.8419 30.4533 44.4534Z" fill="#2C3E50"/>
<path d="M20.1223 108.929C21.6215 108.54 22.5219 107.01 22.1335 105.511C21.745 104.012 20.2147 103.111 18.7155 103.5C17.2163 103.888 16.3159 105.418 16.7043 106.918C17.0928 108.417 18.6231 109.317 20.1223 108.929Z" fill="#2C3E50"/>
<path d="M191.232 128.322C192.731 127.934 193.631 126.404 193.243 124.904C192.854 123.405 191.324 122.505 189.825 122.893C188.326 123.282 187.425 124.812 187.814 126.311C188.202 127.81 189.732 128.711 191.232 128.322Z" fill="#2C3E50"/>
</svg>
