<svg width="1918" height="19" viewBox="0 0 1918 19" fill="none" xmlns="http://www.w3.org/2000/svg">
<path fill-rule="evenodd" clip-rule="evenodd" d="M1918 0.337891H959.003H0.00292969V5.00387H0.00427023C0.00337776 5.01494 0.00292969 5.02604 0.00292969 5.03715C0.00292969 6.07439 3.90423 6.91528 8.71645 6.91528C45.6518 6.91528 63.8132 9.55025 83.0406 12.34C103.591 15.3218 124.842 18.405 167.096 18.405C209.35 18.405 230.6 15.3218 251.151 12.3401C270.378 9.55034 288.54 6.91528 325.475 6.91528C362.41 6.91528 380.572 9.55025 399.8 12.34C420.35 15.3218 441.6 18.405 483.855 18.405C526.109 18.405 547.359 15.3218 567.909 12.34C587.137 9.55025 605.298 6.91528 642.235 6.91528C679.17 6.91528 697.332 9.55025 716.56 12.34C737.11 15.3218 758.361 18.405 800.616 18.405C842.869 18.405 864.119 15.3219 884.67 12.3402L884.672 12.34C903.899 9.55025 922.06 6.91528 958.995 6.91528C995.93 6.91528 1014.09 9.55025 1033.32 12.34C1053.87 15.3218 1075.12 18.405 1117.37 18.405C1159.63 18.405 1180.88 15.3218 1201.43 12.34C1220.66 9.55025 1238.82 6.91528 1275.75 6.91528C1312.69 6.91528 1330.85 9.55025 1350.08 12.34C1370.63 15.3218 1391.88 18.405 1434.13 18.405C1476.39 18.405 1497.64 15.3218 1518.19 12.34C1537.42 9.55025 1555.58 6.91528 1592.51 6.91528C1629.45 6.91528 1647.61 9.55025 1666.84 12.34C1687.39 15.3218 1708.65 18.405 1750.9 18.405C1793.16 18.405 1814.41 15.3218 1834.96 12.34C1854.19 9.55025 1872.35 6.91528 1909.29 6.91528C1914.1 6.91528 1918 6.07439 1918 5.03715C1918 5.02666 1918 5.01619 1918 5.00575H1918V0.337891Z" fill="#f0f2f5"/>
</svg>
