<svg width="24" height="24" viewBox="0 0 24 24" fill="none" xmlns="http://www.w3.org/2000/svg">
<path fill-rule="evenodd" clip-rule="evenodd" d="M12.062 0.671875C14.1809 0.696054 16.0951 1.21681 17.8046 2.23416C19.4938 3.23119 20.8989 4.6449 21.8856 6.34009C22.8968 8.05992 23.4144 9.98572 23.4385 12.1175C23.3784 15.0343 22.4584 17.5256 20.6785 19.5912C18.8986 21.6569 16.6189 22.9348 14.2591 23.4247V15.2469H16.4901L16.9947 12.0332H13.6163V9.92836C13.5976 9.49201 13.7356 9.06334 14.0054 8.71987C14.2755 8.37546 14.7513 8.19444 15.4327 8.17681H17.4728V5.36169C17.4435 5.35228 17.1657 5.31503 16.6395 5.24997C16.0427 5.18014 15.4425 5.14284 14.8417 5.13824C13.4817 5.14452 12.4062 5.52813 11.6151 6.28908C10.8239 7.04982 10.4198 8.15045 10.4027 9.59096V12.0332H7.8317V15.2469H10.4027V23.4247C7.50506 22.9348 5.2254 21.6569 3.44547 19.5912C1.66555 17.5256 0.745606 15.0343 0.685547 12.1175C0.709576 9.98563 1.22719 8.05982 2.23838 6.34009C3.22511 4.6449 4.63024 3.23119 6.31939 2.23416C8.02887 1.21701 9.94307 0.69625 12.062 0.671875Z" fill="#633ABD"/>
</svg>
