<?xml version="1.0" encoding="utf-8"?>
<!-- Generator: Adobe Illustrator 25.0.0, SVG Export Plug-In . SVG Version: 6.00 Build 0)  -->
<svg version="1.1" id="Layer_1" xmlns="http://www.w3.org/2000/svg" xmlns:xlink="http://www.w3.org/1999/xlink" x="0px" y="0px"
	 viewBox="0 0 500 60" style="enable-background:new 0 0 500 60;" xml:space="preserve">
<g>
	<path d="M32.6,36V24.6H11.2V36c0,2.3,0.3,3.9,1,4.9c0.7,0.9,1.8,1.4,3.6,1.4v1.1H1.6v-1.1c1.7,0,2.9-0.5,3.5-1.4S6,38.3,6,36V11.5
		c0-2.4-0.3-4.1-1-4.9S3.3,5.2,1.6,5.2V4h14.2v1.1c-1.7,0-2.9,0.5-3.6,1.4c-0.7,0.9-1,2.6-1,4.8v11.2h21.4V11.4
		c0-2.4-0.3-4.1-0.9-4.9S30,5.2,28.3,5.2V4h14.1v1.1c-1.7,0-2.8,0.5-3.5,1.4s-1,2.6-1,4.9V36c0,2.3,0.3,4,1,4.9
		c0.6,0.9,1.8,1.4,3.5,1.4v1.1H28.3v-1.1c1.7,0,2.9-0.5,3.5-1.4C32.4,40,32.6,38.3,32.6,36z"/>
	<path d="M99.6,4h9.3v1.1c-2.9,0.1-4.4,1.8-4.4,5.2c0,0.3,0,0.6,0,0.9l2,24.2c0.2,2.6,0.7,4.3,1.3,5.2c0.7,0.9,1.8,1.4,3.6,1.5v1.1
		H97.2v-1.1c1.5-0.2,2.6-0.7,3.2-1.5c0.6-0.7,0.9-1.9,0.9-3.4c0-0.3,0-0.7,0-1l-2.1-25.4L85.7,43.4h-1L71.4,10.9l-2.2,24.2
		c0,0.4,0,0.7,0,1.1c0,3.4,1.7,5.4,5.1,6v1.1H62v-1.1c1.6-0.2,2.8-0.8,3.5-1.7c0.7-0.9,1.2-2.8,1.5-5.5l2.4-27.1
		c-1.4-1.5-3.1-2.4-5.1-2.7V4h10L86.9,35L99.6,4z"/>
	<path d="M162.3,36V24.6h-21.4V36c0,2.3,0.3,3.9,1,4.9c0.7,0.9,1.8,1.4,3.6,1.4v1.1h-14.2v-1.1c1.7,0,2.9-0.5,3.5-1.4
		c0.6-0.9,0.9-2.5,0.9-4.8V11.5c0-2.4-0.3-4.1-1-4.9s-1.8-1.3-3.5-1.3V4h14.2v1.1c-1.7,0-2.9,0.5-3.6,1.4c-0.7,0.9-1,2.6-1,4.8v11.2
		h21.4V11.4c0-2.4-0.3-4.1-0.9-4.9c-0.6-0.9-1.8-1.3-3.5-1.3V4H172v1.1c-1.7,0-2.8,0.5-3.5,1.4c-0.6,0.9-1,2.6-1,4.9V36
		c0,2.3,0.3,4,1,4.9c0.6,0.9,1.8,1.4,3.5,1.4v1.1h-14.1v-1.1c1.7,0,2.9-0.5,3.5-1.4C162,40,162.3,38.3,162.3,36z"/>
	<path d="M183.5,43.4c-1.9,0-3.5-0.6-4.9-1.9c-1.4-1.3-2-2.8-2-4.6c0-1.7,0.6-3.1,1.8-4.2c1.2-1.1,3.6-2.2,7.2-3.2
		c2.3-0.6,3.8-1.2,4.6-1.6v-1.8c0-1.8-0.5-3.2-1.5-4.3c-1-1.1-2.3-1.6-4-1.6c-1.5,0-2.8,0.5-4,1.4c-1.2,0.9-2,2.2-2.4,3.8l-1.2-0.3
		c0.5-2.3,1.6-4.1,3.2-5.4c1.6-1.4,3.6-2,5.8-2c2.6,0,4.7,0.8,6.4,2.4c1.6,1.6,2.4,3.8,2.4,6.6V37c0,1.5,0.1,2.5,0.3,3
		c0.2,0.5,0.6,0.8,1.1,0.8c0.4,0,0.6-0.2,0.9-0.5c0.2-0.3,0.5-0.9,0.8-1.9h1.2c-0.1,1.5-0.6,2.7-1.4,3.6c-0.8,0.9-1.9,1.3-3.3,1.3
		c-2,0-3.4-1.2-4.1-3.5c-1.2,1.3-2.3,2.2-3.2,2.7C185.9,43.1,184.8,43.4,183.5,43.4z M190,37.7v-8.2c-0.7,0.3-1.7,0.7-3,1.1
		c-2.4,0.8-4,1.6-4.7,2.5s-1,1.9-1,3.3c0,1.2,0.4,2.3,1.1,3.1c0.7,0.9,1.6,1.3,2.6,1.3c0.9,0,1.9-0.3,2.9-0.9
		C188.9,39.3,189.6,38.5,190,37.7z"/>
	<path d="M209.7,18.4v5.1h0.1c1-1.5,2.3-2.8,3.9-3.7c1.6-0.9,3.2-1.4,4.8-1.4c1.8,0,3.3,0.5,4.7,1.5c1.4,1,2.4,2.3,2.9,4
		c2.6-3.6,5.6-5.5,9-5.5c2.4,0,4.3,0.7,5.9,2.2c1.6,1.5,2.3,3.5,2.3,6v12.2c0,1.3,0.3,2.2,0.9,2.7c0.6,0.5,1.6,0.7,3.2,0.7v1.2
		h-12.9v-1.2c1.8,0,2.9-0.3,3.4-0.9c0.5-0.6,0.7-1.8,0.7-3.8V26c0-1.6-0.5-2.8-1.4-3.7c-0.9-0.9-2.2-1.3-3.9-1.3
		c-2.5,0-4.8,1.6-6.9,4.7v13c0,1.4,0.3,2.3,0.9,2.8c0.6,0.5,1.6,0.7,3.2,0.7v1.2h-12.8v-1.2c1.8,0,3-0.3,3.4-0.9
		c0.4-0.6,0.7-1.8,0.7-3.8V26.3c0-1.6-0.5-2.9-1.4-3.8c-1-1-2.2-1.4-3.7-1.4c-1.3,0-2.6,0.4-3.9,1.3c-1.3,0.8-2.3,2-3.1,3.4v13.2
		c0,1.3,0.3,2.1,0.9,2.6c0.6,0.5,1.7,0.7,3.2,0.7v1.1h-12.9v-1.2c1.8,0,2.9-0.3,3.4-0.8s0.7-1.6,0.7-3.1V23.8c0-1.3-0.3-2.2-0.8-2.7
		s-1.4-0.8-2.6-0.8h-1.5v-1.1l8.4-0.7H209.7z"/>
	<path d="M258,18.4h1.2v20.5c0,1.3,0.3,2.2,0.9,2.7s1.6,0.7,3.2,0.7v1.1h-13.3v-1.1c1.9,0,3.2-0.2,3.8-0.7c0.6-0.4,0.8-1.3,0.8-2.7
		v-15c0-1.5-0.3-2.5-0.8-2.9c-0.5-0.5-1.8-0.7-3.8-0.7v-1.1L258,18.4z M256.9,5.8c0.8,0,1.5,0.3,2.1,0.9s0.9,1.3,0.9,2.1
		s-0.3,1.5-0.9,2.1s-1.3,0.9-2.1,0.9c-0.8,0-1.5-0.3-2.1-0.9s-0.9-1.3-0.9-2.1s0.3-1.5,0.9-2.1S256.1,5.8,256.9,5.8z"/>
	<path d="M289.8,0.2h1.1v38.4c0,1.3,0.3,2.3,0.9,2.8c0.6,0.5,1.6,0.8,3.2,0.8v1.1h-14.1c-4.4,0-7.8-1.2-10.3-3.6
		c-2.5-2.4-3.8-5.4-3.8-9.1c0-3.4,1.1-6.3,3.3-8.7c2.2-2.4,4.9-3.6,8.1-3.6c2.5,0,5.3,1,8.2,2.9V6.4c0-1.6-0.2-2.7-0.6-3.3
		c-0.4-0.6-1.3-0.9-2.6-0.9h-1.4V1.1L289.8,0.2z M286.3,38.6V23.9c-0.9-1.3-2-2.3-3.3-3c-1.3-0.7-2.5-1.1-3.8-1.1
		c-2.2,0-4,0.9-5.4,2.7c-1.4,1.8-2,4.2-2,7.1c0,3.8,0.9,6.8,2.8,9.1c1.9,2.3,4.5,3.5,7.8,3.5c1.4,0,2.3-0.3,2.9-0.9
		C286,40.8,286.3,39.9,286.3,38.6z"/>
	<path d="M321.4,18.4h1.1v20.4c0,1.3,0.3,2.3,0.9,2.7s1.7,0.7,3.3,0.7v1.1l-8.8,0.5v-4.5h-0.1c-2.4,3.2-5.3,4.8-8.5,4.8
		c-2.3,0-4.2-0.8-5.7-2.3c-1.5-1.6-2.2-3.5-2.2-5.9V23.5c0-1.3-0.3-2.1-0.9-2.6s-1.8-0.7-3.4-0.7v-1.1l7.8-0.7h1.2v17.4
		c0,1.7,0.5,3,1.5,4c1,1,2.3,1.5,4,1.5c2.3,0,4.5-1.3,6.4-4V24.1c0-1.7-0.3-2.7-0.8-3.2c-0.5-0.4-1.8-0.7-4-0.7v-1.1L321.4,18.4z"/>
	<path d="M330.2,19.1h20.4v1.2l-15.4,21.9h7.6c2.5,0,4.4-0.5,5.5-1.5c1.1-1,1.7-2.6,1.8-4.8h1.2l-0.6,7.4h-21v-1.2L345,20.3h-6.8
		c-2.1,0-3.8,0.5-5.1,1.6c-1.3,1.1-2.1,2.5-2.3,4.3h-1.2L330.2,19.1z"/>
	<path d="M362.1,18.4h1.1v28.8c0,8.4-4.2,12.5-12.7,12.5h-0.7v-1.1h0.2c3,0,5.2-0.8,6.5-2.5c1.3-1.7,2-4.4,2-8.2V23.3
		c0-1.3-0.3-2.1-0.9-2.5c-0.6-0.4-1.8-0.6-3.7-0.6v-1.1L362.1,18.4z M360.6,5.8c0.8,0,1.5,0.3,2.1,0.9s0.9,1.3,0.9,2.1
		s-0.3,1.5-0.9,2.1s-1.3,0.9-2.1,0.9c-0.8,0-1.5-0.3-2.1-0.9s-0.9-1.3-0.9-2.1s0.3-1.5,0.9-2.1C359,6.1,359.8,5.8,360.6,5.8z"/>
	<path d="M377.3,43.4c-1.9,0-3.5-0.6-4.9-1.9s-2-2.8-2-4.6c0-1.7,0.6-3.1,1.8-4.2c1.2-1.1,3.6-2.2,7.2-3.2c2.3-0.6,3.8-1.2,4.6-1.6
		v-1.8c0-1.8-0.5-3.2-1.5-4.3c-1-1.1-2.3-1.6-4-1.6c-1.5,0-2.8,0.5-4,1.4c-1.2,0.9-2,2.2-2.4,3.8l-1.2-0.3c0.5-2.3,1.6-4.1,3.2-5.4
		c1.6-1.4,3.6-2,5.8-2c2.6,0,4.7,0.8,6.4,2.4c1.6,1.6,2.4,3.8,2.4,6.6V37c0,1.5,0.1,2.5,0.3,3c0.2,0.5,0.6,0.8,1.1,0.8
		c0.4,0,0.6-0.2,0.9-0.5s0.5-0.9,0.8-1.9h1.2c-0.1,1.5-0.6,2.7-1.4,3.6c-0.8,0.9-1.9,1.3-3.3,1.3c-2,0-3.4-1.2-4.1-3.5
		c-1.2,1.3-2.3,2.2-3.2,2.7S378.6,43.4,377.3,43.4z M383.9,37.7v-8.2c-0.7,0.3-1.7,0.7-3,1.1c-2.4,0.8-4,1.6-4.7,2.5
		c-0.7,0.8-1,1.9-1,3.3c0,1.2,0.4,2.3,1.1,3.1c0.7,0.9,1.6,1.3,2.6,1.3c0.9,0,1.9-0.3,2.9-0.9C382.7,39.3,383.5,38.5,383.9,37.7z"/>
	<path d="M403.5,18.4v5.1h0.1c1-1.5,2.3-2.8,3.9-3.7c1.6-0.9,3.2-1.4,4.8-1.4c1.8,0,3.3,0.5,4.7,1.5s2.4,2.3,2.9,4
		c2.6-3.6,5.6-5.5,9-5.5c2.4,0,4.3,0.7,5.9,2.2c1.6,1.5,2.3,3.5,2.3,6v12.2c0,1.3,0.3,2.2,0.9,2.7c0.6,0.5,1.6,0.7,3.2,0.7v1.2
		h-12.9v-1.2c1.8,0,2.9-0.3,3.4-0.9s0.7-1.8,0.7-3.8V26c0-1.6-0.5-2.8-1.4-3.7c-0.9-0.9-2.2-1.3-3.9-1.3c-2.5,0-4.8,1.6-6.9,4.7v13
		c0,1.4,0.3,2.3,0.9,2.8c0.6,0.5,1.6,0.7,3.2,0.7v1.2h-12.8v-1.2c1.8,0,3-0.3,3.4-0.9c0.4-0.6,0.7-1.8,0.7-3.8V26.3
		c0-1.6-0.5-2.9-1.4-3.8c-1-1-2.2-1.4-3.7-1.4c-1.3,0-2.6,0.4-3.9,1.3c-1.3,0.8-2.3,2-3.1,3.4v13.2c0,1.3,0.3,2.1,0.9,2.6
		c0.6,0.5,1.7,0.7,3.2,0.7v1.1h-12.9v-1.2c1.8,0,2.9-0.3,3.4-0.8s0.7-1.6,0.7-3.1V23.8c0-1.3-0.3-2.2-0.8-2.7
		c-0.5-0.6-1.4-0.8-2.6-0.8H394v-1.1l8.4-0.7H403.5z"/>
	<path d="M451.8,43.4c-1.9,0-3.5-0.6-4.9-1.9s-2-2.8-2-4.6c0-1.7,0.6-3.1,1.8-4.2s3.6-2.2,7.2-3.2c2.3-0.6,3.8-1.2,4.6-1.6v-1.8
		c0-1.8-0.5-3.2-1.5-4.3c-1-1.1-2.3-1.6-4-1.6c-1.5,0-2.8,0.5-4,1.4c-1.2,0.9-2,2.2-2.4,3.8l-1.2-0.3c0.5-2.3,1.6-4.1,3.2-5.4
		c1.6-1.4,3.6-2,5.8-2c2.6,0,4.7,0.8,6.4,2.4s2.4,3.8,2.4,6.6V37c0,1.5,0.1,2.5,0.3,3c0.2,0.5,0.6,0.8,1.1,0.8
		c0.4,0,0.6-0.2,0.9-0.5c0.2-0.3,0.5-0.9,0.8-1.9h1.2c-0.1,1.5-0.6,2.7-1.4,3.6c-0.8,0.9-1.9,1.3-3.3,1.3c-2,0-3.4-1.2-4.1-3.5
		c-1.2,1.3-2.3,2.2-3.2,2.7C454.2,43.1,453.1,43.4,451.8,43.4z M458.3,37.7v-8.2c-0.7,0.3-1.7,0.7-3,1.1c-2.4,0.8-4,1.6-4.7,2.5
		c-0.7,0.8-1,1.9-1,3.3c0,1.2,0.4,2.3,1.1,3.1c0.7,0.9,1.6,1.3,2.6,1.3c0.9,0,1.9-0.3,2.9-0.9C457.2,39.3,457.9,38.5,458.3,37.7z"/>
	<path d="M477.3,18.4v4.9c2.8-3.2,5.8-4.9,8.8-4.9c2.3,0,4.3,0.8,5.9,2.4c1.6,1.6,2.3,3.7,2.3,6.3v11c0,1.7,0.3,2.8,0.8,3.3
		s1.7,0.8,3.3,0.8v1.1h-13v-1.1c1.6,0,2.7-0.2,3.3-0.6c0.6-0.4,0.9-1.2,0.9-2.4V26.5c0-1.7-0.5-3.1-1.5-4.1c-1-1-2.3-1.5-3.9-1.5
		c-2.3,0-4.6,1.6-6.9,4.8v11.9c0,2,0.3,3.3,0.8,3.8c0.5,0.5,1.6,0.8,3.3,0.8v1.1h-12.8v-1.1c1.9,0,3-0.3,3.4-0.9
		c0.4-0.6,0.6-1.9,0.6-3.8V23.8c0-1.5-0.3-2.4-0.8-2.9c-0.5-0.5-1.6-0.7-3.3-0.7v-1.1l7.6-0.7H477.3z"/>
</g>
</svg>
