<svg width="67" height="101" viewBox="0 0 67 101" fill="none" xmlns="http://www.w3.org/2000/svg">
<path d="M52.1736 57.0091C51.6924 56.5275 51.1209 56.1454 50.4919 55.8848C49.8629 55.6241 49.1888 55.4899 48.5079 55.4899C47.827 55.4899 47.1529 55.6241 46.5239 55.8848C45.8949 56.1454 45.3234 56.5275 44.8422 57.0091L44.8244 57.0273C43.1332 58.7749 40.5096 61.4732 39.4955 62.4866C33.1545 62.1987 27.8684 57.0819 27.7092 50.9894C28.3342 50.1316 30.6623 47.9425 31.6996 46.9671C32.7502 45.9792 33.1387 45.6073 33.3475 45.3519C34.2843 44.3718 34.8007 43.0643 34.7865 41.7086C34.7723 40.3529 34.2285 39.0565 33.2713 38.0964L24.2936 29.1136C23.8134 28.6305 23.2421 28.2475 22.6129 27.9867C21.9837 27.7259 21.309 27.5925 20.6279 27.5943C19.2757 27.5906 17.9764 28.119 17.0105 29.0654C12.2002 33.1816 10.2449 38.9915 11.3564 45.8712C12.3049 51.7419 15.4818 58.1821 20.3018 64.0052C24.8896 69.5476 30.5271 73.9423 35.7691 76.062C36.1531 76.2128 36.581 76.206 36.96 76.043C37.339 75.8801 37.6383 75.5741 37.7929 75.1917C37.9476 74.8093 37.945 74.3813 37.7859 74.0007C37.6267 73.6201 37.3238 73.3178 36.943 73.1593C26.6797 69.0089 16.1676 56.0241 14.4471 45.3718C13.5027 39.5278 15.0627 34.8312 19.0834 31.4124L19.1762 31.3269C19.3663 31.1356 19.5925 30.9839 19.8417 30.8806C20.0908 30.7774 20.358 30.7246 20.6277 30.7253C20.8975 30.7246 21.1646 30.7774 21.4138 30.8807C21.663 30.984 21.8892 31.1357 22.0793 31.3271L31.057 40.3097C31.4416 40.6956 31.6576 41.2182 31.6576 41.763C31.6576 42.3078 31.4416 42.8304 31.057 43.2163L30.9478 43.3255L30.9025 43.3935C30.7232 43.5874 30.1043 44.1694 29.5549 44.6861C28.5957 45.588 27.4018 46.7107 26.4547 47.6948C25.4256 48.764 24.3662 49.8648 24.5777 51.0023C24.7477 58.9669 31.7785 65.6312 40.0531 65.6312H40.1094C40.793 65.6312 40.9756 65.4454 42.1707 64.2368C42.7242 63.6769 43.4545 62.9304 44.1824 62.1839C45.5639 60.7665 46.9363 59.3491 47.065 59.2151C47.4504 58.8333 47.9714 58.6198 48.5139 58.6212C49.0564 58.6227 49.5762 58.8391 49.9596 59.223L57.2937 66.5612C58.2301 67.5435 58.6635 68.6315 58.5814 69.7933C58.4748 71.3089 57.5043 72.8931 55.9183 74.1399L55.8597 74.1884C53.089 76.5937 48.2023 75.9694 44.2762 75.4677L44.1689 75.454C43.7611 75.4095 43.3521 75.5268 43.0298 75.7807C42.7076 76.0347 42.4979 76.4049 42.4459 76.8119C42.3939 77.2189 42.5037 77.63 42.7517 77.9568C42.9997 78.2836 43.3661 78.5 43.7721 78.5595L43.8793 78.5732C45.7334 78.8101 47.7715 79.0706 49.7959 79.0704C50.5771 79.0727 51.3578 79.0271 52.1334 78.9337V91.2165C52.1315 92.7887 51.5061 94.296 50.3943 95.4077C49.2826 96.5195 47.7753 97.1449 46.2031 97.1468H9.06113C7.48895 97.1448 5.98172 96.5194 4.87003 95.4077C3.75835 94.2959 3.13297 92.7887 3.13105 91.2165V9.33977C3.13297 7.76758 3.75835 6.26034 4.87003 5.14861C5.98172 4.03689 7.48895 3.41146 9.06113 3.4095H46.2027C47.7749 3.41141 49.2822 4.03682 50.3939 5.14854C51.5057 6.26027 52.1311 7.76755 52.133 9.33977V19.939C52.1307 20.146 52.1695 20.3515 52.2471 20.5435C52.3247 20.7354 52.4397 20.9101 52.5853 21.0573C52.7309 21.2046 52.9043 21.3215 53.0953 21.4012C53.2864 21.481 53.4914 21.5221 53.6985 21.5221C53.9056 21.5221 54.1106 21.481 54.3017 21.4012C54.4928 21.3215 54.6661 21.2046 54.8118 21.0573C54.9574 20.9101 55.0723 20.7354 55.1499 20.5435C55.2276 20.3515 55.2664 20.146 55.264 19.939V9.33977C55.2614 6.93738 54.3058 4.63416 52.6071 2.93541C50.9083 1.23667 48.6051 0.281131 46.2027 0.278442L9.06113 0.278442C6.65878 0.281182 4.35561 1.23674 2.6569 2.93548C0.958198 4.63422 0.00268807 6.93741 0 9.33977V91.2171C0.00273965 93.6194 0.958266 95.9226 2.65696 97.6213C4.35565 99.3201 6.65879 100.276 9.06113 100.278H46.2027C48.6051 100.276 50.9083 99.3201 52.607 97.6214C54.3058 95.9227 55.2613 93.6195 55.264 91.2171V78.1552C56.218 77.7775 57.1029 77.2446 57.8828 76.5778C60.1443 74.7884 61.5367 72.3982 61.7047 70.0126C61.8492 67.9567 61.1019 66.0103 59.5439 64.3837L52.1736 57.0091Z" fill="#2C3E50"/>
<path d="M39.634 36.3466C46.2514 37.9832 52.3012 43.9638 54.0187 50.5654C54.1262 50.964 54.3868 51.304 54.7437 51.5114C55.1006 51.7188 55.525 51.7768 55.9245 51.6729C56.324 51.569 56.6663 51.3115 56.8769 50.9564C57.0875 50.6014 57.1494 50.1775 57.049 49.7771C56.0791 46.049 53.882 42.3521 50.8625 39.367C47.843 36.3818 44.1223 34.2302 40.3857 33.3064C40.1862 33.2571 39.9788 33.2475 39.7756 33.2783C39.5723 33.309 39.3771 33.3795 39.201 33.4857C38.8455 33.7003 38.5898 34.0472 38.4901 34.4503C38.3904 34.8533 38.4549 35.2795 38.6695 35.635C38.884 35.9905 39.2309 36.2462 39.634 36.3459V36.3466Z" fill="#633ABD"/>
<path d="M66.7674 49.4048C64.8941 36.771 53.5396 25.3716 40.918 23.4527C40.7136 23.4193 40.5047 23.4268 40.3033 23.4748C40.1018 23.5227 39.9119 23.6101 39.7445 23.7319C39.5771 23.8537 39.4355 24.0076 39.328 24.1845C39.2204 24.3614 39.149 24.5579 39.1179 24.7626C39.0868 24.9673 39.0966 25.1761 39.1467 25.377C39.1968 25.5779 39.2863 25.7668 39.41 25.9329C39.5336 26.0989 39.689 26.2388 39.8671 26.3445C40.0452 26.4501 40.2424 26.5193 40.4474 26.5482C51.5974 28.2433 62.0152 38.7027 63.6701 49.864C63.7251 50.235 63.9115 50.574 64.1954 50.8192C64.4792 51.0644 64.8417 51.1996 65.2168 51.2001C65.2943 51.2001 65.3717 51.1945 65.4484 51.1831C65.8591 51.1222 66.2288 50.9006 66.4762 50.5671C66.7235 50.2336 66.8283 49.8155 66.7674 49.4048Z" fill="#633ABD"/>
<path d="M29.9689 93.6933C30.1759 93.6957 30.3814 93.6569 30.5733 93.5792C30.7653 93.5016 30.94 93.3867 31.0872 93.241C31.2344 93.0954 31.3513 92.9221 31.4311 92.731C31.5109 92.5399 31.552 92.3349 31.552 92.1278C31.552 91.9207 31.5109 91.7157 31.4311 91.5246C31.3513 91.3336 31.2344 91.1602 31.0872 91.0146C30.94 90.869 30.7653 90.754 30.5733 90.6764C30.3814 90.5988 30.1759 90.56 29.9689 90.5623H25.295C25.088 90.56 24.8825 90.5988 24.6905 90.6764C24.4986 90.754 24.3239 90.869 24.1767 91.0146C24.0294 91.1602 23.9125 91.3336 23.8328 91.5246C23.753 91.7157 23.7119 91.9207 23.7119 92.1278C23.7119 92.3349 23.753 92.5399 23.8328 92.731C23.9125 92.9221 24.0294 93.0954 24.1767 93.241C24.3239 93.3867 24.4986 93.5016 24.6905 93.5792C24.8825 93.6569 25.088 93.6957 25.295 93.6933H29.9689Z" fill="#2C3E50"/>
<path d="M37.2569 7.70481H18.0069C17.7999 7.7025 17.5944 7.74128 17.4024 7.81892C17.2105 7.89656 17.0358 8.01151 16.8886 8.15711C16.7413 8.30271 16.6245 8.47607 16.5447 8.66716C16.4649 8.85825 16.4238 9.06326 16.4238 9.27034C16.4238 9.47741 16.4649 9.68242 16.5447 9.87351C16.6245 10.0646 16.7413 10.238 16.8886 10.3836C17.0358 10.5292 17.2105 10.6441 17.4024 10.7218C17.5944 10.7994 17.7999 10.8382 18.0069 10.8359H37.2569C37.464 10.8382 37.6695 10.7994 37.8614 10.7218C38.0534 10.6441 38.2281 10.5292 38.3753 10.3836C38.5225 10.238 38.6394 10.0646 38.7192 9.87351C38.799 9.68242 38.84 9.47741 38.84 9.27034C38.84 9.06326 38.799 8.85825 38.7192 8.66716C38.6394 8.47607 38.5225 8.30271 38.3753 8.15711C38.2281 8.01151 38.0534 7.89656 37.8614 7.81892C37.6695 7.74128 37.464 7.7025 37.2569 7.70481Z" fill="#2C3E50"/>
</svg>
