<svg width="21" height="24" viewBox="0 0 21 24" fill="none" xmlns="http://www.w3.org/2000/svg">
<path d="M5.63532 20.2902C5.27679 20.0832 5.1538 19.6242 5.3608 19.2657L8.3608 14.0695C8.5678 13.711 9.86684 14.461 9.65984 14.8195L6.65984 20.0157C6.45284 20.3742 5.99386 20.4972 5.63532 20.2902Z" fill="#633ABD"/>
<path d="M11.5382 16.77L5.16775 13.092C4.34763 12.6185 4.04539 11.578 4.49204 10.7724C5.42319 9.09757 7.26014 8.15588 9.17367 8.37154C9.27025 8.38226 9.36261 8.33629 9.41061 8.25315L10.2111 6.86664C10.2666 6.77051 10.2649 6.65751 10.2292 6.61729C9.32158 5.60136 9.29158 4.09332 10.1581 3.03245C10.9966 2.00619 12.5392 1.75829 13.7473 2.45579L17.0261 4.34879C18.2342 5.04629 18.7908 6.50619 18.3213 7.74545C17.8353 9.02719 16.5143 9.75522 15.1811 9.47629C15.1276 9.46501 15.0303 9.51965 14.9743 9.61664L14.1738 11.0031C14.1258 11.0863 14.1321 11.1893 14.1893 11.2662C15.3332 12.8169 15.4362 14.8786 14.4513 16.5224C14.2493 16.8584 13.4426 17.8695 11.5382 16.77ZM12.9959 3.7552C12.4183 3.4217 11.6975 3.51821 11.3193 3.98117C10.8696 4.53212 10.9922 5.2218 11.347 5.6172C11.8251 6.15305 11.8912 6.95673 11.5102 7.61664L10.7097 9.00315C10.3632 9.6033 9.69372 9.9408 9.00356 9.86219C7.69577 9.71335 6.43939 10.3575 5.80358 11.5007C5.75294 11.5904 5.80777 11.7295 5.91775 11.793L12.2882 15.471C12.9256 15.839 13.1556 15.7627 13.1583 15.762C13.837 14.6285 13.7657 13.2179 12.9826 12.1583C12.5702 11.6027 12.5277 10.8542 12.8747 10.2531L13.6752 8.86664C14.0567 8.20586 14.7849 7.86069 15.4884 8.0082C16.0073 8.1173 16.6659 7.87862 16.9182 7.21367C17.13 6.65471 16.8532 5.9822 16.2756 5.6487L12.9959 3.7552Z" fill="#482497"/>
</svg>
