<svg width="18" height="15" viewBox="0 0 18 15" fill="none" xmlns="http://www.w3.org/2000/svg">
<path d="M4.29568 4.20222H1.43859C1.11737 4.20222 0.856934 3.94178 0.856934 3.62056C0.856934 3.29934 1.11737 3.03891 1.43859 3.03891H4.29568C5.60746 3.03891 6.84638 3.67625 7.60893 4.74388L8.28525 5.69067L7.5704 6.69141L6.66229 5.42006C6.11771 4.65751 5.23302 4.20222 4.29568 4.20222ZM16.9728 11.3525L14.6462 9.02588C14.4189 8.7986 14.0509 8.7986 13.8238 9.02588C13.5966 9.25316 13.5965 9.62121 13.8238 9.84834L15.1575 11.1821H13.7045C12.7673 11.1821 11.8826 10.7268 11.3379 9.96424L10.4298 8.69288L9.71496 9.69362L10.3913 10.6404C11.1538 11.708 12.3926 12.3454 13.7045 12.3454H15.1575L13.8238 13.6791C13.5965 13.9064 13.5965 14.2744 13.8238 14.5016C13.9373 14.6152 14.0862 14.672 14.235 14.672C14.3838 14.672 14.5327 14.6152 14.6462 14.5016L16.9728 12.175C17.2001 11.9478 17.2001 11.5796 16.9728 11.3525ZM16.9728 3.20933L14.6462 0.882711C14.4189 0.655429 14.0509 0.655429 13.8238 0.882711C13.5966 1.10999 13.5965 1.47803 13.8238 1.70517L15.1575 3.03891H13.7045C12.3928 3.03891 11.1538 3.67625 10.391 4.74417L6.66272 9.96395C6.11771 10.7268 5.23302 11.1821 4.29568 11.1821H1.43859C1.11737 11.1821 0.856934 11.4425 0.856934 11.7637C0.856934 12.085 1.11737 12.3454 1.43859 12.3454H4.29568C5.60746 12.3454 6.84638 11.708 7.60922 10.6401L11.3375 5.42035C11.8825 4.65751 12.7672 4.20222 13.7045 4.20222H15.1575L13.8238 5.53595C13.5965 5.76323 13.5965 6.13127 13.8238 6.35841C13.9373 6.47198 14.0862 6.52884 14.235 6.52884C14.3838 6.52884 14.5327 6.47198 14.6462 6.35841L16.9728 4.03179C17.2001 3.80465 17.2001 3.43647 16.9728 3.20933Z" fill="#2C3E50"/>
</svg>
