<svg width="37" height="46" viewBox="0 0 37 46" fill="none" xmlns="http://www.w3.org/2000/svg">
<path d="M12.5423 20.6733C12.4871 26.1157 19.3928 28.9326 23.2614 25.0455C27.2056 21.2262 24.3573 14.4552 18.8215 14.4904C15.3595 14.4903 12.5423 17.2644 12.5423 20.6733ZM23.5382 20.6733C23.3486 26.8131 14.2933 26.8109 14.105 20.6732C14.3269 14.5272 23.3162 14.5282 23.5382 20.6733Z" fill="#AA9A73"/>
<path d="M30.9694 24.4947C30.9603 24.1405 30.944 23.7878 30.9242 23.4358C30.8688 22.1909 30.7246 20.9131 30.4913 19.6217C29.5227 13.9878 27.1189 8.78064 23.3673 4.56116C22.3915 3.44452 21.3264 2.41031 20.1737 1.48326C19.8991 1.25667 19.6212 1.0329 19.3364 0.815114C19.1946 0.705418 19.0237 0.650569 18.8528 0.650569V0.650956C18.8463 0.650706 18.8398 0.64946 18.8333 0.64936V0.648438C18.8314 0.648438 18.8295 0.648874 18.8276 0.648899C18.8257 0.648874 18.8238 0.648438 18.822 0.648438C18.6511 0.648438 18.4801 0.703286 18.3384 0.812983C18.2305 0.89548 18.1259 0.980794 18.0194 1.06456C16.3151 2.35574 14.7909 3.87735 13.4566 5.55721C13.4433 5.57363 13.4299 5.59001 13.4166 5.60646C13.378 5.65531 13.3396 5.70431 13.3013 5.75342C10.4849 9.29025 8.54587 13.4325 7.52916 17.8883C6.9902 20.137 6.7096 22.3751 6.70291 24.4945C-1.23565 30.4283 -0.0113483 40.1785 3.89753 45.2788C4.00385 45.4308 4.16201 45.5276 4.33409 45.5691C4.39594 45.5859 4.46001 45.5957 4.52537 45.5967C4.77096 45.6017 5.0039 45.492 5.15582 45.3013L7.58646 42.2435C7.60854 42.2149 7.62774 42.1862 7.64533 42.1575L9.74754 39.5148C10.031 39.5152 10.3414 39.5152 10.6805 39.5148H12.577L13.4859 42.1724C13.8087 43.1111 14.7013 43.7431 15.7077 43.7431H15.7203H18.822H18.8333H18.8528V43.7452H21.9671C22.9735 43.7452 23.866 43.1132 24.1889 42.1745L25.0985 39.5148H25.8343C26.6568 39.5166 27.3481 39.5179 27.9272 39.5169L29.9699 42.0847C29.9956 42.1379 30.0281 42.1909 30.0688 42.2435L32.4994 45.3013C32.6513 45.492 32.8843 45.6017 33.1299 45.5967C33.1394 45.5966 33.1488 45.5951 33.1583 45.5946C33.397 45.5906 33.634 45.4856 33.7773 45.281C37.6865 40.1801 38.9107 30.4283 30.9694 24.4947ZM20.9418 37.9749C20.2513 37.9746 19.545 37.9743 18.8333 37.974C18.8314 37.974 18.8295 37.974 18.8276 37.974C18.8257 37.974 18.8238 37.974 18.822 37.974C15.6345 37.9715 12.3477 37.9715 9.96737 37.9753C8.74253 33.6834 7.04795 25.2027 9.46137 16.6478C9.4985 16.5176 9.53572 16.3874 9.57453 16.2579C9.59176 16.1999 9.60873 16.1418 9.62634 16.0838C10.2313 14.1088 11.0347 12.2128 12.0327 10.4258C12.0819 10.3384 12.1305 10.2509 12.1809 10.1637C12.2093 10.114 12.2388 10.0649 12.2675 10.0155C12.6563 9.35139 13.0778 8.69349 13.5365 8.04426C15.0049 5.95698 16.7829 4.06382 18.8276 2.4095C20.8723 4.06382 22.6503 5.95698 24.1187 8.04426C31.8183 18.9416 29.3294 32.2237 27.6875 37.9765C27.5517 37.9766 27.4076 37.9767 27.2572 37.9767C25.465 37.9744 23.2343 37.9739 20.9418 37.9749ZM4.59179 43.4998C4.5054 43.3679 4.42104 43.2332 4.33875 43.096C3.92309 42.3682 3.44429 41.391 3.06052 40.2283C2.13777 37.2916 2.0993 33.8207 3.55236 30.6763C4.38354 28.9331 5.51434 27.6071 6.52083 26.6681C6.5741 26.6197 6.62687 26.5711 6.6813 26.5232C6.69956 27.7136 6.76884 28.8652 6.87373 29.9659C6.87346 29.9959 6.87469 30.0267 6.87761 30.0584C7.09663 32.6849 7.81569 36.2849 8.50691 38.5799L4.59179 43.4998ZM18.822 42.2036H15.7203C15.3835 42.2036 15.0847 41.9929 14.9797 41.68L14.2378 39.5148C15.6666 39.5148 17.2458 39.5135 18.8276 39.5123C18.836 39.5123 18.8444 39.5123 18.8528 39.5123V39.5144C19.5333 39.5144 20.2131 39.5141 20.8815 39.5138C21.7567 39.5144 22.6114 39.5148 23.4174 39.5148L22.6755 41.68C22.5705 41.9929 22.2717 42.2036 21.9349 42.2036H18.8333H18.822ZM30.792 29.8583C30.8911 28.7903 30.9563 27.6747 30.9739 26.5232C31.3161 26.8244 31.6346 27.1354 31.9314 27.4545C31.9531 27.4781 31.9747 27.5011 31.9963 27.525C31.9992 27.5281 32.0019 27.5312 32.0047 27.5343C32.4568 28.0348 32.9101 28.6102 33.3306 29.2618C36.3288 33.9779 35.4748 39.8079 33.0714 43.4874L29.1679 38.582C29.8591 36.2871 30.5782 32.687 30.7972 30.0605C30.8038 29.9885 30.8011 29.9214 30.792 29.8583Z" fill="#AA9A73"/>
</svg>
