<svg width="62" height="71" viewBox="0 0 62 71" fill="none" xmlns="http://www.w3.org/2000/svg">
<path d="M31.1981 0.499268C33.3794 1.77678 35.5548 3.06464 37.7432 4.32992C45.4615 8.79248 53.182 13.2513 60.9113 17.6948C61.3603 17.9529 61.5546 18.2163 61.5502 18.7549C61.5231 22.1332 61.5257 25.5119 61.5483 28.8902C61.5516 29.393 61.3788 29.6614 60.9528 29.9086C58.0534 31.5909 55.1693 33.2997 52.2806 35.0003C51.968 35.1844 51.6568 35.371 51.2561 35.6093C51.5153 35.7713 51.7093 35.9007 51.9106 36.0172C54.9301 37.7648 57.9462 39.5182 60.976 41.2479C61.3812 41.4792 61.5505 41.728 61.5476 42.2073C61.5267 45.6313 61.5462 49.0556 61.518 52.4795C61.5157 52.7564 61.3256 53.1528 61.0997 53.2881C58.8894 54.6111 56.6528 55.8904 54.3511 57.2242C54.0156 56.6492 53.687 56.086 53.3157 55.4494C54.0076 55.048 54.6729 54.6621 55.3383 54.2762C56.5612 53.5668 57.7926 52.8713 58.9991 52.135C59.2112 52.0055 59.4516 51.7071 59.4546 51.4837C59.4866 49.1101 59.4737 46.7359 59.4701 44.3618C59.4699 44.2789 59.4367 44.1961 59.4004 44.0271C52.7082 47.9387 46.064 51.8222 39.3443 55.7499C39.3181 55.5138 39.2842 55.3494 39.2838 55.1849C39.2721 50.3683 39.2693 45.5517 39.245 40.7352C39.2429 40.3128 39.3823 40.0901 39.7434 39.8816C42.6065 38.2284 45.4552 36.5505 48.3111 34.8847C51.8556 32.8172 55.4018 30.7524 58.9504 28.6918C59.2578 28.5133 59.491 28.3539 59.4866 27.9204C59.4629 25.5922 59.4757 23.2637 59.4729 20.9352C59.4727 20.8276 59.4429 20.7199 59.4158 20.5377C59.1737 20.6665 58.9757 20.7636 58.7855 20.8741C50.1491 25.8904 41.5149 30.9103 32.873 35.9171C32.4752 36.1476 32.2989 36.3849 32.2997 36.8704C32.3159 46.8688 32.3119 56.8673 32.3118 66.8658C32.3118 67.0646 32.3118 67.2634 32.3118 67.6089C38.6829 63.92 44.9461 60.2936 51.2518 56.6426C51.601 57.2412 51.9292 57.8037 52.2852 58.4139C50.95 59.1911 49.6536 59.9486 48.3544 60.7014C42.83 63.902 37.3017 67.096 31.7856 70.3109C31.3565 70.561 31.0509 70.5632 30.6203 70.3106C27.7098 68.6027 24.7865 66.9162 21.8522 65.2495C21.3837 64.9834 21.19 64.6998 21.1963 64.1389C21.2351 60.6466 21.2295 57.1538 21.2386 53.6612C21.2392 53.4116 21.2386 53.1619 21.2386 52.7719C20.9306 52.9386 20.7035 53.0543 20.4833 53.1817C17.4238 54.9513 14.3609 56.7148 11.3121 58.5024C10.9145 58.7355 10.6244 58.7745 10.2075 58.5273C7.26521 56.7831 4.30896 55.0623 1.34712 53.3515C0.984373 53.1419 0.85118 52.9024 0.851563 52.4851C0.861847 41.2083 0.861758 29.9315 0.851809 18.6547C0.851446 18.241 0.973226 17.9973 1.34067 17.786C4.32568 16.0698 7.30315 14.3402 10.2699 12.5927C10.6613 12.3622 10.9425 12.3879 11.3222 12.6096C14.3744 14.3914 17.4394 16.1513 20.5012 17.9166C20.6931 18.0273 20.8914 18.1267 21.1893 18.2863C21.1893 17.9462 21.1893 17.7067 21.1893 17.4671C21.1893 13.9516 21.2006 10.4361 21.1766 6.92085C21.1732 6.41655 21.3451 6.15779 21.7711 5.91374C24.6401 4.2703 27.4937 2.60026 30.3488 0.932851C30.5548 0.812584 30.733 0.644902 30.9241 0.499268C31.0155 0.499268 31.1068 0.499268 31.1981 0.499268ZM58.409 18.7076C58.3292 18.6207 58.3168 18.5987 58.2979 18.5878C49.3541 13.4191 40.4116 8.24815 31.4551 3.1015C31.2516 2.98456 30.8412 3.05582 30.61 3.18611C28.7229 4.24974 26.8552 5.34791 24.9824 6.43691C24.7686 6.56121 24.5596 6.69374 24.2877 6.85944C27.4809 8.70582 30.6081 10.514 33.7667 12.3404C33.4044 12.967 33.0878 13.5144 32.7409 14.1143C29.5762 12.2908 26.4529 10.4911 23.2462 8.64341C23.2462 12.2335 23.2377 15.6799 23.2663 19.126C23.2681 19.3455 23.5103 19.6443 23.7216 19.7684C26.0415 21.1314 28.3833 22.4571 30.7033 23.82C31.0862 24.0449 31.3592 24.0673 31.7525 23.8351C34.5015 22.2118 37.2675 20.6171 40.0268 19.0112C40.1972 18.9121 40.3575 18.7957 40.5798 18.6498C38.6267 17.5185 36.7402 16.4259 34.8049 15.305C35.1645 14.6847 35.4879 14.1269 35.834 13.5299C38.8217 15.2558 41.7265 16.9338 44.6469 18.6209C44.5565 18.7258 44.5335 18.771 44.4967 18.7925C40.1994 21.2917 35.904 23.7941 31.5937 26.2708C31.3999 26.3822 31.021 26.349 30.8136 26.2321C28.0927 24.6979 25.3836 23.1428 22.6788 21.5805C18.8879 19.3908 15.1053 17.1866 11.3097 15.0051C11.0878 14.8775 10.7078 14.7645 10.5262 14.8666C8.34381 16.0937 6.18499 17.3628 3.96506 18.6529C4.19289 18.7957 4.36126 18.9088 4.53647 19.01C13.2834 24.064 22.0325 29.1143 30.7729 34.1795C31.1604 34.404 31.436 34.3973 31.8167 34.1752C38.4344 30.3131 45.0605 26.4655 51.6849 22.615C53.9097 21.3217 56.1348 20.0291 58.409 18.7076ZM2.97495 20.5102C2.95158 20.7688 2.92233 20.9418 2.92229 21.1147C2.92011 31.1807 2.92267 41.2466 2.91212 51.3125C2.91168 51.7309 3.0486 51.9635 3.41283 52.1715C5.31353 53.2569 7.19733 54.3718 9.08856 55.4739C9.25926 55.5733 9.441 55.6539 9.73572 55.8029C9.73572 52.4313 9.73572 49.1606 9.73572 45.8869C10.4631 45.8869 11.0923 45.8869 11.795 45.8869C11.795 49.1931 11.795 52.4573 11.795 55.8066C12.0846 55.6497 12.284 55.5479 12.4776 55.4359C15.2208 53.8488 17.9568 52.2492 20.7126 50.6842C21.1358 50.4439 21.2635 50.1719 21.2625 49.7119C21.257 47.1555 21.2656 44.5988 21.3032 42.0428C21.3106 41.5449 21.1583 41.27 20.721 41.0219C17.9448 39.4466 15.1866 37.8395 12.421 36.2453C12.2588 36.1519 12.0843 36.0799 11.8077 35.9456C11.8077 38.6196 11.8077 41.1688 11.8077 43.7387C11.0897 43.7387 10.4461 43.7387 9.83393 43.7387C9.83393 39.9473 9.83393 36.2066 9.83393 32.4398C9.96257 32.4786 10.0089 32.4836 10.0458 32.5049C14.3522 34.9869 18.6607 37.4653 22.9548 39.9686C23.1548 40.0852 23.3363 40.4243 23.3382 40.6613C23.3647 44.0156 23.371 47.3703 23.3573 50.7248C23.3404 54.8553 23.3067 58.9857 23.2607 63.116C23.2559 63.5417 23.4048 63.7664 23.7643 63.9705C25.7868 65.1184 27.7955 66.2907 29.81 67.4527C29.9213 67.5169 30.0424 67.5641 30.2195 67.6478C30.2338 67.379 30.2534 67.1827 30.2534 66.9863C30.2549 56.943 30.2508 46.8997 30.2666 36.8564C30.2674 36.3714 30.0914 36.1366 29.6912 35.9061C21.1164 30.9673 12.5498 26.0142 3.98099 21.0651C3.67103 20.8861 3.35421 20.719 2.97495 20.5102ZM41.3151 52.2155C47.0899 48.8387 52.735 45.5378 58.4641 42.1878C55.3676 40.3974 52.3735 38.6615 49.3688 36.9442C49.2349 36.8677 48.9693 36.8996 48.8241 36.9834C46.4358 38.3614 44.0536 39.7502 41.683 41.1584C41.5095 41.2615 41.3317 41.5313 41.3305 41.7246C41.3093 45.1687 41.3151 48.6129 41.3151 52.2155Z" fill="#2C3E50"/>
</svg>
