<svg width="62" height="71" viewBox="0 0 62 71" fill="none" xmlns="http://www.w3.org/2000/svg">
<path fill-rule="evenodd" clip-rule="evenodd" d="M9.19873 30.8762L23.8327 39.3253V56.1525L9.19873 47.7034V30.8762ZM11.2522 34.4329V46.5179L21.7793 52.5958V40.5108L11.2522 34.4329Z" fill="#2C3E50"/>
<path fill-rule="evenodd" clip-rule="evenodd" d="M53.2034 30.8762V47.7034L38.5693 56.1525V39.3253L53.2034 30.8762ZM40.6228 40.5108V52.5958L51.1499 46.5179V34.4329L40.6228 40.5108Z" fill="#2C3E50"/>
<path fill-rule="evenodd" clip-rule="evenodd" d="M9.71191 46.2216L22.2925 38.9583L23.3192 40.7366L10.7386 47.9999L9.71191 46.2216Z" fill="#2C3E50"/>
<path fill-rule="evenodd" clip-rule="evenodd" d="M40.1092 38.9583L52.6898 46.2216L51.6631 47.9999L39.0825 40.7366L40.1092 38.9583Z" fill="#2C3E50"/>
<path fill-rule="evenodd" clip-rule="evenodd" d="M2.32443 17.2864L9.07866 21.1877L8.05159 22.9658L1.29736 19.0645L2.32443 17.2864Z" fill="#2C3E50"/>
<path fill-rule="evenodd" clip-rule="evenodd" d="M31.1516 33.9369L59.8139 17.2874L60.8454 19.063L31.1545 36.31L10.105 24.1519L11.132 22.3737L31.1516 33.9369Z" fill="#2C3E50"/>
<path fill-rule="evenodd" clip-rule="evenodd" d="M31.1515 0.0402832L61.5221 17.5826V52.4989L54.2547 56.6965L53.2276 54.9183L59.4687 51.3136V18.7679L31.1548 2.41361L2.93334 18.8212V51.3145L31.154 67.6679L51.1742 56.1044L52.2012 57.8825L31.1523 70.0403L0.879883 52.4979V17.6398L31.1515 0.0402832Z" fill="#2C3E50"/>
<path fill-rule="evenodd" clip-rule="evenodd" d="M31.1566 9.72485L45.6486 18.1749L31.1566 26.6249L16.4722 18.175L31.1566 9.72485ZM20.5893 18.175L31.1498 24.2518L41.5719 18.1749L31.1498 12.0979L20.5893 18.175Z" fill="#2C3E50"/>
<path fill-rule="evenodd" clip-rule="evenodd" d="M30.1265 68.8542V35.1233H32.1799V68.8542H30.1265Z" fill="#2C3E50"/>
<path fill-rule="evenodd" clip-rule="evenodd" d="M30.1265 25.4383V10.9114H32.1799V25.4383H30.1265Z" fill="#2C3E50"/>
</svg>
