<svg width="61" height="71" viewBox="0 0 61 71" fill="none" xmlns="http://www.w3.org/2000/svg">
<path fill-rule="evenodd" clip-rule="evenodd" d="M30.2008 0.499268L43.1991 8.02842V12.8237L47.3059 10.4449L60.3042 17.9741V33.1478L56.2018 35.524L60.3042 37.9003V45.7468H58.2547V39.7974L48.3306 45.5458V57.6409L58.2547 51.8925V47.7962H60.3042V53.0738L47.3059 60.6028L43.1991 58.224V62.9703L30.2008 70.4993L17.2026 62.9703V58.175L13.0959 60.5536L0.0976562 53.0247V37.851L4.19995 35.4747L0.0976562 33.0984V27.3018H2.1471V31.9171L12.0712 37.6656L12.0712 25.5704L2.1471 19.822V25.2524H0.0976562V17.9248L13.0959 10.3958L17.2026 12.7745V8.02828L30.2008 0.499268ZM19.252 13.9617L26.094 17.9249V22.7202L29.1761 20.935V15.6739L19.252 9.92556V13.9617ZM20.6785 8.38336L30.2008 13.8991L39.7232 8.38348L30.2008 2.8677L20.6785 8.38336ZM41.1496 9.92568L31.2256 15.674V20.935L34.3077 22.7203V17.974L41.1496 14.0108V9.92568ZM36.3571 23.9074L43.1991 27.8706V35.9295L46.2812 37.7148V25.6196L36.3571 19.8712V23.9074ZM37.7835 18.329L47.3059 23.8448L56.8283 18.3292L47.3059 12.8134L37.7835 18.329ZM58.2547 19.8714L48.3306 25.6196V37.7148L58.2547 31.9665V19.8714ZM43.1991 38.298V41.3921L47.3059 43.7709L56.8282 38.2553L54.1574 36.7082L47.3059 40.6768L43.1991 38.298ZM46.2812 45.5458L42.5808 43.4024L39.0967 45.4205L43.1991 47.7966V55.8556L46.2812 57.6409V45.5458ZM37.0523 46.6047L30.2008 50.5733L23.3495 46.6047L20.6785 48.1517L30.2008 53.6674L39.7232 48.1517L37.0523 46.6047ZM41.1496 49.6939L31.2256 55.4423L31.2256 67.5373L41.1496 61.789V49.6939ZM29.1761 67.5373L29.1761 55.4423L19.252 49.6939V61.789L29.1761 67.5373ZM21.305 45.4204L17.7786 43.3778L14.1206 45.4966V57.5917L17.2026 55.8065V47.7966L21.305 45.4204ZM12.0712 57.5917V45.4966L2.1471 39.7482V51.8433L12.0712 57.5917ZM3.57348 38.206L13.0959 43.7218L17.2026 41.3429V38.2488L13.0959 40.6276L6.24436 36.6589L3.57348 38.206ZM17.2026 35.8804V27.8704L24.0446 23.9073V19.8222L14.1206 25.5704L14.1206 37.6656L17.2026 35.8804ZM13.0959 23.7956L22.6182 18.28L13.0959 12.7642L3.57353 18.2799L13.0959 23.7956ZM19.252 41.8628L29.1761 47.6113L29.1761 35.5161L19.252 29.7677V41.8628ZM20.6785 28.2255L30.2008 33.7412L39.7231 28.2256L30.2008 22.7099L20.6785 28.2255ZM41.1496 29.7677L31.2256 35.5161L31.2256 47.6113L41.1496 41.8629V29.7677Z" fill="#2C3E50"/>
</svg>
