<svg width="63" height="63" viewBox="0 0 63 63" fill="none" xmlns="http://www.w3.org/2000/svg">
<path d="M25.752 0.0354004C29.3848 0.0354004 33.0176 0.0354004 36.6504 0.0354004C36.9317 0.289255 37.225 0.53117 37.4927 0.798703C45.4765 8.77821 53.4581 16.7599 61.4376 24.7436C61.7052 25.0114 61.9472 25.3048 62.2012 25.5862C62.2012 29.219 62.2012 32.8518 62.2012 36.4846C61.9332 36.7801 61.6771 37.0876 61.3954 37.3694C53.43 45.3391 45.4625 53.3066 37.4929 61.2719C37.2251 61.5395 36.9318 61.7815 36.6504 62.0354C33.0176 62.0354 29.3848 62.0354 25.752 62.0354C25.4713 61.7809 25.1792 61.5378 24.9116 61.2703C16.928 53.2908 8.94644 45.3093 0.966926 37.3257C0.699182 37.0578 0.455874 36.7655 0.201172 36.4846C0.201172 32.8518 0.201172 29.219 0.201172 25.5862C0.455578 25.3054 0.698528 25.0132 0.966061 24.7455C8.94559 16.7619 16.9272 8.78031 24.9108 0.800798C25.1786 0.533102 25.471 0.289976 25.752 0.0354004ZM31.2989 15.0342C25.9164 20.4158 20.5482 25.7831 15.2611 31.0694C20.5555 36.3634 25.9138 41.7211 31.1678 46.9746C36.4885 41.6546 41.8565 36.2872 47.2021 30.9423C41.9196 25.6582 36.5725 20.3094 31.2989 15.0342ZM29.7628 48.5727C29.5872 48.4354 29.4127 48.3259 29.2706 48.1839C22.7036 41.6225 16.1394 35.0583 9.57488 28.4944C8.68754 27.6072 8.68713 27.2267 9.57655 26.3373C17.4535 18.46 25.33 10.5823 33.2128 2.71074C33.3772 2.5465 33.6143 2.45501 33.8176 2.32958C33.7623 2.25232 33.7071 2.17506 33.6518 2.0978C33.4595 2.0978 33.2672 2.0978 33.075 2.0978C31.0972 2.0978 29.1193 2.11064 27.1418 2.08788C26.7026 2.08282 26.3998 2.21212 26.0889 2.52369C18.4488 10.1811 10.7979 17.8278 3.14962 25.4772C3.01018 25.6166 2.87885 25.7642 2.83077 25.8154C11.1353 34.1213 19.4148 42.4021 27.6731 50.6618C28.2968 50.0382 28.9804 49.3548 29.7628 48.5727ZM36.4594 2.5657C28.0723 10.953 19.8014 19.224 11.5761 27.4493C12.2257 28.0994 12.9214 28.7955 13.6982 29.5729C13.8078 29.4291 13.9246 29.2336 14.0807 29.0774C20.6273 22.5243 27.1775 15.9747 33.7272 9.42473C34.639 8.51297 35.006 8.51484 35.9279 9.43677C43.8049 17.3137 51.6818 25.1908 59.5594 33.0671C59.7191 33.2268 59.888 33.3772 60.1388 33.613C60.1388 31.2886 60.1275 29.1116 60.1486 26.9348C60.1527 26.5144 60.0194 26.2288 59.7269 25.9369C52.0711 18.2954 44.4236 10.6457 36.778 2.99397C36.6369 2.85273 36.5365 2.67081 36.4594 2.5657ZM32.6439 13.5261C32.8109 13.652 33.0246 13.7769 33.194 13.9462C39.733 20.4784 46.2682 27.0145 52.8035 33.5505C53.7188 34.4659 53.7189 34.8429 52.8082 35.7536C44.9314 43.6305 37.0545 51.5073 29.1781 59.3846C29.0165 59.5461 28.8614 59.714 28.6131 59.973C30.9392 59.973 33.1138 59.9621 35.2882 59.9825C35.7052 59.9864 35.9965 59.8661 36.2907 59.5712C43.9459 51.9006 51.6101 44.2388 59.2718 36.5746C59.4092 36.4371 59.5351 36.288 59.6053 36.2112C51.3001 27.9064 43.0291 19.6357 34.7823 11.3893C34.1308 12.0403 33.4345 12.736 32.6439 13.5261ZM25.984 59.4082C34.2877 51.1048 42.5684 42.8246 50.778 34.6154C50.1461 33.9847 49.4524 33.2922 48.6961 32.5372C48.5931 32.6645 48.4677 32.8516 48.3114 33.008C41.7638 39.5606 35.2135 46.1107 28.6632 52.6606C27.7765 53.5473 27.3907 53.5468 26.5047 52.6609C18.6274 44.7837 10.7494 36.9071 2.8775 29.0244C2.71291 28.8596 2.61849 28.6247 2.49134 28.4225C2.41542 28.4745 2.33949 28.5265 2.26357 28.5785C2.26357 28.7716 2.26357 28.9647 2.26357 29.1577C2.26357 31.1153 2.27912 33.0732 2.25253 35.0304C2.24598 35.5129 2.38656 35.8461 2.72945 36.1881C10.374 43.8129 18.0062 51.45 25.6414 59.0842C25.7813 59.2241 25.9289 59.3563 25.984 59.4082Z" fill="#2C3E50"/>
</svg>
