<svg width="40" height="31" viewBox="0 0 40 31" fill="none" xmlns="http://www.w3.org/2000/svg">
<path d="M36.7976 19.2855L20.1968 28.468C20.0696 28.543 19.914 28.5881 19.7726 28.5881C19.6312 28.5881 19.4757 28.558 19.3484 28.483L2.77589 19.5105C2.33753 19.2705 2.15371 18.7003 2.35168 18.2202L8.78554 3.50108C8.94108 3.15599 9.26631 2.93093 9.63396 2.93093H30.0951C30.4486 2.93093 30.7879 3.15599 30.9435 3.50108L37.2218 17.9951C37.4198 18.4752 37.2501 19.0454 36.7976 19.2855Z" fill="#1A171B"/>
<path d="M12.0378 0.830342C12.0095 0.695305 11.9106 0.590276 11.7833 0.545263C11.6702 0.500251 11.5288 0.515255 11.4298 0.60528C11.3732 0.650292 10.0865 1.70058 9.05421 3.06596C8.12094 4.31131 7.55533 5.3466 7.52705 5.39161C7.49877 5.43662 7.48463 5.49664 7.48463 5.54165C7.48463 5.58666 6.98972 9.53276 6.40996 12.6986C5.8302 15.8645 4.59999 18.6103 4.58585 18.6403C4.51515 18.7753 4.54343 18.9404 4.62827 19.0604C4.65655 19.1054 5.30701 20.0207 5.95747 20.7709C6.59378 21.5361 8.00782 22.8265 8.07852 22.8865C8.19165 22.9765 8.33305 23.0065 8.46031 22.9615C8.58758 22.9165 8.68656 22.7964 8.71484 22.6464L9.19561 19.6456C9.37944 19.7056 9.59154 19.7806 9.84607 19.8556C10.2137 19.9757 10.5672 20.0657 10.7935 20.1257L11.3025 24.927C11.3167 25.0621 11.4015 25.1971 11.5146 25.2421C11.5429 25.2571 12.0802 25.5272 13.0701 25.9023C14.0882 26.2924 15.2901 26.4275 15.3467 26.4275C15.3608 26.4275 15.375 26.4275 15.3891 26.4275C15.4881 26.4275 15.5871 26.3824 15.6436 26.3224C15.7285 26.2474 15.7709 26.1274 15.7709 26.0073C15.7709 25.9473 15.5588 20.0207 14.5972 13.6439C13.6215 7.26713 12.052 0.890359 12.0378 0.830342ZM10.4682 16.1496L9.67638 16.1046C9.76123 15.5194 9.93091 14.4391 10.0582 13.5389C10.0865 13.3588 10.1147 13.1188 10.1289 12.8637C10.2844 14.169 10.4117 15.4744 10.4682 16.1496Z" fill="#1A171B"/>
<path d="M35.1715 18.6403C35.1573 18.6103 33.9271 15.8795 33.3474 12.6986C32.7676 9.53276 32.2727 5.58666 32.2727 5.54165C32.2585 5.48164 32.2444 5.43662 32.2303 5.39161C32.202 5.3466 31.6364 4.31131 30.7031 3.06596C29.6709 1.68558 28.3841 0.650292 28.3275 0.60528C28.2285 0.530259 28.0871 0.500251 27.974 0.545263C27.8609 0.590276 27.7619 0.695305 27.7195 0.830342C27.7053 0.890359 26.1358 7.26713 25.1742 13.6439C24.2127 20.0207 24.0006 25.9473 24.0006 26.0073C24.0006 26.1274 24.043 26.2324 24.1278 26.3224C24.1985 26.3974 24.2975 26.4275 24.3824 26.4275C24.3965 26.4275 24.4106 26.4275 24.4248 26.4275C24.4813 26.4275 25.6691 26.2774 26.7014 25.9023C27.7053 25.5272 28.2427 25.2571 28.2568 25.2421C28.3699 25.1821 28.4548 25.0621 28.4689 24.927L28.9638 20.1257C29.1901 20.0657 29.5436 19.9757 29.9112 19.8556C30.1658 19.7806 30.392 19.7056 30.5617 19.6456L31.0425 22.6464C31.0708 22.7964 31.1556 22.9165 31.297 22.9615C31.4243 23.0065 31.5798 22.9915 31.6788 22.8865C31.7354 22.8265 33.1494 21.5511 33.7998 20.7709C34.4362 20.0207 35.0866 19.0904 35.129 19.0604C35.2139 18.9404 35.228 18.7753 35.1715 18.6403ZM30.0668 16.1046L29.2749 16.1496C29.3315 15.4744 29.4446 14.169 29.6143 12.8637C29.6426 13.1188 29.6567 13.3438 29.685 13.5389C29.8123 14.4391 29.9819 15.5044 30.0668 16.1046Z" fill="#1A171B"/>
<path d="M19.8009 0.695305C18.104 0.695305 16.9728 2.01567 16.9163 2.06068C16.8455 2.1357 16.8173 2.25574 16.8173 2.36077C16.8173 2.43579 17.3122 9.53276 17.3122 14.5592C17.3122 17.68 17.0718 28.1079 17.0577 28.2129C17.0577 28.318 17.0859 28.423 17.1708 28.498C17.2132 28.543 18.1323 29.5483 19.7443 29.5483C21.3563 29.5483 22.2754 28.528 22.3179 28.483C22.3886 28.408 22.431 28.303 22.4169 28.1979C22.4169 28.1079 22.1906 19.4355 22.1906 14.5592C22.1906 9.69781 22.6572 2.4808 22.6714 2.40578C22.6855 2.30075 22.6431 2.21073 22.5865 2.1357C22.5724 2.09069 21.526 0.695305 19.8009 0.695305Z" fill="#1A171B"/>
<path d="M19.7585 29.1132C18.4293 29.1132 17.6233 28.333 17.5101 28.228C17.5243 27.7178 17.7647 17.635 17.7647 14.5892C17.7647 9.6828 17.298 2.79589 17.2698 2.37577C17.3829 2.24073 18.401 1.17544 19.815 1.17544C21.2432 1.17544 22.1623 2.30075 22.2613 2.43579C22.233 2.8409 21.7805 9.84785 21.7805 14.6042C21.7805 19.3605 21.9926 27.7628 22.0068 28.228C21.9078 28.318 21.1018 29.1132 19.7585 29.1132ZM15.3184 25.9623C15.078 25.9323 14.0599 25.7823 13.1973 25.4522C12.3348 25.1221 11.8116 24.867 11.6985 24.822L11.1611 19.7356L11.1328 19.7206C11.1328 19.7206 10.5389 19.5856 9.94505 19.4055C9.35116 19.2255 8.88452 19.0604 8.88452 19.0604L8.8421 19.0454L8.29063 22.4814C8.02196 22.2263 6.82003 21.131 6.26856 20.4708C5.6888 19.7956 5.09491 18.9554 4.98178 18.8053C5.10905 18.5203 6.26856 15.8495 6.82003 12.7737C7.38564 9.6678 7.86642 5.81173 7.8947 5.60167C7.95126 5.49664 8.51687 4.50636 9.37944 3.35104C10.2703 2.16571 11.3732 1.20545 11.6278 1.01039C11.7974 1.70058 13.2398 7.71726 14.1447 13.7039C15.0639 19.7356 15.2901 25.3622 15.3184 25.9623ZM9.91677 8.57249C9.91677 8.6025 9.81779 12.1585 9.63396 13.4789C9.45014 14.7842 9.19561 16.4647 9.18147 16.4797L9.16733 16.5247L10.9207 16.6297V16.5847C10.9207 16.5547 10.7511 14.4091 10.4965 12.3836C10.242 10.373 10.0016 8.5875 9.98747 8.57249H9.91677ZM24.4248 25.9623C24.4531 25.3622 24.6793 19.7356 25.5843 13.7039C26.4893 7.70225 27.9316 1.70058 28.1013 1.01039C28.3558 1.22045 29.4588 2.16571 30.3496 3.35104C31.2263 4.50636 31.7778 5.51164 31.8343 5.60167C31.8626 5.81173 32.3434 9.6678 32.909 12.7737C33.4746 15.8495 34.62 18.5203 34.7472 18.8053C34.6483 18.9554 34.0402 19.7956 33.4605 20.4708C32.909 21.131 31.7212 22.2263 31.4384 22.4814L30.8869 19.0454L30.8445 19.0604C30.8445 19.0604 30.3779 19.2255 29.784 19.4055C29.1901 19.5856 28.5962 19.7206 28.5962 19.7206L28.5679 19.7356L28.0306 24.822C27.9175 24.882 27.4084 25.1221 26.5317 25.4522C25.6974 25.7973 24.6652 25.9323 24.4248 25.9623ZM29.7557 8.55749C29.7557 8.57249 29.5153 10.358 29.2466 12.3685C28.9921 14.3791 28.8224 16.5397 28.8224 16.5697V16.6147L30.5758 16.5097L30.5617 16.4647C30.5617 16.4497 30.293 14.7692 30.1092 13.4639C29.9254 12.1585 29.8264 8.6025 29.8264 8.55749H29.7557Z" fill="url(#paint0_linear_256_5047)"/>
<path d="M28.1437 1.08541C28.4689 1.35549 29.5012 2.27074 30.3355 3.38105C31.1839 4.50636 31.7354 5.49664 31.8061 5.61667C31.8485 5.91676 32.3293 9.71281 32.8807 12.7887C33.4322 15.7895 34.5351 18.4152 34.719 18.8053C34.5776 19.0004 33.9978 19.7956 33.4463 20.4408C32.9231 21.056 31.8343 22.0762 31.495 22.3913L30.9576 19.0904L30.9435 18.9854L30.8445 19.0154C30.8445 19.0154 30.3779 19.1804 29.784 19.3605C29.1901 19.5405 28.5962 19.6756 28.5962 19.6756L28.5396 19.6906L28.5255 19.7506L28.0023 24.777C27.8609 24.852 27.3518 25.0921 26.5317 25.3922C25.7257 25.7073 24.7783 25.8423 24.4672 25.8873C24.4955 25.0621 24.75 19.5705 25.6267 13.6889C26.5176 7.8823 27.9033 2.04568 28.1437 1.08541ZM28.7659 16.6747H28.8649L30.5193 16.5697H30.6183L30.6041 16.4647C30.6041 16.4497 30.3355 14.7692 30.1516 13.4639C29.9678 12.1585 29.8688 8.6025 29.8688 8.57249L29.6991 8.55749C29.6991 8.57249 29.4588 10.358 29.1901 12.3836C28.9356 14.3941 28.7659 16.5547 28.7659 16.5847V16.6747ZM11.6136 1.08541C11.8399 2.03068 13.2398 7.8823 14.1165 13.7039C14.9932 19.5856 15.2477 25.0771 15.276 25.9023C14.979 25.8573 14.0175 25.7223 13.2115 25.4072C12.3913 25.0921 11.8823 24.852 11.7409 24.792L11.2177 19.7656L11.2035 19.7056L11.147 19.6906C11.147 19.6906 10.5672 19.5555 9.95919 19.3755C9.3653 19.1954 8.89866 19.0304 8.89866 19.0304L8.79968 19.0004L8.78554 19.1054L8.24821 22.4063C7.8947 22.0762 6.80589 21.071 6.29684 20.4558C5.74536 19.8106 5.16561 19.0154 5.0242 18.8203C5.19389 18.4302 6.31098 15.8195 6.86245 12.8037C7.42807 9.72781 7.90884 5.93176 7.93712 5.63168C8.00782 5.49664 8.55929 4.52137 9.40772 3.39605C10.2561 2.27074 11.2884 1.37049 11.6136 1.08541ZM10.9773 16.6747L10.9632 16.5697C10.9632 16.5397 10.7935 14.3791 10.5389 12.3685C10.2844 10.358 10.044 8.57249 10.0299 8.54248L9.86021 8.55749C9.86021 8.5875 9.76123 12.1435 9.5774 13.4488C9.39358 14.7542 9.13905 16.4347 9.12491 16.4497L9.11077 16.5547H9.20975L10.8642 16.6597L10.9773 16.6747ZM19.8009 1.19044C21.1725 1.19044 22.0633 2.24073 22.2047 2.42078C22.1765 2.97594 21.724 9.87786 21.724 14.5742C21.724 19.2855 21.9361 27.5378 21.9502 28.1829C21.8088 28.333 21.017 29.0682 19.7443 29.0682C18.4717 29.0682 17.6798 28.348 17.5384 28.2129C17.5526 27.5078 17.7788 17.605 17.7788 14.5892C17.7788 9.74282 17.3263 2.97594 17.2839 2.39078C17.4677 2.19572 18.4434 1.19044 19.8009 1.19044ZM28.0871 0.935372C28.0871 0.935372 26.5176 7.28213 25.556 13.7039C24.5945 20.1257 24.3824 26.0223 24.3824 26.0223C24.3824 26.0223 25.5702 25.8873 26.56 25.5122C27.5498 25.1371 28.0871 24.867 28.0871 24.867L28.6245 19.7806C28.6245 19.7806 29.2042 19.6456 29.8123 19.4655C30.4203 19.2855 30.8728 19.1204 30.8728 19.1204L31.4243 22.5864C31.4243 22.5864 32.8666 21.266 33.5029 20.5158C34.1392 19.7656 34.8038 18.8353 34.8038 18.8353C34.8038 18.8353 33.5453 16.0596 32.9514 12.7887C32.3717 9.57777 31.8768 5.61667 31.8768 5.61667C31.8768 5.61667 31.3111 4.58138 30.3779 3.35104C29.3881 1.97066 28.0871 0.935372 28.0871 0.935372ZM28.8649 16.5847C28.8649 16.5847 29.0345 14.4241 29.2891 12.3836C29.5436 10.343 29.7981 8.57249 29.7981 8.57249C29.7981 8.57249 29.8971 12.1585 30.0809 13.4789C30.2648 14.7992 30.5334 16.4797 30.5334 16.4797L28.8649 16.5847ZM11.656 0.935372C11.656 0.935372 10.3693 1.98566 9.35116 3.32103C8.43203 4.55138 7.85228 5.58666 7.85228 5.58666C7.85228 5.58666 7.3715 9.56277 6.77761 12.7737C6.18371 16.0446 4.92522 18.8203 4.92522 18.8203C4.92522 18.8203 5.58982 19.7506 6.22613 20.5008C6.86245 21.251 8.30477 22.5714 8.30477 22.5714L8.85624 19.1054C8.85624 19.1054 9.30873 19.2705 9.91677 19.4505C10.5248 19.6306 11.1046 19.7656 11.1046 19.7656L11.6419 24.852C11.6419 24.852 12.1792 25.1221 13.1691 25.4972C14.1589 25.8723 15.3467 26.0073 15.3467 26.0073C15.3467 26.0073 15.1487 20.1257 14.173 13.6889C13.1973 7.25213 11.656 0.935372 11.656 0.935372ZM10.8925 16.5847L9.23803 16.4797C9.23803 16.4797 9.49256 14.7992 9.69052 13.4789C9.87435 12.1585 9.97333 8.57249 9.97333 8.57249C9.97333 8.57249 10.2137 10.358 10.4824 12.3836C10.7228 14.4241 10.8925 16.5847 10.8925 16.5847ZM19.8009 1.10042C18.2454 1.10042 17.2132 2.33076 17.2132 2.33076C17.2132 2.33076 17.7081 9.47274 17.7081 14.5592C17.7081 17.725 17.4536 28.228 17.4536 28.228C17.4536 28.228 18.2737 29.1432 19.7443 29.1432C21.2149 29.1432 22.0351 28.1979 22.0351 28.1979C22.0351 28.1979 21.8088 19.4805 21.8088 14.5592C21.8088 9.63779 22.2896 2.37577 22.2896 2.37577C22.2896 2.37577 21.3563 1.10042 19.8009 1.10042Z" fill="#EFE285"/>
<path d="M3.24252 18.6253L9.6481 3.96621H30.0668L36.331 18.4002L19.7726 27.5528L3.24252 18.6253Z" fill="#B78612"/>
<path d="M30.0385 3.99622L36.2744 18.3702L19.7585 27.5078L3.29908 18.5953L9.67638 3.99622H30.0385ZM30.0951 3.9212H9.63396L3.2001 18.6403L19.7726 27.5978L36.3875 18.4152L30.0951 3.9212Z" fill="#EFE285"/>
<path d="M4.1475 18.3552L19.7585 26.7876L35.426 18.1301L29.586 4.6564H10.143L4.1475 18.3552Z" fill="url(#paint1_linear_256_5047)"/>
<path d="M14.9507 13.5689C13.9892 7.1621 12.4055 0.78533 12.3913 0.710309C12.3206 0.42523 12.1227 0.185163 11.854 0.0951381C11.5853 -0.00989112 11.2884 0.0501255 11.0621 0.230176C11.0056 0.275188 9.67638 1.35549 8.60172 2.78088C7.64017 4.04123 7.06042 5.12153 7.04628 5.15154C6.98972 5.25657 6.96143 5.3616 6.93315 5.48163C6.93315 5.52665 6.43824 9.47274 5.85849 12.6086C5.29287 15.6995 4.09094 18.4002 4.0768 18.4302C3.9354 18.7303 3.97782 19.0904 4.16164 19.3605C4.17578 19.3755 4.84038 20.3208 5.50498 21.101C6.16957 21.8812 7.59775 23.2016 7.66845 23.2616C7.8947 23.4716 8.21993 23.5316 8.50273 23.4266C8.78554 23.3216 8.99765 23.0515 9.05421 22.7364L9.45014 20.2757C9.5067 20.2907 9.56326 20.3058 9.60568 20.3208C9.83193 20.3958 10.0582 20.4558 10.2561 20.5008L10.7228 24.957C10.7511 25.2721 10.9349 25.5272 11.2035 25.6622C11.2318 25.6772 11.7833 25.9623 12.8014 26.3374C13.8761 26.7425 15.1204 26.8926 15.177 26.8926C15.2053 26.8926 15.2335 26.8926 15.2618 26.8926C15.4739 26.8926 15.686 26.8026 15.8416 26.6525C16.0254 26.4725 16.1244 26.2324 16.1103 25.9623C16.1244 25.9173 15.9123 19.9907 14.9507 13.5689Z" fill="#1A171B"/>
<path d="M35.4967 18.4302C35.4826 18.3852 34.2806 15.6995 33.715 12.6086C33.1494 9.50275 32.6686 5.64668 32.6403 5.48163C32.6262 5.3616 32.5838 5.25657 32.5272 5.15154C32.4989 5.10653 31.9192 4.04123 30.9718 2.78088C29.8971 1.35549 28.5679 0.275188 28.5113 0.230176C28.2851 0.0501256 27.9882 0.00511307 27.7195 0.0951381C27.4508 0.200167 27.2529 0.42523 27.1822 0.710309C27.1115 0.980384 25.5843 7.22212 24.6227 13.5689C23.6612 19.9607 23.4491 25.9323 23.4491 25.9923C23.435 26.2474 23.5339 26.5025 23.7178 26.6825C23.8733 26.8326 24.0854 26.9226 24.2975 26.9226C24.3258 26.9226 24.3541 26.9226 24.3824 26.9226C24.4389 26.9226 25.6833 26.7725 26.7579 26.3674C27.7761 25.9773 28.3275 25.7073 28.3558 25.6922C28.6245 25.5572 28.7942 25.2871 28.8366 24.9871L29.3032 20.5308C29.5012 20.4708 29.7274 20.4108 29.9537 20.3508C30.0102 20.3358 30.0526 20.3208 30.1092 20.3058L30.5051 22.7664C30.5617 23.0815 30.7597 23.3516 31.0566 23.4566C31.3394 23.5617 31.6647 23.5016 31.8909 23.2916C31.9475 23.2316 33.3898 21.9262 34.0544 21.131C34.7048 20.3508 35.3694 19.4205 35.3977 19.3905C35.5957 19.0904 35.6381 18.7303 35.4967 18.4302Z" fill="#1A171B"/>
<path d="M19.716 0.200167C17.8071 0.200167 16.5486 1.67058 16.492 1.73059C16.3365 1.91064 16.2658 2.15071 16.2799 2.39078C16.2799 2.4658 16.7748 9.54776 16.7748 14.5592C16.7748 17.68 16.5345 28.0929 16.5203 28.1979C16.5203 28.438 16.591 28.6631 16.7466 28.8431C16.8597 28.9632 17.8637 30.0435 19.6453 30.0435C21.4553 30.0435 22.5158 28.8731 22.5583 28.8281C22.7138 28.6631 22.7986 28.423 22.7845 28.1829C22.7845 28.0929 22.5583 19.4205 22.5583 14.5592C22.5583 9.69781 23.0249 2.51081 23.039 2.43579C23.0532 2.21073 22.9966 2.00067 22.8693 1.82062C22.8411 1.7756 21.6674 0.200167 19.716 0.200167Z" fill="#1A171B"/>
<path d="M19.6736 29.1132C18.3444 29.1132 17.5384 28.333 17.4253 28.228C17.4394 27.7178 17.6798 17.65 17.6798 14.5892C17.6798 9.6828 17.2132 2.79589 17.1849 2.37577C17.298 2.24073 18.3161 1.17544 19.7302 1.17544C21.1584 1.17544 22.0775 2.30075 22.1765 2.43579C22.1482 2.8409 21.6957 9.84785 21.6957 14.6042C21.6957 19.3605 21.9078 27.7628 21.9219 28.228C21.823 28.318 21.017 29.1132 19.6736 29.1132ZM15.2335 25.9623C14.9932 25.9323 13.9751 25.7823 13.1125 25.4522C12.2499 25.1221 11.7267 24.867 11.6136 24.822L11.0763 19.7356L11.048 19.7206C11.048 19.7206 10.4541 19.5856 9.86021 19.4055C9.26631 19.2255 8.79968 19.0604 8.79968 19.0604L8.75726 19.0454L8.20579 22.4964C7.93712 22.2413 6.73519 21.146 6.18371 20.4858C5.60396 19.8106 4.99592 18.9704 4.89694 18.8203C5.0242 18.5353 6.18371 15.8645 6.73519 12.7887C7.3008 9.6828 7.78158 5.82673 7.80986 5.61667C7.86642 5.52665 8.43203 4.52137 9.29459 3.36605C10.1854 2.18072 11.3025 1.22045 11.5429 1.01039C11.7126 1.70058 13.1549 7.70225 14.0599 13.7039C14.979 19.7356 15.2053 25.3622 15.2335 25.9623ZM9.83193 8.57249C9.83193 8.6025 9.73295 12.1585 9.54912 13.4789C9.3653 14.7842 9.11077 16.4647 9.09663 16.4797L9.08249 16.5247L10.8359 16.6297V16.5847C10.8359 16.5547 10.6662 14.4091 10.4117 12.3836C10.1572 10.373 9.91677 8.5875 9.90263 8.57249H9.83193ZM24.3399 25.9623C24.3682 25.3622 24.5945 19.7356 25.4995 13.7039C26.4044 7.70225 27.8468 1.70058 28.0164 1.01039C28.271 1.22045 29.3739 2.16571 30.2648 3.35104C31.1415 4.50636 31.6929 5.51164 31.7495 5.60167C31.7778 5.81173 32.2585 9.6678 32.8242 12.7737C33.3898 15.8495 34.5351 18.5203 34.6624 18.8053C34.5634 18.9554 33.9554 19.7956 33.3756 20.4708C32.8242 21.131 31.6222 22.2263 31.3536 22.4814L30.8021 19.0454L30.7597 19.0604C30.7597 19.0604 30.293 19.2255 29.6991 19.4055C29.1052 19.5856 28.5113 19.7206 28.5113 19.7206L28.4831 19.7356L27.9457 24.822C27.8326 24.882 27.3236 25.1221 26.4469 25.4522C25.5984 25.7973 24.5803 25.9323 24.3399 25.9623ZM29.6709 8.55749C29.6709 8.57249 29.4305 10.358 29.1618 12.3685C28.9073 14.3791 28.7376 16.5397 28.7376 16.5697V16.6147L30.491 16.5097L30.4769 16.4647C30.4769 16.4497 30.2082 14.7692 30.0244 13.4639C29.8405 12.1585 29.7416 8.6025 29.7416 8.55749H29.6709Z" fill="url(#paint2_linear_256_5047)"/>
<path d="M11.5288 1.08541C11.755 2.03068 13.1549 7.8823 14.0316 13.7189C14.9083 19.6006 15.1628 25.0921 15.1911 25.9173C14.8942 25.8723 13.9326 25.7373 13.1266 25.4222C12.3065 25.1071 11.7974 24.867 11.656 24.807L11.1328 19.7656L11.1187 19.7056L11.0621 19.6906C11.0621 19.6906 10.4824 19.5555 9.87435 19.3755C9.28045 19.1954 8.81382 19.0304 8.81382 19.0304L8.71484 19.0004L8.7007 19.1054L8.16337 22.4213C7.80986 22.0912 6.72105 21.086 6.21199 20.4708C5.66052 19.8256 5.08077 19.0304 4.93936 18.8353C5.10905 18.4452 6.22614 15.8345 6.77761 12.8187C7.34322 9.74282 7.824 5.94676 7.85228 5.64668C7.92298 5.51164 8.47445 4.53637 9.32288 3.41106C10.1713 2.27074 11.2035 1.37049 11.5288 1.08541ZM10.8925 16.6747L10.8783 16.5697C10.8783 16.5397 10.7086 14.3791 10.4541 12.3685C10.1996 10.358 9.95919 8.57249 9.94505 8.54248L9.77537 8.55749C9.77537 8.5875 9.67638 12.1435 9.49256 13.4488C9.30873 14.7542 9.05421 16.4347 9.04007 16.4497L9.02593 16.5547H9.12491L10.7793 16.6597L10.8925 16.6747ZM28.0447 1.08541C28.3699 1.35549 29.4022 2.27074 30.2365 3.38105C31.0849 4.50636 31.6364 5.49664 31.7071 5.61667C31.7495 5.91676 32.2303 9.71281 32.7817 12.7887C33.3332 15.7895 34.4362 18.4152 34.62 18.8053C34.4786 19.0004 33.8988 19.7956 33.3474 20.4408C32.8242 21.056 31.7354 22.0762 31.396 22.3913L30.8587 19.0754L30.8445 18.9704L30.7455 19.0004C30.7455 19.0004 30.2789 19.1654 29.685 19.3455C29.0911 19.5255 28.4972 19.6606 28.4972 19.6606L28.4406 19.6756L28.4265 19.7356L27.9033 24.762C27.7619 24.837 27.2529 25.0771 26.4327 25.3772C25.6267 25.6922 24.6793 25.8273 24.3682 25.8723C24.3965 25.0471 24.651 19.5555 25.5277 13.6739C26.4186 7.8823 27.8185 2.04568 28.0447 1.08541ZM28.681 16.6747H28.78L30.4344 16.5697H30.5334L30.5193 16.4647C30.5193 16.4497 30.2506 14.7692 30.0668 13.4639C29.883 12.1585 29.784 8.6025 29.784 8.57249L29.6143 8.55749C29.6143 8.57249 29.3739 10.358 29.1052 12.3836C28.8507 14.3941 28.681 16.5547 28.681 16.5847V16.6747ZM19.716 1.19044C21.0877 1.19044 21.9785 2.24073 22.1199 2.42078C22.0916 2.97594 21.6391 9.87786 21.6391 14.5742C21.6391 19.2855 21.8512 27.5378 21.8654 28.1829C21.724 28.333 20.9321 29.0682 19.6595 29.0682C18.3869 29.0682 17.595 28.348 17.4536 28.2129C17.4677 27.5078 17.694 17.605 17.694 14.5892C17.694 9.74282 17.2415 2.97594 17.1991 2.39078C17.3829 2.19572 18.3586 1.19044 19.716 1.19044ZM28.0023 0.935372C28.0023 0.935372 26.4327 7.28213 25.4712 13.7039C24.5096 20.1257 24.2975 26.0223 24.2975 26.0223C24.2975 26.0223 25.4853 25.8873 26.4751 25.5122C27.465 25.1371 28.0023 24.867 28.0023 24.867L28.5396 19.7806C28.5396 19.7806 29.1194 19.6456 29.7274 19.4655C30.3355 19.2855 30.7879 19.1204 30.7879 19.1204L31.3394 22.5864C31.3394 22.5864 32.7817 21.266 33.4181 20.5158C34.0544 19.7656 34.719 18.8353 34.719 18.8353C34.719 18.8353 33.4605 16.0596 32.8666 12.7887C32.2868 9.57777 31.7919 5.61667 31.7919 5.61667C31.7919 5.61667 31.2263 4.58138 30.293 3.35104C29.2891 1.97066 28.0023 0.935372 28.0023 0.935372ZM28.78 16.5847C28.78 16.5847 28.9497 14.4241 29.2042 12.3836C29.4588 10.343 29.7133 8.57249 29.7133 8.57249C29.7133 8.57249 29.8123 12.1585 29.9961 13.4789C30.1799 14.7992 30.4486 16.4797 30.4486 16.4797L28.78 16.5847ZM11.5712 0.935372C11.5712 0.935372 10.2844 1.98566 9.26631 3.32103C8.34719 4.55138 7.76744 5.58666 7.76744 5.58666C7.76744 5.58666 7.27252 9.56277 6.69277 12.7737C6.09887 16.0446 4.84038 18.8203 4.84038 18.8203C4.84038 18.8203 5.50498 19.7506 6.14129 20.5008C6.77761 21.251 8.21993 22.5714 8.21993 22.5714L8.7714 19.1054C8.7714 19.1054 9.22389 19.2705 9.83193 19.4505C10.44 19.6306 11.0197 19.7656 11.0197 19.7656L11.5571 24.852C11.5571 24.852 12.0944 25.1221 13.0842 25.4972C14.074 25.8723 15.2618 26.0073 15.2618 26.0073C15.2618 26.0073 15.0639 20.1257 14.0882 13.6889C13.1408 7.28213 11.5712 0.935372 11.5712 0.935372ZM10.7935 16.5847L9.13905 16.4797C9.13905 16.4797 9.39358 14.7992 9.59154 13.4789C9.77537 12.1585 9.87435 8.57249 9.87435 8.57249C9.87435 8.57249 10.1147 10.358 10.3834 12.3836C10.6379 14.4241 10.7935 16.5847 10.7935 16.5847ZM19.716 1.10042C18.1606 1.10042 17.1284 2.33076 17.1284 2.33076C17.1284 2.33076 17.6233 9.47274 17.6233 14.5592C17.6233 17.725 17.3687 28.228 17.3687 28.228C17.3687 28.228 18.1889 29.1432 19.6595 29.1432C21.1301 29.1432 21.9502 28.1979 21.9502 28.1979C21.9502 28.1979 21.724 19.4805 21.724 14.5592C21.724 9.63779 22.2047 2.37577 22.2047 2.37577C22.2047 2.37577 21.2715 1.10042 19.716 1.10042Z" fill="#EFE285"/>
<path d="M39.5126 11.1382C39.3994 10.7631 39.159 10.433 38.7914 10.1779C38.5086 9.98288 38.1551 9.84785 37.7591 9.78783C37.3915 9.72781 37.038 9.75782 36.7269 9.84785C36.5996 9.74282 36.4441 9.6828 36.2744 9.65279L34.5917 9.42773C34.3937 9.39772 34.1958 9.44273 34.012 9.54776C33.913 9.48775 33.814 9.44273 33.715 9.39772C33.5453 9.33771 33.2767 9.26268 32.5555 9.17266L31.8343 9.08263C31.7495 9.06763 31.6646 9.06763 31.5798 9.08263C31.495 9.05263 31.4101 9.02262 31.3253 9.02262L30.3072 8.91759C30.2648 8.91759 30.2082 8.91759 30.1658 8.91759C30.1234 8.90259 30.0668 8.88758 30.0244 8.88758L29.0063 8.78255C28.9497 8.78255 28.8931 8.78255 28.8366 8.78255C28.78 8.76755 28.7235 8.75254 28.6669 8.75254L26.4469 8.57249C26.3903 8.57249 26.3337 8.57249 26.263 8.57249C26.1923 8.55749 26.1358 8.54248 26.0792 8.54248L25.2308 8.49747C25.1318 8.49747 25.0328 8.49747 24.948 8.52748C24.8631 8.49747 24.7642 8.46746 24.6652 8.46746L23.8167 8.42245C23.7319 8.42245 23.6471 8.42245 23.5622 8.45246C23.4774 8.42245 23.3925 8.40745 23.3077 8.40745L21.6109 8.34743C21.5543 8.34743 21.5119 8.34743 21.4553 8.36243C21.3987 8.34743 21.3422 8.34743 21.2856 8.34743H20.211C20.1261 8.34743 20.0413 8.36243 19.9564 8.37744C19.8716 8.34743 19.7867 8.34743 19.7019 8.34743H18.6272C18.4434 8.34743 18.2596 8.40745 18.0899 8.51248C18.0475 8.49747 17.9909 8.48247 17.9485 8.46746C17.7647 8.42245 17.4677 8.37744 16.7041 8.39244L15.9406 8.42245C15.785 8.42245 15.6295 8.46746 15.4881 8.55749C15.3467 8.48247 15.1911 8.45246 15.0497 8.46746L13.5791 8.51248C13.1973 8.54248 12.858 8.79756 12.7307 9.17266C12.6741 9.06763 12.6034 8.9626 12.5045 8.88758C12.3065 8.70753 12.0661 8.61751 11.7974 8.64751L10.949 8.72254C10.85 8.73754 10.7511 8.75254 10.6662 8.79756C10.5672 8.76755 10.4824 8.76755 10.3834 8.76755L9.53498 8.84257C9.45014 8.85757 9.3653 8.87258 9.28045 8.90258C9.19561 8.88758 9.11077 8.88758 9.02593 8.88758L8.00782 8.99261C7.75329 9.02262 7.51291 9.14265 7.35736 9.35271C7.2301 9.51776 7.1594 9.69781 7.14526 9.89286C7.0887 9.69781 6.97557 9.53276 6.83417 9.39772C6.63621 9.23268 6.38168 9.14265 6.12715 9.17266L5.10905 9.29269C4.93936 9.3077 4.78382 9.38272 4.64241 9.48775C4.48687 9.41273 4.31719 9.39772 4.1475 9.41273L3.1294 9.53276C2.97385 9.54776 2.84659 9.60778 2.71932 9.69781C2.57792 9.65279 2.43652 9.62278 2.28097 9.65279L0.838656 9.83284C0.357884 9.90786 0.00437473 10.328 0.00437473 10.8381L-0.00976562 15.0243C-0.00976562 15.3244 0.103357 15.5944 0.315463 15.7895C0.527568 15.9846 0.796235 16.0746 1.07904 16.0296L2.12543 15.8795C2.21027 15.8645 2.28097 15.8495 2.36582 15.8195C2.45066 15.8345 2.5355 15.8345 2.6062 15.8195L3.63845 15.6845C3.66673 15.6845 3.69501 15.6695 3.72329 15.6695C3.76571 15.6695 3.79399 15.6695 3.83641 15.6545L5.46256 15.4444C5.50498 15.4444 5.5474 15.4294 5.58982 15.4144C5.63224 15.4144 5.6888 15.4144 5.73122 15.4144L7.35736 15.2343C7.56947 15.2043 7.76743 15.1143 7.92298 14.9493C8.1068 15.0693 8.31891 15.1293 8.54515 15.1143L9.56326 15.0093C9.63396 14.9943 9.71881 14.9793 9.78951 14.9643C9.86021 14.9793 9.93091 14.9793 10.0016 14.9793L10.85 14.9043C10.9349 14.8892 11.0339 14.8742 11.1046 14.8442C11.1894 14.8592 11.2742 14.8742 11.3732 14.8592L12.2641 14.7842C12.462 14.7692 12.66 14.6792 12.8014 14.5592C12.9569 14.6642 13.1266 14.7092 13.3105 14.7092C13.3246 14.7092 13.3387 14.7092 13.367 14.7092L14.4134 14.6492C14.4982 14.6492 14.5831 14.6342 14.6538 14.6042C14.7386 14.6192 14.8093 14.6342 14.8942 14.6192L15.9406 14.5592C15.9688 14.5592 15.9971 14.5592 16.0254 14.5442C16.0537 14.5442 16.0678 14.5442 16.0961 14.5442L17.4112 14.5141C17.7364 14.4991 17.9768 14.4841 18.1606 14.4241C18.3161 14.3791 18.4576 14.3191 18.599 14.2441C18.7686 14.3941 18.9807 14.4691 19.207 14.4841L20.7624 14.4991C20.8756 14.4991 21.0028 14.4691 21.1018 14.4241C21.2149 14.4691 21.328 14.4991 21.4412 14.4991L23.2087 14.5592C23.2653 14.5592 23.3077 14.5592 23.3643 14.5442C23.4067 14.5592 23.4632 14.5592 23.5057 14.5592L24.3541 14.6042C24.4389 14.6042 24.5379 14.6042 24.6227 14.5742C24.7076 14.6042 24.7924 14.6192 24.8773 14.6342L25.7681 14.6942C25.9095 14.7092 26.0509 14.6792 26.1923 14.6192C26.3196 14.6942 26.461 14.7542 26.6165 14.7692L27.6346 14.8592C27.9033 14.8892 28.1578 14.7842 28.3558 14.6042C28.4548 14.6942 28.5679 14.7692 28.681 14.8292C28.9638 14.9943 29.2891 15.0993 29.6567 15.1443C29.9961 15.1743 30.3072 15.1443 30.59 15.0543C30.6324 15.0393 30.6748 15.0243 30.7172 15.0093C30.8587 15.1293 31.0142 15.1893 31.198 15.2193L32.202 15.3394C32.2585 15.3394 32.301 15.3544 32.3575 15.3394C32.4141 15.3544 32.4565 15.3694 32.5131 15.3694L33.4463 15.4894C33.517 15.5044 33.5736 15.5044 33.6584 15.4894C33.7291 15.5194 33.7998 15.5344 33.8705 15.5494L35.624 15.7895C35.7795 15.8195 35.935 15.7895 36.0764 15.7295C36.3451 15.9095 36.6703 16.0296 37.0238 16.0896C37.1511 16.1196 37.2925 16.1196 37.4198 16.1196C37.6602 16.1196 37.9006 16.0896 38.1127 16.0146C38.5227 15.8795 38.8338 15.6545 39.0459 15.3244C39.2156 15.0543 39.3287 14.7242 39.3853 14.2591C39.456 13.7489 39.4277 13.3138 39.3146 12.9687C39.4419 12.8187 39.5126 12.6386 39.5408 12.4436L39.5691 12.2785C39.6115 11.7984 39.5974 11.4383 39.5126 11.1382Z" fill="#1A171B"/>
<path d="M3.39806 10.6431L4.16164 10.553L4.52929 13.854L5.13733 13.7789L5.20803 14.3341L3.82227 14.4991L3.39806 10.6431Z" fill="#E4C96E"/>
<path d="M5.34943 10.403L6.11301 10.313L6.43824 13.6139L7.06042 13.5539L7.11698 14.109L5.73122 14.2591L5.34943 10.403Z" fill="#E4C96E"/>
<path d="M8.23407 10.1029L8.99765 10.0279L9.33702 13.884L8.57344 13.959L8.23407 10.1029Z" fill="#E4C96E"/>
<path d="M16.0961 9.53276L16.7324 9.51776C16.8597 9.51776 16.9728 9.51776 17.0718 9.51776C17.4536 9.51776 17.6233 9.54776 17.7081 9.56277C17.8495 9.59278 17.9626 9.65279 18.0475 9.74282C18.1323 9.83284 18.1747 9.93787 18.203 10.0429C18.2313 10.1629 18.2454 10.403 18.2596 10.8081L18.302 12.2635C18.3161 12.6236 18.302 12.8637 18.2737 12.9837C18.2454 13.0887 18.203 13.1638 18.1465 13.2238C18.0899 13.2838 18.0051 13.3288 17.8919 13.3588C17.793 13.3888 17.6233 13.4038 17.3687 13.4188L16.2092 13.4488L16.0961 9.53276ZM16.8738 10.0579L16.9445 12.9387H17.0435C17.1849 12.9387 17.3687 12.9087 17.4394 12.7737C17.4677 12.7136 17.5101 12.5936 17.496 12.1885L17.4536 10.5831C17.4536 10.313 17.4394 10.238 17.4253 10.1929C17.4112 10.1029 17.3546 10.0429 17.2839 9.99789C17.2273 9.96788 17.1425 9.95288 17.0294 9.95288H16.888L16.8738 10.0579Z" fill="#E4C96E"/>
<path d="M21.5826 13.3588L21.6957 9.48775L23.138 9.53276L23.1239 10.0879L22.4451 10.0729L22.4169 11.1232L23.0532 11.1382L23.039 11.6634L22.4027 11.6483L22.3603 12.8337L23.1097 12.8487L23.0956 13.4188L21.5826 13.3588Z" fill="#E4C96E"/>
<path d="M26.8004 13.6439L27.0408 10.328L26.4469 10.283L26.4893 9.72781L28.4548 9.89286L28.4124 10.448L27.8043 10.403L27.5639 13.7039L26.8004 13.6439Z" fill="#E4C96E"/>
<path d="M29.8971 14.019C29.8405 14.019 29.784 14.019 29.7274 14.004C29.5153 13.989 29.3315 13.929 29.1759 13.839C29.0345 13.7489 28.9214 13.6439 28.8507 13.5239C28.7942 13.4038 28.7517 13.2838 28.7517 13.1488C28.7517 13.0137 28.7659 12.7136 28.8083 12.2485L29.0204 9.93787L29.784 10.0129L29.5153 12.9837C29.5012 13.1788 29.5012 13.2988 29.5153 13.3738C29.5436 13.4789 29.6284 13.5539 29.7274 13.5689H29.7698C29.8688 13.5689 29.9537 13.5089 29.9961 13.4038C30.0102 13.3738 30.0385 13.2688 30.0668 12.9837L30.3355 10.0729L31.099 10.1479L30.8587 12.7737C30.8304 13.0887 30.8021 13.2988 30.7738 13.4038C30.7455 13.5089 30.689 13.6139 30.59 13.7189C30.491 13.824 30.3779 13.899 30.2365 13.944C30.1375 14.004 30.0244 14.019 29.8971 14.019Z" fill="#E4C96E"/>
<path d="M34.1109 14.4391L34.5776 10.5831L36.0057 10.7781L35.9492 11.3483L35.2704 11.2432L35.1432 12.2935L35.7654 12.3836L35.7088 12.8937L35.0725 12.8187L34.9311 13.974L35.6664 14.079L35.6098 14.6492L34.1109 14.4391Z" fill="#E4C96E"/>
<path d="M37.3915 14.9793C37.3067 14.9793 37.2218 14.9793 37.1511 14.9643C36.8966 14.9193 36.6986 14.8442 36.5431 14.7242C36.3875 14.6042 36.3027 14.4841 36.2744 14.3341C36.2461 14.169 36.2461 13.929 36.2886 13.6589L36.3027 13.5239L36.9956 13.6289L36.9531 13.989C36.9249 14.169 36.9249 14.2891 36.9673 14.3641C36.9956 14.4541 37.0804 14.5141 37.1935 14.5291C37.2218 14.5291 37.236 14.5291 37.236 14.5291C37.3349 14.5291 37.4056 14.4841 37.4622 14.4091C37.5188 14.3341 37.5612 14.2291 37.5753 14.094C37.6177 13.824 37.6036 13.6289 37.5188 13.5239C37.4622 13.4338 37.3208 13.2838 37.0804 13.0587C36.8117 12.8037 36.6986 12.6686 36.6421 12.6086C36.5855 12.5336 36.5431 12.4286 36.5148 12.2935C36.4865 12.1735 36.4865 12.0084 36.5148 11.7984C36.5714 11.4383 36.6421 11.2732 36.6986 11.1832C36.7835 11.0782 36.8966 10.9882 37.0521 10.9432C37.1511 10.9131 37.2642 10.8981 37.3774 10.8981C37.4481 10.8981 37.5188 10.8981 37.6319 10.9131C37.8723 10.9582 38.0844 11.0182 38.2258 11.1232C38.3672 11.2132 38.452 11.3333 38.4944 11.4383C38.5227 11.5283 38.5369 11.7084 38.4803 12.0835V12.1135L37.8016 12.0084L37.8298 11.8434C37.8581 11.6634 37.8581 11.5583 37.8157 11.4983C37.7733 11.4083 37.7026 11.3633 37.6036 11.3483C37.5895 11.3483 37.5753 11.3483 37.5612 11.3483C37.4763 11.3483 37.4056 11.3783 37.3491 11.4533C37.2925 11.5133 37.2642 11.6183 37.236 11.7534C37.2077 11.9334 37.2218 12.0535 37.2501 12.1435C37.2784 12.2335 37.3632 12.3385 37.5329 12.4886C38.0278 12.9087 38.1975 13.1488 38.2541 13.2688C38.3389 13.4338 38.353 13.7189 38.2965 14.094C38.2541 14.4391 38.1834 14.5892 38.1409 14.6642C38.0702 14.7692 37.9571 14.8442 37.7874 14.9043C37.646 14.9643 37.5329 14.9793 37.3915 14.9793Z" fill="#E4C96E"/>
<path d="M25.0045 13.5089L24.4106 10.8831L24.2692 13.4639L23.6612 13.4338L23.8733 9.56277L24.5096 9.60778L25.1459 12.1585L25.2732 9.65279L25.8954 9.6828L25.6833 13.5539L25.0045 13.5089Z" fill="#E4C96E"/>
<path d="M9.73295 9.93787L10.3834 9.89286L11.3449 12.3385L11.147 9.81784L11.7692 9.77283L12.052 13.6589L11.3732 13.7189L10.4541 11.1832L10.6379 13.7789L10.0158 13.824L9.73295 9.93787Z" fill="#E4C96E"/>
<path d="M13.7347 9.65279L14.9932 9.59278L15.7285 13.4488L14.9507 13.4939L14.8659 12.7437L14.272 12.7737L14.2437 13.5239L13.4519 13.5689L13.7347 9.65279ZM14.3144 11.6634L14.2579 12.2935L14.4558 12.2785L14.8376 12.2635L14.8093 12.1435C14.6962 11.5733 14.6962 11.5733 14.5689 10.8681L14.4417 10.1929" fill="#E4C96E"/>
<path d="M1.07904 10.9582L2.32339 10.7781L3.3415 14.5592L2.57792 14.6642L2.43652 13.929L1.84262 14.019L1.8709 14.7692L1.07904 14.8742V10.9582ZM1.78606 13.2238V13.5389L1.85676 13.5239L2.36582 13.4488L2.33753 13.3288C2.18199 12.7587 2.15371 12.6386 1.96989 11.9484L1.82848 11.4233" fill="#E4C96E"/>
<path d="M32.7393 14.2591L32.8666 13.0287C32.909 12.6986 32.8807 12.5936 32.8524 12.5336C32.81 12.4286 32.6969 12.3685 32.4989 12.3535L32.3999 12.3385L32.3858 12.4436L32.1737 14.1991L31.4101 14.109L31.8343 10.253L32.4282 10.328C32.8949 10.388 33.206 10.448 33.3615 10.493C33.4888 10.538 33.6019 10.6431 33.6726 10.7781C33.7433 10.9281 33.7716 11.1682 33.7291 11.4833C33.6867 11.8584 33.616 11.9934 33.5736 12.0385C33.5312 12.0835 33.4746 12.1135 33.3898 12.1435C33.2767 12.1735 33.3049 12.1585 33.107 12.2035L32.9797 12.2335L33.1352 12.3235C33.206 12.3685 33.2767 12.4136 33.3332 12.4586C33.4181 12.5186 33.4463 12.5636 33.4888 12.6086C33.5595 12.6986 33.5595 12.7587 33.5736 12.8187C33.5736 12.8487 33.5877 12.9537 33.5312 13.4038L33.4322 14.3641L32.7393 14.2591ZM32.5414 10.8831L32.4282 11.9484L32.5555 11.9784C32.5979 11.9784 32.6403 11.9934 32.6686 11.9934C32.7535 11.9934 32.8242 11.9784 32.8807 11.9484C32.9656 11.9034 33.0221 11.7684 33.0504 11.5433L33.0787 11.3183C33.0928 11.1532 33.0787 11.0332 33.008 10.9432C32.9514 10.8681 32.8524 10.8231 32.6969 10.8081L32.5696 10.7931L32.5414 10.8831Z" fill="#E4C96E"/>
<path d="M19.9423 12.3836C20.0554 11.6183 20.1403 10.8231 20.2251 10.1029L20.3099 9.45774H21.1301L20.621 13.3438H19.2918L18.7545 9.45774H19.5746C19.716 10.5981 19.8292 11.5583 19.9423 12.3836Z" fill="#E4C96E"/>
<defs>
<linearGradient id="paint0_linear_256_5047" x1="19.804" y1="30.0389" x2="19.804" y2="0.038139" gradientUnits="userSpaceOnUse">
<stop offset="0.0858277" stop-color="#905E36"/>
<stop offset="0.2669" stop-color="#CF9A41"/>
<stop offset="0.331" stop-color="#D2A248"/>
<stop offset="0.4294" stop-color="#DCB75D"/>
<stop offset="0.5491" stop-color="#EBDA7D"/>
<stop offset="0.5737" stop-color="#EFE285"/>
<stop offset="0.6506" stop-color="#E4C96E"/>
<stop offset="0.7733" stop-color="#CF9A41"/>
<stop offset="0.9729" stop-color="#7C4D25"/>
</linearGradient>
<linearGradient id="paint1_linear_256_5047" x1="19.7908" y1="30.054" x2="19.7908" y2="0.0385353" gradientUnits="userSpaceOnUse">
<stop stop-color="#8A0E13"/>
<stop offset="0.9729" stop-color="#E1001A"/>
</linearGradient>
<linearGradient id="paint2_linear_256_5047" x1="19.803" y1="30.0389" x2="19.803" y2="0.0478295" gradientUnits="userSpaceOnUse">
<stop offset="0.0858277" stop-color="#905E36"/>
<stop offset="0.2669" stop-color="#CF9A41"/>
<stop offset="0.331" stop-color="#D2A248"/>
<stop offset="0.4294" stop-color="#DCB75D"/>
<stop offset="0.5491" stop-color="#EBDA7D"/>
<stop offset="0.5737" stop-color="#EFE285"/>
<stop offset="0.6506" stop-color="#E4C96E"/>
<stop offset="0.7733" stop-color="#CF9A41"/>
<stop offset="0.9729" stop-color="#7C4D25"/>
</linearGradient>
</defs>
</svg>
