<svg width="72" height="70" viewBox="0 0 72 70" fill="none" xmlns="http://www.w3.org/2000/svg">
<path d="M61.8466 0.927246L68.8306 9.90664C66.17 12.3772 63.6045 16.178 61.1339 21.3091C58.7584 26.3451 57.4757 32.7115 57.2856 40.4081L71.9662 42.261V69.0566H43.4602V56.3715C43.4602 55.2312 43.5077 52.8557 43.6027 49.245C43.6978 45.5392 43.7928 43.0686 43.8878 41.8334C43.9828 40.5031 44.1253 38.2701 44.3154 35.1345C44.5054 31.9988 44.7905 29.7183 45.1706 28.293C45.5506 26.8677 46.0257 24.8723 46.5959 22.3068C47.166 19.7412 47.8786 17.6983 48.7338 16.178C49.684 14.6576 50.7292 12.8998 51.8695 10.9044C53.1047 8.90893 54.53 7.15106 56.1454 5.63074C57.8557 4.0154 59.7561 2.44757 61.8466 0.927246ZM19.9427 0.927246L26.9267 9.90664C24.2662 12.3772 21.7006 16.178 19.2301 21.3091C16.8546 26.3451 15.5718 32.664 15.3818 40.2656L29.2072 42.261V69.0566H0.701172V56.3715C0.701172 50.5752 0.748682 46.1568 0.843702 43.1162C0.938722 40.0755 1.3188 36.1797 1.98394 31.4287C2.64908 26.5827 3.59928 22.6393 4.83455 19.5987C6.16483 16.558 8.06523 13.3274 10.5357 9.90664C13.1013 6.48592 16.237 3.49279 19.9427 0.927246Z" fill="#ECE8DF"/>
</svg>
