<svg width="71" height="71" viewBox="0 0 71 71" fill="none" xmlns="http://www.w3.org/2000/svg">
<path d="M35.2011 22.6313C31.7807 22.6313 28.8625 23.8512 26.4467 26.267C24.0309 28.6829 22.811 31.601 22.811 35.0214C22.811 38.0352 23.7439 40.6424 25.6096 42.8668C25.8727 43.1778 26.1358 43.4887 26.4228 43.7757C26.9729 44.3498 27.5948 44.8521 28.2406 45.2826C28.8865 45.7132 29.5801 46.1198 30.3455 46.4307C30.6565 46.5743 30.9674 46.6939 31.2784 46.7895C31.6132 46.8852 31.9481 46.9809 32.283 47.0766C33.2158 47.2918 34.1965 47.4114 35.225 47.4114C35.9186 47.4114 36.5884 47.3636 37.2342 47.244C37.282 47.244 37.3538 47.2201 37.4016 47.2201C37.6647 47.1722 37.9039 47.1244 38.167 47.0526C38.3105 47.0287 38.4301 46.9809 38.5737 46.957C38.7889 46.9091 38.9803 46.8374 39.1955 46.7656C39.3869 46.6939 39.5543 46.646 39.7218 46.5743C39.8892 46.5025 40.0327 46.4547 40.2001 46.3829C40.4393 46.2633 40.7024 46.1437 40.9416 46.0241C41.0373 45.9763 41.1091 45.9284 41.2047 45.8806C41.5396 45.6893 41.8506 45.4979 42.1615 45.2826C42.2093 45.2587 42.2572 45.2109 42.305 45.187C42.5442 45.0195 42.7834 44.8521 42.9987 44.6847V45.1391C42.9987 45.7849 43.2139 46.3111 43.6684 46.7656C44.1229 47.2201 44.673 47.4353 45.3188 47.4353C45.9646 47.4353 46.4908 47.2201 46.9453 46.7656C47.3998 46.3111 47.615 45.7849 47.615 45.1391V35.0692V35.0453C47.615 31.6249 46.3952 28.7068 43.9793 26.291C41.5157 23.8512 38.5976 22.6313 35.2011 22.6313ZM42.3529 38.0352C41.9462 38.968 41.3961 39.8052 40.7024 40.4988C40.0088 41.2164 39.1716 41.7665 38.2388 42.1732C37.3059 42.5798 36.2774 42.7951 35.2011 42.7951C34.1008 42.7951 33.0962 42.5798 32.1394 42.1732C31.2066 41.7665 30.3694 41.1925 29.6758 40.4988C28.9821 39.8052 28.432 38.968 28.0254 38.0352C27.6188 37.1023 27.4274 36.0977 27.4274 35.0214C27.4274 33.9689 27.6188 32.9644 28.0254 32.0076C28.432 31.0748 28.9821 30.2376 29.6758 29.5439C30.3694 28.8503 31.1827 28.2762 32.1394 27.8696C33.0723 27.463 34.1008 27.2477 35.2011 27.2477C36.2774 27.2477 37.282 27.463 38.2388 27.8696C39.1716 28.2762 40.0088 28.8503 40.7024 29.5439C41.3961 30.2615 41.9462 31.0748 42.3529 32.0076C42.7595 32.9404 42.9508 33.945 42.9508 34.9975C42.9748 36.0977 42.7595 37.1023 42.3529 38.0352Z" fill="#6239BD"/>
<path d="M54.9821 6.46212V35.0453C54.9821 40.5467 53.0446 45.2109 49.1937 49.0379C45.2949 52.8889 40.6307 54.8263 35.201 54.8263C29.7475 54.8263 25.0833 52.8889 21.2084 49.0379C17.3575 45.187 15.42 40.5228 15.42 35.0453C15.42 29.5918 17.3575 24.9276 21.2084 21.0527C25.0594 17.2017 29.7236 15.2643 35.201 15.2643C39.8892 15.2643 44.0272 16.7234 47.5911 19.6176V2.58725C43.7401 1.12819 39.5543 0.314941 35.201 0.314941C15.9463 0.314941 0.351074 15.934 0.351074 35.1649C0.351074 54.3958 15.9702 70.0149 35.201 70.0149C54.4319 70.0149 70.051 54.4197 70.051 35.1649C70.051 23.2533 64.0713 12.7528 54.9821 6.46212Z" fill="#6239BD"/>
</svg>
