<svg width="104" height="95" viewBox="0 0 104 95" fill="none" xmlns="http://www.w3.org/2000/svg">
<path d="M35.7696 12.709C36.7634 10.0975 38.1299 7.69324 40.159 5.74496C48.2753 -2.17251 61.692 -0.182781 67.1994 9.76587C71.3404 17.3103 75.7298 24.6889 79.995 32.1504C87.1174 44.5447 94.3227 56.9391 101.362 69.3749C107.284 79.7795 100.865 92.9201 89.1051 94.7025C81.8998 95.7803 75.1501 92.4641 71.4232 85.9974C65.1704 75.0954 58.8761 64.1933 52.6233 53.3327C52.4991 53.084 52.3334 52.8767 52.1678 52.6695C51.5052 52.1306 51.2154 51.343 50.8013 50.6383C48.0268 45.7468 45.1696 40.8969 42.3951 36.0469C40.6145 32.8965 38.7511 29.7875 36.9705 26.6371C35.3555 23.8184 34.6101 20.7509 34.6929 17.5175C34.8172 15.8594 35.0242 14.2013 35.7696 12.709Z" fill="#3C8BD9"/>
<path d="M35.7696 12.709C35.3969 14.2013 35.065 15.6939 34.9822 17.2691C34.8579 20.7511 35.7275 23.9844 37.4667 27.0105C42.0218 34.845 46.5768 42.721 51.0905 50.5971C51.5046 51.3018 51.8359 52.0065 52.2499 52.6697C49.7654 56.9808 47.2808 61.2504 44.7548 65.5615C41.2764 71.5721 37.798 77.6242 34.2782 83.6349C34.1126 83.6349 34.0712 83.552 34.0297 83.4276C33.9883 83.096 34.1126 82.8058 34.1954 82.4742C35.8932 76.2563 34.4853 70.7431 30.2201 66.0175C27.6113 63.1572 24.2985 61.5406 20.4888 61.0017C15.5197 60.297 11.1303 61.582 7.19636 64.691C6.4924 65.2299 6.0369 66.0175 5.2087 66.432C5.04307 66.432 4.96025 66.3491 4.91884 66.2247C6.9065 62.7842 8.85275 59.3436 10.8404 55.903C19.0395 41.6433 27.2386 27.3835 35.4791 13.1652C35.5619 12.9994 35.6868 12.8748 35.7696 12.709Z" fill="#FABC04"/>
<path d="M5.08497 66.3485C5.87176 65.6439 6.61713 64.8977 7.44532 64.2345C17.5078 56.2755 32.6223 62.0375 34.817 74.6391C35.3554 77.6652 35.0655 80.5668 34.1545 83.4685C34.1131 83.7173 34.0717 83.9245 33.9888 84.1732C33.6162 84.8365 33.2849 85.5412 32.8708 86.2044C29.1853 92.298 23.7607 95.324 16.6382 94.868C8.48056 94.2877 2.06208 88.1527 0.944018 80.028C0.405694 76.0899 1.19248 72.4007 3.22154 69.0015C3.63564 68.2554 4.13255 67.5921 4.58806 66.846C4.79511 66.6802 4.71229 66.3485 5.08497 66.3485Z" fill="#34A852"/>
<path d="M5.08497 66.3485C4.91916 66.5144 4.91972 66.8048 4.62955 66.8462C4.5881 66.5561 4.75391 66.3903 4.91972 66.183L5.08497 66.3485Z" fill="#FABC04"/>
<path d="M33.9888 84.1732C33.823 83.8831 33.9887 83.6758 34.1545 83.4685C34.1959 83.51 34.2796 83.5934 34.321 83.6348L33.9888 84.1732Z" fill="#E1C025"/>
</svg>
