<svg width="61" height="31" viewBox="0 0 61 31" fill="none" xmlns="http://www.w3.org/2000/svg">
<g clip-path="url(#clip0_256_5051)">
<path d="M65.7544 21.6494H7.1709V30.0554H65.7544V21.6494Z" fill="black"/>
<path d="M9.91908 13.6394H7.1709V20.0714H8.55773V18.2414H9.91625C11.1219 18.2414 12.0842 17.1944 12.0842 15.9374C12.0871 14.6594 11.105 13.6394 9.91908 13.6394ZM9.687 16.9544H8.56056V14.9234H9.687C10.2163 14.9234 10.638 15.3734 10.638 15.9344C10.638 16.4954 10.2134 16.9544 9.687 16.9544Z" fill="#ADC71C"/>
<path d="M13.5586 13.6394V20.0714H14.9256V13.6394H13.5586Z" fill="#ADC71C"/>
<path d="M21.2031 18.0674C20.8917 18.5894 20.3795 18.9044 19.7823 18.9044C18.7322 18.9044 18.0218 17.9654 18.0218 16.8554C18.0218 15.7424 18.7322 14.8064 19.7823 14.8064C20.3795 14.8064 20.9172 15.1664 21.1946 15.6344L22.3465 14.8064C21.7408 13.9244 20.8125 13.4564 19.7823 13.4564C17.9964 13.4564 16.5728 14.9984 16.5728 16.8554C16.5728 18.7454 18.0303 20.2544 19.7823 20.2544C20.8125 20.2544 21.8002 19.7054 22.3974 18.8234L21.2031 18.0674Z" fill="#ADC71C"/>
<path d="M26.2893 16.8014L28.5959 13.6394H27.0959L25.3468 16.0454V13.6394H23.96V20.0714H25.3468V17.7284L27.2374 20.0714H28.944L26.2893 16.8014Z" fill="#ADC71C"/>
<path d="M31.8873 18.7814V13.6394H30.5005V20.0714H34.8081V18.7844H31.8873V18.7814Z" fill="#ADC71C"/>
<path d="M37.7545 18.7814V17.4944H39.4527V16.2074H37.7545V14.9204H40.3895V13.6334H36.3677V20.0654H40.6046V18.7784H37.7545V18.7814Z" fill="#ADC71C"/>
<path d="M46.5679 16.5794C46.8708 16.0934 46.9246 15.3944 46.6896 14.8244C46.4038 14.1344 45.8038 13.7114 45.0339 13.6394H42.1641V20.0714H45.5632C46.4717 19.9874 47.2953 19.1954 47.2953 18.1334C47.2953 17.5244 47.0293 17.0114 46.5679 16.5794ZM43.5537 14.9264H44.7679C45.0962 14.9264 45.3821 15.2114 45.3821 15.5804C45.3821 15.9404 45.116 16.2224 44.7679 16.2404H43.5537V14.9264ZM45.2264 18.7814H43.5537V17.4674H45.2264C45.5547 17.4764 45.8519 17.7614 45.8519 18.1304C45.8491 18.4814 45.5632 18.7814 45.2264 18.7814Z" fill="#ADC71C"/>
<path d="M51.9682 13.6394H50.3833L48.3398 20.0714H49.7352L50.055 19.0244H52.3079L52.6192 20.0714H54.023L51.9682 13.6394ZM50.4427 17.7374L51.1786 15.3134L51.9145 17.7374H50.4427Z" fill="#ADC71C"/>
<path d="M56.969 18.7814V13.6394H55.585V20.0714H59.8926V18.7844H56.969V18.7814Z" fill="#ADC71C"/>
<path d="M7.1709 3.16345V4.45045H9.02472V9.59545H10.4087V4.45045H12.2625V3.16345H7.1709Z" fill="black"/>
<path d="M17.4221 3.16345V5.73445H15.2145V3.16345H13.8276V9.59545H15.2145V7.02445H17.4221V9.59545H18.8089V3.16345H17.4221Z" fill="black"/>
<path d="M24.2628 8.30845C23.4958 8.74345 22.7288 9.17845 21.9562 9.59545H23.3119C23.9204 9.28645 24.526 8.97145 25.1317 8.66545V8.30845H24.2628ZM24.911 4.45045V3.16345H20.8892V9.59545H20.9882C21.7722 9.19345 22.5534 8.75845 23.3458 8.30845H22.276V7.02145H23.9741V5.73445H22.276V4.44745H24.911V4.45045Z" fill="black"/>
<path d="M41.9434 1.80142C41.6292 2.23642 41.3716 2.71942 41.182 3.24742C38.7423 3.16042 36.2942 3.69142 33.9337 4.57342C31.0808 5.64142 28.3128 7.05142 25.5477 8.44942C25.409 8.52142 25.2675 8.59042 25.1288 8.66542C24.5259 8.97142 23.9203 9.28642 23.3089 9.59542C21.2796 10.6304 19.2022 11.6084 16.9805 12.1154C15.4748 12.4904 13.9266 12.7004 12.3813 12.6434C10.8445 12.5744 9.28215 12.3074 7.91797 11.5454C9.30763 12.2504 10.8671 12.4484 12.3841 12.4514C13.9096 12.4454 15.4266 12.1754 16.8927 11.7464C18.6673 11.2634 20.3258 10.4774 21.9532 9.59842C22.7259 9.18142 23.4929 8.74642 24.2599 8.31142C24.5797 8.13142 24.8995 7.94842 25.2222 7.77142C27.9392 6.25642 30.6591 4.72342 33.5573 3.49942C35.0092 2.89942 36.5149 2.39542 38.08 2.09542C39.348 1.84642 40.6499 1.74742 41.9434 1.80142Z" fill="black"/>
<path d="M40.9018 6.12146C39.3961 6.06446 37.8225 6.28046 36.3055 6.61046C34.2111 7.07846 32.1591 7.80146 30.2006 8.76146C29.2213 9.23246 28.293 9.81446 27.2967 10.3395C26.309 10.8615 25.2873 11.2965 24.2514 11.6865C22.1796 12.4575 20.0484 13.0245 17.8833 13.3365C20.0258 12.8985 22.1174 12.2115 24.1212 11.3295C25.1203 10.8855 26.1052 10.3965 27.042 9.83246C27.9703 9.27446 28.893 8.62046 29.8751 8.07746C31.828 6.97946 33.8997 6.10946 36.0507 5.49746C37.6074 5.07146 39.2036 4.73546 40.8594 4.69946C40.8424 4.88546 40.8339 5.06846 40.8339 5.25446C40.8367 5.54846 40.8594 5.83946 40.9018 6.12146Z" fill="black"/>
<path d="M41.9434 1.80142C41.6292 2.23642 41.3716 2.71942 41.182 3.24742C38.7423 3.16042 36.2942 3.69142 33.9337 4.57342C31.0808 5.64142 28.3128 7.05142 25.5477 8.44942C25.409 8.52142 25.2675 8.59042 25.1288 8.66542C24.5259 8.97142 23.9203 9.28642 23.3089 9.59542C21.2796 10.6304 19.2022 11.6084 16.9805 12.1154C15.4748 12.4904 13.9266 12.7004 12.3813 12.6434C10.8445 12.5744 9.28215 12.3074 7.91797 11.5454C9.30763 12.2504 10.8671 12.4484 12.3841 12.4514C13.9096 12.4454 15.4266 12.1754 16.8927 11.7464C18.6673 11.2634 20.3258 10.4774 21.9532 9.59842C22.7259 9.18142 23.4929 8.74642 24.2599 8.31142C24.5797 8.13142 24.8995 7.94842 25.2222 7.77142C27.9392 6.25642 30.6591 4.72342 33.5573 3.49942C35.0092 2.89942 36.5149 2.39542 38.08 2.09542C39.348 1.84642 40.6499 1.74742 41.9434 1.80142Z" fill="black"/>
<path d="M40.9018 6.12146C39.3961 6.06446 37.8225 6.28046 36.3055 6.61046C34.2111 7.07846 32.1591 7.80146 30.2006 8.76146C29.2213 9.23246 28.293 9.81446 27.2967 10.3395C26.309 10.8615 25.2873 11.2965 24.2514 11.6865C22.1796 12.4575 20.0484 13.0245 17.8833 13.3365C20.0258 12.8985 22.1174 12.2115 24.1212 11.3295C25.1203 10.8855 26.1052 10.3965 27.042 9.83246C27.9703 9.27446 28.893 8.62046 29.8751 8.07746C31.828 6.97946 33.8997 6.10946 36.0507 5.49746C37.6074 5.07146 39.2036 4.73546 40.8594 4.69946C40.8424 4.88546 40.8339 5.06846 40.8339 5.25446C40.8367 5.54846 40.8594 5.83946 40.9018 6.12146Z" fill="black"/>
<path d="M42.2943 9.12737C41.6377 9.01337 40.9698 8.93837 40.2933 8.89337C39.0622 8.83937 37.814 8.87837 36.5687 8.99237C34.0781 9.25337 31.5903 9.76337 29.1704 10.5374C31.511 9.52337 33.9592 8.75537 36.4668 8.23637C37.7263 7.99337 39.0027 7.81937 40.299 7.74737C40.6584 7.73237 41.0207 7.73237 41.383 7.73837C41.6179 8.24837 41.9264 8.71637 42.2943 9.12737Z" fill="black"/>
<path d="M42.2943 9.12737C41.6377 9.01337 40.9698 8.93837 40.2933 8.89337C39.0622 8.83937 37.814 8.87837 36.5687 8.99237C34.0781 9.25337 31.5903 9.76337 29.1704 10.5374C31.511 9.52337 33.9592 8.75537 36.4668 8.23637C37.7263 7.99337 39.0027 7.81937 40.299 7.74737C40.6584 7.73237 41.0207 7.73237 41.383 7.73837C41.6179 8.24837 41.9264 8.71637 42.2943 9.12737Z" fill="black"/>
<path d="M11.2178 27.0284C11.2178 26.7374 10.8018 26.5514 10.2414 26.4194C9.49705 26.2454 8.41023 25.9184 8.41023 24.8024C8.41023 23.7284 9.37535 23.1704 10.2499 23.1704C11.1329 23.1704 11.815 23.5904 12.2594 24.2354L11.3565 24.8864C11.1782 24.5594 10.7424 24.2354 10.2754 24.2354C10.0093 24.2354 9.55083 24.3794 9.55083 24.7424C9.55083 25.0544 9.95555 25.1624 10.4593 25.3004C11.2603 25.5164 12.3613 25.8374 12.3613 26.9894C12.3613 28.0394 11.3084 28.5254 10.2952 28.5254C9.47441 28.5254 8.63948 28.0694 8.21777 27.4034L9.16025 26.8094C9.35837 27.1724 9.89895 27.4694 10.3093 27.4694C10.3093 27.4694 11.2178 27.4844 11.2178 27.0284Z" fill="white"/>
<path d="M13.7935 25.8524C13.7935 24.3884 14.9142 23.1704 16.3237 23.1704C17.136 23.1704 17.869 23.5394 18.3473 24.2354L17.4388 24.8864C17.2209 24.5174 16.7964 24.2354 16.3237 24.2354C15.4973 24.2354 14.9369 24.9734 14.9369 25.8524C14.9369 26.7284 15.4973 27.4694 16.3237 27.4694C16.7964 27.4694 17.1983 27.2234 17.4445 26.8094L18.387 27.4034C17.9143 28.0994 17.136 28.5344 16.3209 28.5344C14.9425 28.5344 13.7935 27.3464 13.7935 25.8524Z" fill="white"/>
<path d="M22.2163 23.1704C23.6031 23.1704 24.7465 24.4154 24.7465 25.8524C24.7465 27.3164 23.572 28.5344 22.2163 28.5344C20.7955 28.5344 19.686 27.2444 19.686 25.8524C19.686 24.3824 20.8578 23.1704 22.2163 23.1704ZM22.2163 27.4694C23.0427 27.4694 23.6031 26.6444 23.6031 25.8524C23.6031 25.0124 23.0003 24.2354 22.2163 24.2354C21.3899 24.2354 20.8295 25.0544 20.8295 25.8524C20.8634 26.6954 21.3955 27.4694 22.2163 27.4694Z" fill="white"/>
<path d="M29.1079 26.7164L30.4607 28.3904H29.122L27.8569 26.8244H27.6163V28.3904H26.521V23.3174H28.5248C29.4333 23.3174 30.1805 24.0914 30.1805 25.0724C30.1805 25.8164 29.7362 26.4614 29.1079 26.7164ZM27.6163 24.3314V25.8104H28.3465C28.7286 25.8104 29.0428 25.4774 29.0428 25.0724C29.0428 24.6674 28.7286 24.3344 28.3465 24.3344H27.6163V24.3314Z" fill="white"/>
<path d="M35.4451 28.3904H32.1025V23.3174H35.2753V24.3314H33.1978V25.3454H34.5366V26.3594H33.1978V27.3734H35.4479V28.3904H35.4451Z" fill="white"/>
<path d="M37.0864 28.3904V23.3174H39.3506C39.9591 23.3744 40.4318 23.7074 40.6554 24.2534C40.8393 24.7034 40.7997 25.2524 40.5592 25.6364C40.9214 25.9784 41.1337 26.3834 41.1337 26.8604C41.1337 27.7004 40.4856 28.3244 39.7667 28.3904H37.0864ZM38.1789 24.3314V25.3664H39.1355C39.4101 25.3514 39.6195 25.1264 39.6195 24.8444C39.6195 24.5534 39.3931 24.3314 39.1355 24.3314H38.1789ZM38.1789 26.3384V27.3734H39.4978C39.7638 27.3734 39.9903 27.1334 39.9903 26.8604C39.9903 26.5694 39.7582 26.3474 39.4978 26.3384H38.1789Z" fill="white"/>
<path d="M45.0307 23.1704C46.4176 23.1704 47.561 24.4154 47.561 25.8524C47.561 27.3164 46.3864 28.5344 45.0307 28.5344C43.6099 28.5344 42.5005 27.2444 42.5005 25.8524C42.5005 24.3824 43.6694 23.1704 45.0307 23.1704ZM45.0307 27.4694C45.8572 27.4694 46.4176 26.6444 46.4176 25.8524C46.4176 25.0124 45.8147 24.2354 45.0307 24.2354C44.2043 24.2354 43.6439 25.0544 43.6439 25.8524C43.675 26.6954 44.21 27.4694 45.0307 27.4694Z" fill="white"/>
<path d="M50.0067 27.5625L49.7548 28.3875H48.6538L50.2671 23.3145H51.518L53.1398 28.3875H52.0303L51.7841 27.5625H50.0067ZM51.4756 26.5485L50.8954 24.6345L50.3152 26.5485H51.4756Z" fill="white"/>
<path d="M57.3622 26.7164L58.7151 28.3904H57.3736L56.1084 26.8244H55.8679V28.3904H54.7754V23.3174H56.7792C57.6877 23.3174 58.4349 24.0914 58.4349 25.0724C58.4349 25.8164 57.9906 26.4614 57.3622 26.7164ZM55.8707 24.3314V25.8104H56.6009C56.983 25.8104 57.2972 25.4774 57.2972 25.0724C57.2972 24.6674 56.983 24.3344 56.6009 24.3344H55.8707V24.3314Z" fill="white"/>
<path d="M46.1691 10.4474C48.8764 10.4474 51.0711 8.12109 51.0711 5.25142C51.0711 2.38175 48.8764 0.0554199 46.1691 0.0554199C43.4618 0.0554199 41.2671 2.38175 41.2671 5.25142C41.2671 8.12109 43.4618 10.4474 46.1691 10.4474Z" fill="#D7E514"/>
<path d="M51.0711 5.25147C51.0711 8.12247 48.8748 10.4475 46.1691 10.4475C43.4605 10.4475 41.2671 8.12247 41.2671 5.25147C41.2671 4.92747 41.2954 4.60947 41.3492 4.30347C41.7709 6.72147 43.7662 8.54847 46.1691 8.54847C48.5692 8.54847 50.5673 6.71847 50.989 4.30347C51.0428 4.60947 51.0711 4.92747 51.0711 5.25147Z" fill="#ADC71C"/>
<path d="M44.9469 9.65005C44.9747 9.53276 44.7994 9.38492 44.5554 9.31986C44.3113 9.2548 44.0909 9.29715 44.0631 9.41445C44.0353 9.53174 44.2105 9.67957 44.4546 9.74463C44.6987 9.8097 44.9191 9.76735 44.9469 9.65005Z" fill="black"/>
<path d="M47.4517 9.69772C47.6781 9.58125 47.8213 9.39862 47.7715 9.28981C47.7216 9.18099 47.4977 9.18718 47.2713 9.30365C47.0449 9.42011 46.9017 9.60274 46.9515 9.71156C47.0014 9.82038 47.2253 9.81418 47.4517 9.69772Z" fill="black"/>
<path d="M50.12 5.01442C50.2298 4.98132 50.2629 4.7465 50.194 4.48993C50.1251 4.23337 49.9803 4.05222 49.8706 4.08532C49.7608 4.11843 49.7277 4.35325 49.7966 4.60981C49.8655 4.86638 50.0103 5.04753 50.12 5.01442Z" fill="black"/>
<path d="M46.3613 1.15338C46.6117 1.12604 46.8051 1.00635 46.7934 0.886036C46.7817 0.765727 46.5693 0.690362 46.319 0.717704C46.0687 0.745047 45.8752 0.864742 45.8869 0.985051C45.8986 1.10536 46.111 1.18073 46.3613 1.15338Z" fill="black"/>
<path d="M43.816 2.15358C43.9912 1.96208 44.0668 1.73858 43.9849 1.65439C43.9029 1.5702 43.6945 1.65719 43.5193 1.84869C43.3442 2.04019 43.2686 2.26369 43.3505 2.34788C43.4324 2.43207 43.6408 2.34508 43.816 2.15358Z" fill="black"/>
<path d="M42.4693 4.65223C42.4873 4.38617 42.4097 4.16345 42.2959 4.15477C42.1821 4.14609 42.0752 4.35474 42.0571 4.6208C42.0391 4.88686 42.1167 5.10958 42.2305 5.11825C42.3443 5.12693 42.4512 4.91829 42.4693 4.65223Z" fill="black"/>
<path d="M43.0542 8.0001C43.1466 7.9292 43.102 7.69652 42.9544 7.4804C42.8069 7.26427 42.6124 7.14655 42.5199 7.21745C42.4275 7.28835 42.4721 7.52103 42.6197 7.73715C42.7672 7.95328 42.9617 8.071 43.0542 8.0001Z" fill="black"/>
<path d="M50.2079 7.6251C50.3107 7.38163 50.3096 7.1442 50.2055 7.09478C50.1013 7.04536 49.9335 7.20266 49.8307 7.44613C49.7279 7.6896 49.729 7.92703 49.8331 7.97645C49.9372 8.02587 50.105 7.86856 50.2079 7.6251Z" fill="black"/>
<path d="M49.4129 2.21453C49.4769 2.11439 49.3599 1.91192 49.1515 1.7623C48.9432 1.61268 48.7224 1.57256 48.6584 1.6727C48.5944 1.77283 48.7114 1.9753 48.9197 2.12492C49.1281 2.27454 49.3489 2.31466 49.4129 2.21453Z" fill="black"/>
<path d="M46.1692 3.0494C46.4724 3.0494 46.7183 2.88419 46.7183 2.6804C46.7183 2.47661 46.4724 2.3114 46.1692 2.3114C45.8659 2.3114 45.6201 2.47661 45.6201 2.6804C45.6201 2.88419 45.8659 3.0494 46.1692 3.0494Z" fill="black"/>
<path d="M44.3692 4.14941C44.5208 3.87106 44.5087 3.5628 44.3422 3.4609C44.1757 3.35901 43.9179 3.50206 43.7662 3.78041C43.6146 4.05877 43.6267 4.36703 43.7932 4.46892C43.9597 4.57082 44.2176 4.42777 44.3692 4.14941Z" fill="black"/>
<path d="M44.3427 7.04166C44.5092 6.93977 44.5213 6.63151 44.3697 6.35315C44.218 6.07479 43.9602 5.93174 43.7937 6.03364C43.6272 6.13554 43.6151 6.44379 43.7667 6.72215C43.9183 7.00051 44.1762 7.14356 44.3427 7.04166Z" fill="black"/>
<path d="M46.1692 8.19137C46.4724 8.19137 46.7183 8.02616 46.7183 7.82237C46.7183 7.61858 46.4724 7.45337 46.1692 7.45337C45.8659 7.45337 45.6201 7.61858 45.6201 7.82237C45.6201 8.02616 45.8659 8.19137 46.1692 8.19137Z" fill="black"/>
<path d="M48.5738 6.72253C48.7254 6.44418 48.7133 6.13592 48.5468 6.03402C48.3803 5.93213 48.1224 6.07518 47.9708 6.35353C47.8192 6.63189 47.8313 6.94015 47.9978 7.04204C48.1643 7.14394 48.4221 7.00089 48.5738 6.72253Z" fill="black"/>
<path d="M48.5449 4.46793C48.7114 4.36604 48.7234 4.05778 48.5718 3.77942C48.4202 3.50106 48.1623 3.35801 47.9958 3.45991C47.8293 3.56181 47.8172 3.87006 47.9689 4.14842C48.1205 4.42678 48.3784 4.56983 48.5449 4.46793Z" fill="black"/>
<path d="M46.1689 5.83343C46.3612 5.83343 46.517 5.57286 46.517 5.25143C46.517 4.93 46.3612 4.66943 46.1689 4.66943C45.9767 4.66943 45.8208 4.93 45.8208 5.25143C45.8208 5.57286 45.9767 5.83343 46.1689 5.83343Z" fill="black"/>
</g>
<defs>
<clipPath id="clip0_256_5051">
<rect width="59.9108" height="30" fill="white" transform="translate(0.224609 0.043457)"/>
</clipPath>
</defs>
</svg>
