<svg width="21" height="21" viewBox="0 0 21 21" fill="none" xmlns="http://www.w3.org/2000/svg">
<path d="M18.1274 0.92334H2.81494C1.5226 0.92334 0.471191 1.97475 0.471191 3.26709V18.5796C0.471191 19.8719 1.5226 20.9233 2.81494 20.9233H18.1274C19.4198 20.9233 20.4712 19.8719 20.4712 18.5796V3.26709C20.4712 1.97475 19.4198 0.92334 18.1274 0.92334ZM18.9087 18.5796C18.9087 19.0104 18.5582 19.3608 18.1274 19.3608H13.6743V12.9937H16.088L16.4868 10.5718H13.6743V8.89209C13.6743 8.229 14.1831 7.72021 14.8462 7.72021H16.4478V5.29834H14.8462C12.857 5.29834 11.2533 6.90967 11.2533 8.89889V10.5718H8.90869V12.9937H11.2533V19.3608H2.81494C2.38416 19.3608 2.03369 19.0104 2.03369 18.5796V3.26709C2.03369 2.83631 2.38416 2.48584 2.81494 2.48584H18.1274C18.5582 2.48584 18.9087 2.83631 18.9087 3.26709V18.5796Z" fill="#495057"/>
</svg>
