<svg width="21" height="21" viewBox="0 0 21 21" fill="none" xmlns="http://www.w3.org/2000/svg">
<path d="M6.7215 17.4468H3.98712V8.61865H6.7215V17.4468ZM6.99432 5.806C6.99432 4.92206 6.27716 4.20459 5.39368 4.20459C4.50684 4.20459 3.7915 4.92206 3.7915 5.806C3.7915 6.69025 4.50684 7.40771 5.39368 7.40771C6.27716 7.40771 6.99432 6.69025 6.99432 5.806ZM16.9556 12.5899C16.9556 10.2201 16.4549 8.4624 13.6865 8.4624C12.3563 8.4624 11.4633 9.12769 11.0988 9.81952H11.0962V8.61865H8.43994V17.4468H11.0962V13.0635C11.0962 11.9156 11.3884 10.8036 12.8113 10.8036C14.2148 10.8036 14.2603 12.1163 14.2603 13.1365V17.4468H16.9556V12.5899ZM20.4712 18.5796V3.26709C20.4712 1.97467 19.4199 0.92334 18.1274 0.92334H2.81494C1.52252 0.92334 0.471191 1.97467 0.471191 3.26709V18.5796C0.471191 19.872 1.52252 20.9233 2.81494 20.9233H18.1274C19.4199 20.9233 20.4712 19.872 20.4712 18.5796ZM18.1274 2.48584C18.5582 2.48584 18.9087 2.83633 18.9087 3.26709V18.5796C18.9087 19.0103 18.5582 19.3608 18.1274 19.3608H2.81494C2.38419 19.3608 2.03369 19.0103 2.03369 18.5796V3.26709C2.03369 2.83633 2.38419 2.48584 2.81494 2.48584H18.1274Z" fill="#495057"/>
</svg>
