<svg width="21" height="21" viewBox="0 0 21 21" fill="none" xmlns="http://www.w3.org/2000/svg">
<path d="M10.0532 11.882C9.94856 11.882 9.84392 11.8421 9.76421 11.7622C9.12675 11.1247 8.08954 11.1245 7.45188 11.7622C7.29246 11.9218 7.03331 11.9218 6.8739 11.7622C6.71428 11.6026 6.71428 11.3438 6.8739 11.1842C7.83018 10.2277 9.38611 10.2279 10.3422 11.1842C10.5018 11.3438 10.5018 11.6026 10.3422 11.7622C10.2625 11.8421 10.1576 11.882 10.0532 11.882Z" fill="#495057"/>
<path d="M9.76438 14.2137C9.13633 14.2137 8.50828 13.9746 8.03024 13.4965C7.87062 13.3369 7.87062 13.0782 8.03024 12.9185C8.18965 12.7589 8.4488 12.7589 8.60822 12.9185C9.24567 13.556 10.2829 13.5562 10.9206 12.9185C11.08 12.7589 11.3391 12.7589 11.4985 12.9185C11.6582 13.0782 11.6582 13.3369 11.4985 13.4965C11.0203 13.9746 10.3922 14.2137 9.76438 14.2137Z" fill="#495057"/>
<path d="M11.2092 13.6161C11.1046 13.6161 11 13.5762 10.9203 13.4963C10.7606 13.3367 10.7606 13.078 10.9203 12.9183L13.2036 10.635C13.363 10.4754 13.6221 10.4754 13.7815 10.635C13.9412 10.7947 13.9412 11.0534 13.7815 11.213L11.4982 13.4963C11.4185 13.5762 11.3139 13.6161 11.2092 13.6161Z" fill="#495057"/>
<path d="M7.77 17.0553C7.66536 17.0553 7.56072 17.0155 7.48101 16.9356C7.32139 16.776 7.32139 16.5172 7.48101 16.3576L8.75735 15.0813C8.91677 14.9216 9.17592 14.9216 9.33533 15.0813C9.49495 15.2409 9.49495 15.4996 9.33533 15.6592L8.05899 16.9356C7.97929 17.0155 7.87464 17.0553 7.77 17.0553Z" fill="#495057"/>
<path d="M4.87965 14.1651C4.77501 14.1651 4.67037 14.1252 4.59066 14.0453C4.43104 13.8857 4.43104 13.627 4.59066 13.4673L6.87397 11.1842C7.03359 11.0246 7.29254 11.0246 7.45195 11.1842C7.61157 11.3438 7.61157 11.6026 7.45195 11.7622L5.16864 14.0453C5.08873 14.125 4.98409 14.1651 4.87965 14.1651Z" fill="#495057"/>
<path d="M9.32588 9.71901C9.22124 9.71901 9.1168 9.67915 9.03689 9.59944C8.87727 9.43983 8.87727 9.18108 9.03689 9.02126L10.3132 7.74471C10.4728 7.5851 10.7316 7.5851 10.8914 7.74471C11.051 7.90433 11.051 8.16308 10.8914 8.3229L9.61507 9.59944C9.53516 9.67895 9.43032 9.71901 9.32588 9.71901Z" fill="#495057"/>
<path d="M6.32475 17.6407C5.69261 17.6407 5.06047 17.4057 4.5906 16.9356C3.65046 15.9955 3.65046 14.4073 4.5906 13.4671C4.75002 13.3075 5.00917 13.3075 5.16858 13.4671C5.3282 13.6267 5.3282 13.8855 5.16858 14.0451C4.54196 14.6717 4.54196 15.7308 5.16858 16.3574C5.79521 16.9841 6.85429 16.9841 7.48092 16.3574C7.64033 16.1978 7.89948 16.1978 8.0589 16.3574C8.21852 16.5171 8.21852 16.7758 8.0589 16.9354C7.58903 17.4057 6.95689 17.6407 6.32475 17.6407Z" fill="#495057"/>
<path d="M13.4925 11.3328C13.3878 11.3328 13.2832 11.2929 13.2035 11.213C13.0439 11.0534 13.0439 10.7946 13.2035 10.635C13.8301 10.0084 13.8301 8.94932 13.2035 8.3227C12.5769 7.69607 11.5178 7.69607 10.8911 8.3227C10.7317 8.48232 10.4726 8.48232 10.3132 8.3227C10.1535 8.16308 10.1535 7.90434 10.3132 7.74472C11.2533 6.80458 12.8415 6.80458 13.7817 7.74472C14.7218 8.68485 14.7218 10.2731 13.7817 11.2132C13.7018 11.2929 13.5971 11.3328 13.4925 11.3328Z" fill="#495057"/>
<path d="M17.8089 18.9117V5.7687C17.8089 4.65939 16.9023 3.75702 15.7879 3.75702H2.58421C1.46978 3.75702 0.563232 4.65939 0.563232 5.7687V18.9117C0.563232 20.021 1.46978 20.9233 2.58421 20.9233H15.7879C16.9023 20.9233 17.8089 20.021 17.8089 18.9117ZM15.7879 5.09814C16.1593 5.09814 16.4616 5.39897 16.4616 5.7687V16.7485V18.0897V18.9117C16.4616 19.2814 16.1593 19.5822 15.7879 19.5822H2.58421C2.21277 19.5822 1.91055 19.2814 1.91055 18.9117V5.7687C1.91055 5.39897 2.21277 5.09814 2.58421 5.09814H3.31763H4.66494H15.7879Z" fill="#495057"/>
<path fill-rule="evenodd" clip-rule="evenodd" d="M20.5633 2.93502V16.078C20.5633 17.1873 19.6567 18.0897 18.5423 18.0897H16.4616V16.7485H18.5423C18.9137 16.7485 19.2159 16.4477 19.2159 16.078V2.93502C19.2159 2.56529 18.9137 2.26446 18.5423 2.26446H5.3386C4.96717 2.26446 4.66494 2.56529 4.66494 2.93502V5.09814H3.31763V2.93502C3.31763 1.82571 4.22417 0.92334 5.3386 0.92334H18.5423C19.6567 0.92334 20.5633 1.82571 20.5633 2.93502Z" fill="#495057"/>
</svg>
