<svg width="156" height="41" viewBox="0 0 156 41" fill="none" xmlns="http://www.w3.org/2000/svg">
<path d="M3.4041 15.9513H18.6211V20.2624L12.9147 20.7123C3.66518 21.3871 0.756042 23.8238 0.756042 30.7217V32.1087C0.756042 37.1696 4.26193 40.2062 9.66994 40.2062C13.9591 40.2062 16.3833 39.194 19.4044 36.0825H19.8892V39.3815H25.9686V9.24088H3.4041V15.9513ZM18.6211 30.4592C16.719 32.3711 13.9218 33.6083 11.5721 33.6083C9.07319 33.6083 7.99159 32.6711 8.06619 30.5717C8.14078 27.6476 9.18508 26.9728 14.0336 26.523L18.6211 26.0731C18.6211 26.1106 18.6211 30.4592 18.6211 30.4592Z" fill="#FF8800"/>
<path d="M146.288 21.3871L141.775 20.9372C139.276 20.6748 138.642 20.0375 138.642 18.0131C138.642 15.7263 139.537 15.164 143.043 15.164C146.176 15.164 147.071 15.6514 147.518 17.8257H154.567C154.381 10.6279 152.18 8.79102 143.453 8.79102C133.905 8.79102 131.518 10.6279 131.518 18.0131C131.518 24.761 133.271 26.598 140.395 27.3102L144.124 27.6851C147.444 27.985 148.264 28.6223 148.264 30.6467C148.264 33.1209 147.257 33.7582 143.192 33.7582C139.611 33.7582 138.679 33.1959 138.493 30.8341H131.406C131.593 38.2943 133.868 40.2062 142.894 40.2062C152.964 40.2062 155.463 38.1818 155.463 29.9719C155.351 23.8613 153.523 22.0619 146.288 21.3871Z" fill="#054ADA"/>
<path d="M108.581 21.9494C108.581 12.2024 105.261 8.79102 95.676 8.79102C86.0908 8.79102 82.5476 13.2146 82.5476 24.1987C82.5476 36.195 85.8297 40.2062 96.3846 40.2062C103.993 40.2062 107.201 37.8819 108.282 31.284H101.047C100.226 33.3084 99.3684 33.7582 96.2727 33.7582C91.6107 33.7582 90.4172 32.4461 90.1561 26.8229H108.058C108.394 25.1734 108.581 23.224 108.581 21.9494ZM90.2307 20.8622C90.3053 16.6261 91.9836 15.0516 96.0117 15.0516C100.04 15.0516 101.42 16.6261 101.532 20.8622H90.2307Z" fill="#054ADA"/>
<path d="M50.8081 9.24088H39.0597V0.206207H31.5631V39.3815H39.0597V15.9888H49.7265V39.3815H57.2232V15.389H50.8081V9.24088Z" fill="#054ADA"/>
<path d="M112.795 10.553V39.3815H120.292V15.6889H129.28V9.24088H120.292V8.41614C120.366 6.65419 120.777 6.12936 122.231 6.12936H130.399V0.206207H121.597C115.63 0.206207 112.795 2.04313 112.795 10.553Z" fill="#054ADA"/>
<path d="M62.7431 39.3815H70.2397V16.3262H81.3541V9.24088H62.7431V39.3815Z" fill="#054ADA"/>
</svg>
