<svg width="100" height="41" viewBox="0 0 100 41" fill="none" xmlns="http://www.w3.org/2000/svg">
<path d="M0.406837 0.337067L8.38876 3.14798V31.2737L19.6318 24.7767L14.1196 22.1877L10.6421 13.5233L28.3567 19.7532V28.8106L8.39332 40.3371L0.406837 35.8899V0.337067Z" fill="#008373"/>
<path d="M40.338 32.3385V8.32081H47.1643C49.239 8.32091 50.8842 8.8289 52.1 9.84499C53.3157 10.8611 53.9237 12.1843 53.9238 13.8144C53.9238 15.1766 53.5556 16.3603 52.8195 17.3652C52.0833 18.3701 51.0682 19.0846 49.7744 19.509V19.5759C51.3917 19.7657 52.6856 20.377 53.6561 21.4098C54.6265 22.4427 55.1117 23.7853 55.1117 25.4379C55.1117 27.4924 54.3755 29.1561 52.9031 30.429C51.4308 31.7019 49.5736 32.3383 47.3317 32.3383L40.338 32.3385ZM43.1489 10.8667V18.6214H46.0268C47.566 18.6214 48.7762 18.25 49.6573 17.5075C50.5385 16.765 50.9792 15.7182 50.9792 14.3671C50.9792 12.0335 49.4454 10.8667 46.378 10.8667H43.1489ZM43.1489 21.1504V29.7926H46.9636C48.6145 29.7926 49.8944 29.4019 50.8035 28.6202C51.7126 27.8386 52.1671 26.7668 52.1671 25.4044C52.1671 22.5683 50.2374 21.1504 46.378 21.1504H43.1489ZM60.0958 11.3741C59.6051 11.3741 59.1867 11.2066 58.841 10.8717C58.4952 10.5367 58.3223 10.1124 58.3223 9.59872C58.3223 9.08518 58.4952 8.65805 58.841 8.31754C59.1867 7.97703 59.6051 7.80667 60.0958 7.80667C60.5977 7.80667 61.0244 7.97703 61.3758 8.31754C61.7271 8.65805 61.9028 9.08518 61.9028 9.59872C61.9028 10.0901 61.7271 10.5088 61.3758 10.8549C61.0243 11.201 60.5977 11.3741 60.0958 11.3741ZM61.4343 32.3385H58.6904V15.3188H61.4343V32.3385ZM80.0772 32.3385H77.3332V22.6826C77.3332 19.0426 76.1083 17.2225 73.4535 17.2225C72.0816 17.2225 70.9467 17.7389 70.0488 18.7717C69.1509 19.8047 68.7019 21.1083 68.7019 22.6826V32.3385H65.958V15.3189H68.7019V18.1077H68.7688C70.0628 15.9415 71.9066 14.9112 74.2881 14.9112C76.162 14.9112 77.5953 15.517 78.588 16.7285C79.5807 17.94 80.0771 19.6901 80.0771 21.9792L80.0772 32.3385ZM99.3056 30.8887C99.3056 37.1861 96.294 40.3348 90.2708 40.3348C88.1515 40.3348 86.4045 39.9571 84.8206 39.1532L85.5403 36.7981C85.5403 36.7981 87.4004 38.0356 90.2373 38.0356C94.4536 38.0356 96.5617 35.8316 96.5617 31.3429V29.486H96.4948C95.1898 31.6744 93.3518 32.7405 90.7305 32.7405C88.6001 32.7405 86.8851 32.0979 85.5857 30.5738C84.2862 29.0496 83.6365 27.0036 83.6365 24.4355C83.6365 21.5212 84.3364 19.2043 85.7362 17.4848C87.1361 15.7652 89.0518 14.9055 91.4835 14.9055C93.7923 14.9055 95.3794 15.8322 96.4948 17.6858H96.5617V15.3189H99.3056V30.8887ZM96.5617 24.5838V22.1915C96.5617 20.8292 96.1016 19.6625 95.1814 18.691C94.2612 17.7196 93.1947 17.2339 91.8228 17.2339C90.1273 17.2339 88.7999 17.8508 87.8407 19.0846C86.8815 20.3184 86.4018 22.0464 86.4018 24.2683C86.4018 26.1776 86.862 27.568 87.7821 28.7124C88.7023 29.857 89.921 30.4292 91.4379 30.4292C92.9772 30.4292 94.1496 29.8821 95.1144 28.7878C96.0793 27.6935 96.5618 26.2923 96.5618 24.5839L96.5617 24.5838Z" fill="#008373"/>
</svg>
