<svg width="86" height="41" viewBox="0 0 86 41" fill="none" xmlns="http://www.w3.org/2000/svg">
<path fill-rule="evenodd" clip-rule="evenodd" d="M10.9573 9.53217V12.4507H17.715C17.486 14.085 17.0278 15.2524 16.226 16.0696C15.1952 17.1203 13.7062 18.1709 11.0718 18.1709C6.94841 18.1709 3.62681 14.7855 3.62681 10.5828C3.62681 6.38022 6.83389 2.99476 11.0718 2.99476C13.3626 2.99476 14.9661 3.92869 16.1115 5.09609L18.0586 3.11151C16.3406 1.47716 14.1643 0.193024 10.9573 0.193024C5.23034 0.193024 0.534271 4.8626 0.534271 10.6996C0.534271 16.5365 5.34489 21.2061 10.9573 21.2061C14.0498 21.2061 16.3406 20.1555 18.1732 18.2876C20.0058 16.4198 20.5785 13.7348 20.5785 11.5168C20.5785 10.8163 20.5785 10.2326 20.4639 9.76567H10.9573V9.53217Z" fill="#4285F4"/>
<path fill-rule="evenodd" clip-rule="evenodd" d="M28.9398 18.0543C26.8781 18.0543 25.16 16.3032 25.16 13.9684C25.16 11.5169 26.8781 9.88253 28.9398 9.88253C31.0015 9.88253 32.7196 11.5169 32.7196 13.9684C32.7196 16.4199 31.0015 18.0543 28.9398 18.0543ZM28.9398 7.19751C25.2745 7.19751 22.2967 9.99925 22.2967 13.9684C22.2967 17.8208 25.2745 20.7393 28.9398 20.7393C32.6051 20.7393 35.5831 17.8208 35.5831 13.9684C35.6976 9.99925 32.6051 7.19751 28.9398 7.19751Z" fill="#E94235"/>
<path fill-rule="evenodd" clip-rule="evenodd" d="M58.376 18.0543C56.3143 18.0543 54.8254 16.3032 54.8254 13.9684C54.8254 11.6336 56.3143 9.8825 58.376 9.8825C60.3232 9.8825 61.9266 11.6336 61.9266 13.9684C61.9266 16.3032 60.3232 18.0543 58.376 18.0543ZM61.6977 8.71513C60.8959 7.89794 59.6359 7.19751 58.1468 7.19751C54.8254 7.19751 51.9619 10.116 51.9619 13.9684C51.9619 17.8208 54.8254 20.7393 58.1468 20.7393C59.7504 20.7393 61.0104 20.0388 61.6977 19.2217H61.8121V20.1556C61.8121 22.724 60.4377 24.1248 58.2615 24.1248C56.4288 24.1248 55.398 22.8406 54.9399 21.6732L52.42 22.7237C53.1073 24.475 55.0543 26.6931 58.2615 26.6931C61.6977 26.6931 64.561 24.5917 64.561 19.5719V7.54773H61.8121V8.71513H61.6977Z" fill="#4285F4"/>
<path fill-rule="evenodd" clip-rule="evenodd" d="M43.8298 18.0543C41.7681 18.0543 40.05 16.3032 40.05 13.9684C40.05 11.5169 41.7681 9.88253 43.8298 9.88253C45.8914 9.88253 47.6094 11.5169 47.6094 13.9684C47.6094 16.4199 45.8914 18.0543 43.8298 18.0543ZM43.8298 7.19751C40.1645 7.19751 37.1865 9.99925 37.1865 13.9684C37.1865 17.8208 40.1645 20.7393 43.8298 20.7393C47.495 20.7393 50.473 17.8208 50.473 13.9684C50.5874 9.99925 47.495 7.19751 43.8298 7.19751Z" fill="#FBBC04"/>
<path fill-rule="evenodd" clip-rule="evenodd" d="M66.7374 20.7392H69.6009V0.193024H66.7374V20.7392Z" fill="#34A853"/>
<path fill-rule="evenodd" clip-rule="evenodd" d="M78.306 9.76497C79.4512 9.76497 80.4822 10.3487 80.8258 11.2826L74.8698 13.8508C74.8698 10.9323 76.8169 9.76497 78.306 9.76497ZM78.5349 18.0535C77.046 18.0535 76.0151 17.353 75.328 15.9521L84.262 12.2165L83.9183 11.3993C83.3455 9.8817 81.6274 7.07996 78.1913 7.07996C74.7551 7.07996 71.8918 9.8817 71.8918 13.8508C71.8918 17.7033 74.7551 20.6217 78.5349 20.6217C81.6274 20.6217 83.3455 18.7539 84.0328 17.5865L81.7421 16.0689C81.0548 17.353 80.024 18.0535 78.5349 18.0535Z" fill="#E94235"/>
<path d="M3.48502 40.1414C3.03961 40.1414 2.6499 40.0279 2.20449 39.8577C1.81477 39.6874 1.42504 39.4038 1.09099 39.0633C0.756945 38.7228 0.534243 38.2689 0.367218 37.7014L1.36937 37.3041C1.48072 37.8148 1.75909 38.2689 2.14882 38.6092C2.53855 38.9497 2.98394 39.1201 3.48502 39.1201C3.81906 39.1201 4.09744 39.0633 4.37582 38.9497C4.65418 38.8364 4.87689 38.666 5.04392 38.4391C5.21094 38.2121 5.3223 37.9284 5.3223 37.5879C5.3223 37.134 5.15527 36.7935 4.82121 36.5665C4.48717 36.2828 4.04176 36.0558 3.37367 35.8289L2.81691 35.6018C2.48287 35.4884 2.14882 35.318 1.81477 35.1479C1.48072 34.9777 1.20235 34.694 0.979646 34.4103C0.756945 34.0697 0.645593 33.6724 0.645593 33.2185C0.645593 32.7647 0.756945 32.3673 0.979646 32.0268C1.20235 31.6865 1.53639 31.4028 1.92612 31.1756C2.31584 30.9487 2.76123 30.8353 3.31799 30.8353C3.87474 30.8353 4.32015 30.9487 4.70986 31.1756C5.09959 31.4028 5.37797 31.6297 5.60066 31.9135C5.82336 32.1972 5.99039 32.4241 6.04607 32.6511L5.09959 33.0484C5.04392 32.878 4.93256 32.7079 4.82121 32.5375C4.70986 32.3673 4.48717 32.1972 4.26447 32.0836C4.04176 31.9702 3.76338 31.8567 3.37367 31.8567C3.09529 31.8567 2.81691 31.9135 2.53855 32.0268C2.31584 32.1404 2.09314 32.3106 1.92612 32.5375C1.75909 32.7647 1.70342 32.9916 1.70342 33.2185C1.70342 33.6158 1.87044 33.8996 2.14882 34.1265C2.4272 34.3535 2.81691 34.5236 3.31799 34.694L3.87474 34.9209C4.15312 35.0343 4.37582 35.1479 4.65418 35.2614C4.93256 35.3748 5.21094 35.5452 5.43365 35.7721C5.65633 35.9991 5.87904 36.226 5.99039 36.5665C6.15742 36.8503 6.2131 37.2473 6.2131 37.6447C6.2131 38.0985 6.10174 38.4958 5.93471 38.8364C5.76769 39.1767 5.54498 39.4038 5.26662 39.6308C4.98824 39.8577 4.6542 39.9711 4.32015 40.0847C4.15312 40.0847 3.81906 40.1414 3.48502 40.1414ZM10.5001 40.1414C9.88764 40.1414 9.33088 39.9711 8.88549 39.6873C8.44008 39.4038 8.05037 39.0065 7.77199 38.4958C7.49361 37.9852 7.38228 37.4177 7.38228 36.7367C7.38228 36.1124 7.49361 35.5452 7.77199 35.0343C8.05037 34.5236 8.38441 34.1265 8.82981 33.786C9.2752 33.4455 9.83197 33.3321 10.4444 33.3321C11.0568 33.3321 11.6136 33.4455 12.059 33.7292C12.5044 34.0129 12.8384 34.4102 13.0611 34.8641C13.2838 35.3748 13.4508 35.9423 13.4508 36.5665C13.4508 36.6233 13.4508 36.6799 13.4508 36.7367C13.4508 36.7935 13.4508 36.8503 13.4508 36.907H8.49576C8.55143 37.4177 8.66279 37.8148 8.82981 38.1553C9.05252 38.4958 9.33088 38.7228 9.60926 38.8929C9.94332 39.0633 10.2217 39.1201 10.5557 39.1201C11.0011 39.1201 11.3909 39.0065 11.6692 38.7796C11.9476 38.5526 12.226 38.2689 12.393 37.9284L13.2838 38.3823C13.0611 38.8929 12.6714 39.2903 12.226 39.574C11.7249 39.9711 11.1682 40.1414 10.5001 40.1414ZM10.3887 34.2967C9.88764 34.2967 9.44223 34.4668 9.10818 34.8074C8.77414 35.1479 8.55143 35.5452 8.44008 36.0558H12.226C12.226 35.8287 12.1703 35.5452 12.0033 35.318C11.8919 35.0343 11.6692 34.8073 11.3909 34.6372C11.2238 34.4102 10.8341 34.2967 10.3887 34.2967ZM16.68 40.1414C16.2346 40.1414 15.7892 40.0279 15.4551 39.8577C15.1211 39.6874 14.8427 39.4038 14.62 39.1201C14.3973 38.7796 14.3416 38.4391 14.3416 38.0418C14.3416 37.5879 14.453 37.1908 14.6757 36.8503C14.8984 36.5097 15.2324 36.2828 15.6222 36.1124C16.0119 35.9423 16.4573 35.8855 16.9584 35.8855C17.3481 35.8855 17.7378 35.9423 18.0719 35.9991C18.4059 36.0558 18.6286 36.1692 18.74 36.2828V35.8855C18.74 35.3748 18.5729 35.0343 18.2389 34.7506C17.9048 34.4668 17.5151 34.3535 17.014 34.3535C16.68 34.3535 16.3459 34.4103 16.0676 34.5804C15.7892 34.7506 15.5665 34.9209 15.3438 35.2047L14.5643 34.5804C14.787 34.1831 15.1211 33.8996 15.5665 33.6724C16.0119 33.4455 16.4573 33.3321 17.014 33.3321C17.8492 33.3321 18.5172 33.5591 19.0183 34.0129C19.5194 34.4668 19.7421 35.0911 19.7421 35.8855V39.9145H18.74V39.0065H18.6843C18.5173 39.2902 18.2389 39.574 17.9048 39.8009C17.5708 40.0279 17.1254 40.1414 16.68 40.1414ZM16.7357 39.1767C17.0697 39.1767 17.4038 39.0633 17.7378 38.8929C18.0162 38.7228 18.2946 38.4391 18.4616 38.1553C18.6286 37.8716 18.74 37.5311 18.74 37.134C18.5729 37.0204 18.2946 36.907 18.0162 36.7935C17.7378 36.7367 17.4594 36.6799 17.0697 36.6799C16.4573 36.6799 16.0119 36.7935 15.7335 37.0772C15.4551 37.3041 15.3438 37.6447 15.3438 37.9852C15.3438 38.3255 15.4551 38.6092 15.7335 38.8364C16.0119 39.0633 16.3459 39.1767 16.7357 39.1767ZM21.1897 39.9145V33.5591H22.1918V34.5804H22.2475C22.3032 34.3535 22.4701 34.1265 22.6373 33.9562C22.8599 33.786 23.0269 33.6158 23.3053 33.5591C23.5837 33.4455 23.8063 33.3887 24.029 33.3887C24.1961 33.3887 24.3631 33.3887 24.4745 33.4455C24.5858 33.4455 24.6972 33.5023 24.7529 33.5591V34.694C24.4745 34.5804 24.1961 34.4668 23.862 34.4668C23.5837 34.4668 23.3053 34.5804 23.0269 34.7506C22.7485 34.9209 22.5816 35.1479 22.4144 35.4316C22.2475 35.7153 22.1918 36.0558 22.1918 36.3962V39.9711H21.1897V39.9145ZM28.2047 40.1414C27.5922 40.1414 27.0355 39.9711 26.5901 39.6873C26.0891 39.4038 25.755 39.0065 25.4766 38.4958C25.1982 37.9852 25.087 37.4177 25.087 36.7367C25.087 36.1124 25.1982 35.4884 25.4766 34.9777C25.755 34.4668 26.1448 34.0697 26.5901 33.786C27.0912 33.5023 27.5922 33.3321 28.2047 33.3321C28.9284 33.3321 29.4852 33.5023 29.9307 33.8428C30.376 34.1831 30.7101 34.5804 30.8771 35.0911L29.9307 35.4884C29.7636 35.0911 29.5409 34.8073 29.2068 34.5804C28.9284 34.3535 28.5388 34.2967 28.0933 34.2967C27.7037 34.2967 27.3696 34.4103 27.0912 34.5804C26.7571 34.8073 26.5344 35.0911 26.3118 35.4316C26.0891 35.7721 26.0334 36.226 26.0334 36.6799C26.0334 37.1908 26.1448 37.5879 26.3118 37.9284C26.5344 38.2689 26.7571 38.5526 27.0912 38.7796C27.4253 39.0065 27.7594 39.0633 28.0933 39.0633C28.5388 39.0633 28.9284 38.9497 29.2068 38.7228C29.5409 38.4958 29.7636 38.2121 29.9307 37.8148L30.8771 38.2121C30.6544 38.7228 30.3203 39.1201 29.875 39.4604C29.4852 39.9711 28.9284 40.1414 28.2047 40.1414ZM32.102 39.9145V30.9487H33.1598V33.5591L33.1041 34.4103H33.1598C33.3268 34.0697 33.6052 33.8428 33.9393 33.6158C34.3289 33.3887 34.7187 33.2753 35.164 33.2753C35.9434 33.2753 36.5559 33.5023 36.9457 34.0129C37.3354 34.4668 37.5025 35.0911 37.5025 35.7721V39.8577H36.4447V35.9423C36.4447 35.318 36.2775 34.9209 35.9992 34.6372C35.7208 34.3535 35.3312 34.2399 34.9414 34.2399C34.6073 34.2399 34.2734 34.3535 34.0505 34.5236C33.8278 34.694 33.5495 34.9777 33.4382 35.318C33.2711 35.6585 33.2154 35.9423 33.2154 36.2828V39.8009H32.102V39.9145ZM45.9092 40.1414C45.2412 40.1414 44.6845 40.0279 44.1277 39.8009C43.571 39.574 43.1256 39.2335 42.6801 38.8364C42.2905 38.4391 41.9564 37.9284 41.7337 37.3609C41.5111 36.7935 41.3996 36.1692 41.3996 35.4884C41.3996 34.8073 41.5111 34.1831 41.7337 33.6158C41.9564 33.0484 42.2905 32.5375 42.6801 32.1404C43.0699 31.7431 43.571 31.4028 44.1277 31.1756C44.6845 30.9487 45.297 30.8353 45.9092 30.8353C46.5774 30.8353 47.1899 30.9487 47.7467 31.2324C48.3034 31.4594 48.7488 31.8567 49.1386 32.3106L48.4147 33.0484C47.7467 32.2538 46.9673 31.8567 45.965 31.8567C45.3527 31.8567 44.7402 32.0268 44.2392 32.3106C43.6824 32.5943 43.2926 33.0484 42.9585 33.5591C42.6246 34.1265 42.4574 34.7506 42.4574 35.4884C42.4574 36.226 42.6246 36.8502 42.9585 37.4177C43.2926 37.9852 43.6824 38.3823 44.2392 38.666C44.7959 38.9497 45.3527 39.1201 45.965 39.1201C46.5217 39.1201 47.0228 39.0065 47.4683 38.7796C47.9136 38.5526 48.3034 38.2121 48.6373 37.8148L49.417 38.5526C49.0271 39.0065 48.5261 39.4038 47.9693 39.6873C47.3011 39.9711 46.6332 40.1414 45.9092 40.1414ZM53.3141 40.1414C52.7016 40.1414 52.1449 39.9711 51.6438 39.6873C51.1428 39.4038 50.8087 39.0065 50.5303 38.4958C50.2519 37.9852 50.1407 37.4177 50.1407 36.7935C50.1407 36.1692 50.2519 35.6018 50.5303 35.0911C50.8087 34.5804 51.1985 34.1831 51.6438 33.8428C52.1449 33.5591 52.7016 33.3887 53.3141 33.3887C53.9266 33.3887 54.4833 33.5591 54.9844 33.8428C55.4854 34.1265 55.8195 34.5236 56.0979 35.0911C56.3763 35.6018 56.4875 36.1692 56.4875 36.7935C56.4875 37.4177 56.3763 37.9852 56.0979 38.4958C55.8195 39.0065 55.4297 39.4038 54.9844 39.6873C54.4833 39.9711 53.9266 40.1414 53.3141 40.1414ZM53.3141 39.1767C53.7039 39.1767 54.0378 39.0633 54.3719 38.8929C54.706 38.7228 54.9844 38.4391 55.207 38.0418C55.4297 37.7014 55.5411 37.2473 55.5411 36.7367C55.5411 36.226 55.4297 35.7721 55.207 35.4316C54.9844 35.0911 54.7617 34.8073 54.3719 34.5804C54.0378 34.4103 53.7039 34.2967 53.3141 34.2967C52.9245 34.2967 52.5904 34.4103 52.2563 34.5804C51.9222 34.7506 51.6438 35.0343 51.4211 35.4316C51.1985 35.7721 51.087 36.226 51.087 36.7367C51.087 37.2473 51.1985 37.7014 51.4211 38.0418C51.6438 38.3823 51.9222 38.666 52.2563 38.8929C52.5904 39.0633 52.9245 39.1767 53.3141 39.1767ZM57.601 39.9145V33.5591H58.6033V34.5236H58.6588C58.826 34.2399 59.1044 33.9562 59.4383 33.7292C59.8281 33.5023 60.2179 33.3887 60.6632 33.3887C61.4427 33.3887 61.9994 33.6158 62.3892 34.0697C62.7788 34.5236 63.0015 35.0911 63.0015 35.8855V39.9711H61.9437V36.0558C61.9437 35.4316 61.7768 35.0343 61.4984 34.7506C61.22 34.4668 60.8302 34.3535 60.3848 34.3535C60.0507 34.3535 59.7167 34.4668 59.494 34.6372C59.2156 34.8073 59.0487 35.0911 58.8817 35.3748C58.7146 35.6585 58.6588 35.9991 58.6588 36.3396V39.9145H57.601ZM66.6205 40.1414C65.8968 40.1414 65.34 39.9711 64.8945 39.6308C64.4491 39.2903 64.1707 38.8929 64.0038 38.4391L64.9502 38.0418C65.1171 38.4391 65.34 38.7228 65.6739 38.9497C66.008 39.1767 66.3421 39.2335 66.7317 39.2335C67.1215 39.2335 67.4556 39.1767 67.6783 39.0065C67.9566 38.8364 68.0681 38.6092 68.0681 38.3255C68.0681 38.0418 67.9566 37.8148 67.6783 37.6447C67.4556 37.4745 67.1215 37.3609 66.6762 37.2473L65.8968 37.0204C65.6184 36.9636 65.34 36.7935 65.0616 36.6799C64.7832 36.5097 64.6161 36.3396 64.4491 36.1124C64.2822 35.8855 64.2265 35.6018 64.2265 35.2614C64.2265 34.8641 64.3377 34.5236 64.5604 34.2967C64.7832 34.0129 65.0616 33.786 65.4512 33.6724C65.7853 33.5023 66.1749 33.4455 66.6205 33.4455C67.1772 33.4455 67.6225 33.5591 68.0681 33.786C68.5134 34.0129 68.7918 34.3535 69.0145 34.8074L68.1236 35.2047C67.9566 34.8641 67.734 34.694 67.5113 34.5236C67.2329 34.4103 66.9546 34.3535 66.6205 34.3535C66.2864 34.3535 65.9523 34.4103 65.7296 34.5804C65.4512 34.7506 65.34 34.9209 65.34 35.2047C65.34 35.4884 65.4512 35.6585 65.6739 35.8289C65.8968 35.9423 66.1194 36.0558 66.4533 36.1692L67.3442 36.3962C68.5691 36.7367 69.1814 37.3609 69.1814 38.2689C69.1814 38.666 69.0702 39.0065 68.8475 39.2903C68.6246 39.574 68.3463 39.8009 67.9566 39.9711C67.4556 40.0279 67.0658 40.1414 66.6205 40.1414ZM73.1345 40.1414C72.522 40.1414 71.9652 39.9711 71.4642 39.6873C70.9631 39.4038 70.629 39.0065 70.3506 38.4958C70.0723 37.9852 69.9608 37.4177 69.9608 36.7935C69.9608 36.1692 70.0723 35.6018 70.3506 35.0911C70.629 34.5804 71.0188 34.1831 71.4642 33.8428C71.9652 33.5591 72.522 33.3887 73.1345 33.3887C73.7467 33.3887 74.3035 33.5591 74.8047 33.8428C75.3058 34.1265 75.6397 34.5236 75.9181 35.0911C76.1964 35.6018 76.3079 36.1692 76.3079 36.7935C76.3079 37.4177 76.1964 37.9852 75.9181 38.4958C75.6397 39.0065 75.2501 39.4038 74.8047 39.6873C74.3592 39.9711 73.8024 40.1414 73.1345 40.1414ZM73.1345 39.1767C73.5241 39.1767 73.8582 39.0633 74.1923 38.8929C74.5264 38.7228 74.8047 38.4391 75.0274 38.0418C75.2501 37.7014 75.3613 37.2473 75.3613 36.7367C75.3613 36.226 75.2501 35.7721 75.0274 35.4316C74.8047 35.0911 74.5264 34.8073 74.1923 34.5804C73.8582 34.4103 73.5241 34.2967 73.1345 34.2967C72.7446 34.2967 72.4105 34.4103 72.0766 34.5804C71.7425 34.7506 71.4642 35.0343 71.2415 35.4316C71.0188 35.7721 70.9631 36.226 70.9631 36.7367C70.9631 37.2473 71.0743 37.7014 71.2415 38.0418C71.4642 38.3823 71.7425 38.666 72.0766 38.8929C72.4105 39.0633 72.8004 39.1767 73.1345 39.1767ZM77.5326 39.9145V30.9487H78.5906V39.9145H77.5326ZM82.8219 40.1414C82.2094 40.1414 81.6526 39.9711 81.2073 39.6873C80.7618 39.4038 80.3721 39.0065 80.0938 38.4958C79.8154 37.9852 79.704 37.4177 79.704 36.7367C79.704 36.1124 79.8154 35.5452 80.0938 35.0343C80.3721 34.5236 80.7062 34.1265 81.1516 33.786C81.5969 33.4455 82.1537 33.3321 82.7661 33.3321C83.3786 33.3321 83.9354 33.4455 84.3807 33.7292C84.826 34.0129 85.1601 34.4102 85.3828 34.8641C85.6057 35.3748 85.7726 35.9423 85.7726 36.5665C85.7726 36.6233 85.7726 36.6799 85.7726 36.7367C85.7726 36.7935 85.7726 36.8503 85.7726 36.907H80.8175C80.8732 37.4177 80.9846 37.8148 81.1516 38.1553C81.3742 38.4958 81.6526 38.7228 81.931 38.8929C82.2651 39.0633 82.5435 39.1201 82.8776 39.1201C83.3229 39.1201 83.7127 39.0065 83.9911 38.7796C84.2695 38.5526 84.5479 38.2689 84.7148 37.9284L85.6057 38.3823C85.3828 38.8929 84.9932 39.2903 84.5479 39.574C84.0466 39.9711 83.4899 40.1414 82.8219 40.1414ZM82.7104 34.2967C82.2094 34.2967 81.7641 34.4668 81.43 34.8074C81.0959 35.1479 80.8732 35.5452 80.762 36.0558H84.5479C84.5479 35.8287 84.4921 35.5452 84.325 35.318C84.2138 35.0343 83.9911 34.8073 83.7127 34.6372C83.5456 34.4102 83.2115 34.2967 82.7104 34.2967Z" fill="#5E5E5E"/>
</svg>
