<svg width="44" height="41" viewBox="0 0 44 41" fill="none" xmlns="http://www.w3.org/2000/svg">
<path d="M14.8823 5.7569C15.305 4.64615 15.8862 3.62356 16.7492 2.79491C20.2012 -0.572583 25.9077 0.273699 28.2501 4.50511C30.0114 7.71392 31.8783 10.8522 33.6924 14.0258C36.7218 19.2974 39.7863 24.569 42.7805 29.8583C45.299 34.2836 42.5691 39.8726 37.5672 40.6307C34.5026 41.0891 31.6317 39.6787 30.0466 36.9283C27.3871 32.2913 24.71 27.6544 22.0505 23.0351C21.9977 22.9294 21.9273 22.8412 21.8568 22.7531C21.575 22.5238 21.4517 22.1889 21.2756 21.8891C20.0956 19.8087 18.8803 17.7459 17.7003 15.6831C16.9429 14.3431 16.1504 13.0208 15.393 11.6809C14.7061 10.482 14.3891 9.17729 14.4243 7.80208C14.4772 7.09684 14.5652 6.39161 14.8823 5.7569Z" fill="#3C8BD9"/>
<path d="M14.8819 5.75702C14.7234 6.39173 14.5825 7.02644 14.5473 7.69641C14.4945 9.17741 14.8643 10.5526 15.604 11.8397C17.5414 15.1719 19.4788 18.5218 21.3986 21.8716C21.5747 22.1714 21.7156 22.4711 21.8917 22.7532C20.835 24.5868 19.7782 26.4028 18.7038 28.2364C17.2244 30.7928 15.7449 33.3669 14.2479 35.9234C14.1774 35.9234 14.1598 35.8882 14.1422 35.8353C14.1246 35.6942 14.1774 35.5708 14.2127 35.4298C14.9348 32.7851 14.3359 30.4402 12.5219 28.4303C11.4123 27.2138 10.0033 26.5262 8.38292 26.297C6.26942 25.9973 4.40249 26.5438 2.72931 27.8661C2.42989 28.0953 2.23616 28.4303 1.88391 28.6066C1.81346 28.6066 1.77823 28.5714 1.76062 28.5185C2.60602 27.0551 3.43381 25.5917 4.27921 24.1284C7.76648 18.0634 11.2538 11.9983 14.7586 5.95096C14.7939 5.88044 14.8467 5.82754 14.8819 5.75702Z" fill="#FABC04"/>
<path d="M1.83131 28.5711C2.16595 28.2714 2.48297 27.9541 2.83522 27.672C7.11506 24.2868 13.5436 26.7375 14.4771 32.0973C14.706 33.3844 14.5828 34.6185 14.1953 35.8527C14.1777 35.9585 14.1601 36.0466 14.1248 36.1524C13.9663 36.4345 13.8254 36.7342 13.6493 37.0163C12.0818 39.6081 9.77455 40.8951 6.7452 40.7012C3.27553 40.4543 0.545598 37.845 0.0700601 34.3893C-0.158902 32.7144 0.175735 31.1452 1.03875 29.6995C1.21487 29.3822 1.42622 29.1001 1.61996 28.7827C1.70802 28.7122 1.6728 28.5711 1.83131 28.5711Z" fill="#34A852"/>
<path d="M1.83157 28.5712C1.76104 28.6417 1.76104 28.7651 1.63763 28.7828C1.62 28.6593 1.69052 28.5888 1.76104 28.5007L1.83157 28.5712Z" fill="#FABC04"/>
<path d="M14.1251 36.1526C14.0546 36.0292 14.1251 35.941 14.1956 35.8528C14.2133 35.8705 14.2485 35.9057 14.2661 35.9234L14.1251 36.1526Z" fill="#E1C025"/>
</svg>
