<svg width="118" height="41" viewBox="0 0 118 41" fill="none" xmlns="http://www.w3.org/2000/svg">
<path d="M0.752625 0.114899H12.5735C12.5735 4.03343 12.5735 8.02955 12.5735 11.9481C8.65903 11.9481 4.66707 11.9481 0.752625 11.9481V0.114899Z" fill="#F25022"/>
<path d="M13.7755 0.114899H25.5963C25.5963 4.03343 25.5963 8.02955 25.5963 11.9481C21.6819 11.9481 17.6899 11.9481 13.7755 11.9481C13.7755 7.95195 13.7755 4.03343 13.7755 0.114899Z" fill="#80BA01"/>
<path d="M107.295 4.61541C108.419 3.91706 109.814 3.83946 111.054 4.18864C111.054 4.88699 111.054 5.66294 111.054 6.36129C110.473 6.1285 109.776 5.93452 109.194 6.1673C108.729 6.36129 108.419 6.86565 108.303 7.33122C108.186 7.99077 108.225 8.61153 108.225 9.27109C109.465 9.27109 110.744 9.27109 111.985 9.27109C111.985 8.45634 111.985 7.6416 111.985 6.86565C112.799 6.63287 113.69 6.32249 114.504 6.08971C114.504 7.13723 114.504 8.18476 114.504 9.30988C115.318 9.30988 116.209 9.30988 117.023 9.30988V11.3661C116.209 11.2885 115.318 11.3661 114.504 11.3661C114.504 12.5301 114.504 13.7716 114.504 14.9355C114.504 15.595 114.426 16.2934 114.581 16.9142C114.659 17.3409 114.775 17.7289 115.124 17.9229C115.705 18.2721 116.519 18.1169 117.062 17.7289V19.8239C116.364 20.1343 115.55 20.2507 114.736 20.1731C113.961 20.0955 113.225 19.8239 112.76 19.242C112.178 18.5436 112.062 17.6513 112.062 16.7978C112.062 14.9743 112.062 13.112 112.062 11.2885C110.822 11.2885 109.543 11.2885 108.303 11.2885C108.303 14.1595 108.303 17.0305 108.303 19.9015C107.411 19.9015 106.597 19.9015 105.745 19.9015C105.745 17.0305 105.745 14.1595 105.745 11.2885C105.163 11.2885 104.582 11.2885 104.001 11.2885C104.001 10.5902 104.001 9.93064 104.001 9.23229C104.582 9.23229 105.163 9.23229 105.745 9.23229C105.822 8.33995 105.629 7.40881 105.939 6.47768C106.132 5.77933 106.597 5.04218 107.295 4.61541Z" fill="#777777"/>
<path d="M52.6094 4.73168C53.152 4.65408 53.6558 4.84807 54.0046 5.27484C54.4309 5.74041 54.4697 6.43876 54.1984 6.90433C53.8496 7.48628 53.152 7.79666 52.4931 7.60268C51.8342 7.48629 51.2529 6.82673 51.3304 6.20598C51.2916 5.50762 51.873 4.84807 52.6094 4.73168Z" fill="#777777"/>
<path d="M33.0369 5.08105C34.2771 5.08105 35.4786 5.08105 36.7188 5.08105C37.8815 8.02965 39.0442 10.9394 40.1681 13.888C40.4782 14.664 40.7495 15.3623 41.0595 16.0995C42.5323 12.4137 44.0438 8.7668 45.5166 5.08105C46.6793 5.08105 47.9195 5.08105 49.0822 5.08105C49.0822 10.0471 49.0822 15.052 49.0822 19.9792C48.1908 19.9792 47.3769 19.9792 46.5243 19.9792C46.5243 16.2935 46.5243 12.6465 46.5243 8.96078C46.5243 8.7668 46.5243 8.61161 46.5243 8.49522C46.4467 8.57281 46.408 8.6892 46.408 8.728C44.9352 12.4913 43.4237 16.2159 41.951 19.9792C41.3696 19.9792 40.7107 19.9792 40.1294 19.9792C38.6179 16.2159 37.0676 12.4913 35.5561 8.728C35.4786 8.65041 35.4785 8.53402 35.4398 8.49522C35.3623 10.0859 35.4398 11.7154 35.4398 13.3061C35.4398 15.5175 35.4398 17.7678 35.4398 19.9792C34.6259 19.9792 33.812 19.9792 32.9981 19.9792C33.0369 15.0132 33.0369 10.0083 33.0369 5.08105Z" fill="#777777"/>
<path d="M59.6245 9.23228C60.8647 8.8831 62.1824 8.8831 63.4227 9.23228C63.6552 9.30987 63.9653 9.42627 64.1203 9.54266C64.1203 10.3574 64.1203 11.1721 64.1203 11.9869C63.3064 11.3273 62.26 10.9394 61.1748 11.0946C60.3609 11.1721 59.547 11.6377 59.0819 12.2585C58.423 13.0732 58.3067 14.1983 58.3843 15.2459C58.4618 16.0606 58.8106 16.8366 59.4307 17.3409C60.0896 17.9229 60.9422 18.1169 61.8336 18.0393C62.6475 17.9229 63.4614 17.5737 64.1203 17.1081C64.1203 17.8841 64.1203 18.6212 64.1203 19.436C63.0738 20.0955 61.8336 20.2119 60.5934 20.1343C59.3532 20.0567 58.1517 19.5912 57.2603 18.7376C56.3302 17.8065 55.7876 16.5262 55.7488 15.1683C55.6713 13.7716 55.9813 12.3361 56.7565 11.1721C57.4541 10.3186 58.5005 9.58146 59.6245 9.23228Z" fill="#777777"/>
<path d="M87.5686 9.11576C88.7313 8.88297 89.9715 9.03816 91.0954 9.46493C91.0954 10.2409 91.0954 11.0556 91.0954 11.7928C90.3203 11.2496 89.3514 10.978 88.3825 10.978C87.9174 10.978 87.3748 11.2108 87.1422 11.6764C86.9485 12.1419 87.0647 12.7239 87.4911 12.9567C88.1887 13.4223 89.0801 13.655 89.8165 14.0818C90.3978 14.431 90.9792 14.8578 91.2892 15.4785C91.8706 16.6424 91.638 18.1943 90.6304 19.0479C89.7002 19.9402 88.3437 20.173 87.0647 20.0954C86.1733 20.0178 85.3207 19.8626 84.5068 19.5134C84.5068 18.6987 84.5068 17.8839 84.5068 17.0692C85.2044 17.6124 85.9795 17.9615 86.8322 18.0779C87.4135 18.1943 88.0724 18.1943 88.5762 17.8839C89.1188 17.6512 89.1576 16.8752 88.8863 16.4096C88.5762 16.0605 88.1887 15.8665 87.7624 15.7113C86.9872 15.3621 86.2508 15.0517 85.5532 14.5862C85.0881 14.237 84.7393 13.6938 84.623 13.1119C84.4293 12.2195 84.5068 11.2884 84.9719 10.5513C85.5532 9.85291 86.5609 9.30974 87.5686 9.11576Z" fill="#777777"/>
<path d="M69.8565 9.42631C70.5541 8.99954 71.4455 8.96075 72.2594 9.23233C72.2594 10.1247 72.2594 10.9394 72.2594 11.793C71.7168 11.4438 71.1354 11.3274 70.5541 11.3662C69.8565 11.4438 69.2751 12.0257 68.9651 12.6465C68.6162 13.3448 68.5387 14.1208 68.6162 14.8191C68.6162 16.5262 68.6162 18.2333 68.6162 19.9016C67.8023 19.9016 66.9109 19.9016 66.097 19.9016C66.097 16.3322 66.097 12.7629 66.097 9.23233C66.9109 9.23233 67.8023 9.23233 68.6162 9.23233C68.6162 9.81429 68.6162 10.4738 68.6162 11.0558C68.81 10.4738 69.2364 9.85308 69.8565 9.42631Z" fill="#777777"/>
<path d="M51.5248 9.30981C52.3387 9.30981 53.2301 9.30981 54.044 9.30981C54.044 12.8792 54.044 16.4485 54.044 19.9791C53.2301 19.9791 52.3387 19.9791 51.5248 19.9791C51.5248 16.4097 51.5248 12.8792 51.5248 9.30981Z" fill="#777777"/>
<path d="M82.8017 11.754C82.3366 10.7453 81.5615 9.93054 80.5926 9.46498C79.4686 8.92181 78.1509 8.88301 76.9494 9.0382C75.6704 9.23219 74.4302 9.81415 73.6163 10.8617C72.8412 11.7928 72.4924 12.9567 72.4536 14.1594C72.3373 15.5561 72.5699 16.9916 73.3838 18.1556C74.0814 19.1643 75.1278 19.8626 76.3293 20.0954C77.337 20.3282 78.3059 20.3282 79.3136 20.0954C80.4763 19.8626 81.5227 19.2031 82.2591 18.272C82.9567 17.3796 83.3055 16.2933 83.383 15.1682C83.383 14.0043 83.2668 12.8403 82.8017 11.754ZM80.36 16.6813C80.1275 17.2244 79.6624 17.69 79.1198 17.9228C78.4609 18.1556 77.7245 18.2332 77.0269 18.0392C76.3293 17.8452 75.7479 17.3408 75.4379 16.6813C75.0116 15.8665 74.9728 14.9354 75.0116 13.9655C75.0891 13.1507 75.3604 12.336 76.0192 11.754C76.4843 11.3272 77.0657 11.0945 77.7245 11.0945C78.4997 11.0169 79.3136 11.2884 79.8949 11.7928C80.4763 12.3748 80.7088 13.1895 80.7863 14.0043C80.7476 14.9354 80.7088 15.8665 80.36 16.6813Z" fill="#777777"/>
<path d="M103.304 12.1034C102.877 11.0558 102.141 10.1247 101.133 9.65913C99.9705 9.07717 98.614 8.96078 97.335 9.11597C96.2886 9.23236 95.2809 9.65913 94.5057 10.3575C93.5756 11.1722 92.9942 12.4137 92.8004 13.6553C92.6067 14.8968 92.6842 16.2159 93.2268 17.341C93.6919 18.4661 94.6995 19.3973 95.7847 19.8628C96.9087 20.3284 98.1876 20.406 99.3504 20.1732C100.591 19.9792 101.753 19.3585 102.528 18.3497C103.342 17.341 103.691 16.0219 103.691 14.7028C103.73 13.7716 103.614 12.8793 103.304 12.1034ZM100.978 15.7115C100.862 16.2935 100.668 16.8366 100.319 17.3022C99.9705 17.7678 99.3891 18.0006 98.8465 18.1169C98.2652 18.2333 97.6063 18.1945 97.0249 17.923C96.3661 17.6902 95.901 17.1082 95.6684 16.5263C95.3584 15.7503 95.3196 15.0132 95.3584 14.1984C95.4359 13.4225 95.6685 12.6853 96.1335 12.1034C96.5986 11.5602 97.2962 11.211 97.9939 11.211C98.6915 11.1334 99.4666 11.3274 100.048 11.793C100.591 12.2198 100.862 12.8405 100.978 13.5001C101.133 14.1596 101.133 14.9356 100.978 15.7115Z" fill="#777777"/>
<path d="M0.752869 13.1121C4.66731 13.1121 8.65927 13.1121 12.5737 13.1121C12.5737 17.0306 12.5737 21.0267 12.5737 24.9452H0.752869V13.1121Z" fill="#02A4EF"/>
<path d="M13.7755 13.1121C17.6899 13.1121 21.6819 13.1121 25.5963 13.1121C25.5963 17.0306 25.5963 21.0267 25.5963 24.9452H13.7755C13.7755 21.0267 13.7755 17.0306 13.7755 13.1121Z" fill="#FFB902"/>
<path d="M48.424 33.597L47.3776 36.8948H45.9824L49.5092 26.4583H51.137L54.7027 36.8948H53.2299L52.1059 33.597H48.424ZM51.8347 32.5107L50.827 29.5233C50.5944 28.8249 50.4006 28.243 50.2844 27.661H50.2069C50.0131 28.3206 49.858 28.9025 49.6643 29.5233L48.6566 32.5107H51.8347Z" fill="#777777"/>
<path d="M62.2599 25.9152V34.9549C62.2599 35.6145 62.2599 36.3516 62.3374 36.8948H61.0972L61.0197 35.6145H60.9422C60.5159 36.4292 59.5857 37.0888 58.423 37.0888C56.6014 37.0888 55.2062 35.5757 55.2062 33.2866C55.2062 30.8424 56.7177 29.2517 58.5393 29.2517C59.6632 29.2517 60.4771 29.7949 60.7484 30.4156H60.8259V25.954H62.2599V25.9152ZM60.9034 32.4719C60.9034 32.2779 60.9034 32.0451 60.8259 31.8899C60.6321 30.9976 59.8958 30.2993 58.8881 30.2993C57.4928 30.2993 56.6789 31.5408 56.6789 33.1703C56.6789 34.6833 57.4541 35.9249 58.8881 35.9249C59.8182 35.9249 60.6321 35.3429 60.8647 34.2954C60.9422 34.1014 60.9422 33.9462 60.9422 33.7134V32.4719H60.9034Z" fill="#777777"/>
<path d="M64.818 29.4068L66.2907 33.6357C66.5233 34.3341 66.7558 34.916 66.8721 35.5756H66.9496C67.1434 34.916 67.3759 34.3341 67.6085 33.6357L69.0812 29.4068H70.4765L67.531 36.8947H66.252L63.4227 29.4068H64.818Z" fill="#777777"/>
<path d="M72.2207 33.403C72.2982 35.2265 73.4609 35.9636 74.7786 35.9636C75.7863 35.9636 76.3677 35.7696 76.8328 35.5369L77.0653 36.5456C76.6002 36.7784 75.7863 37.0111 74.6236 37.0111C72.337 37.0111 70.9417 35.4981 70.9417 33.2478C70.9417 31.0364 72.2982 29.2129 74.4686 29.2129C76.9103 29.2129 77.5691 31.3855 77.5691 32.7434C77.5691 33.0538 77.4916 33.209 77.4916 33.403H72.2207ZM76.2126 32.3943C76.2126 31.5019 75.8638 30.1828 74.3523 30.1828C72.9958 30.1828 72.3757 31.4631 72.2594 32.3943H76.2126Z" fill="#777777"/>
<path d="M79.0024 31.6959C79.0024 30.8036 79.0024 30.0664 78.9249 29.3681H80.0876L80.1651 30.8424H80.2426C80.5914 29.8336 81.4053 29.2129 82.2967 29.2129C82.4905 29.2129 82.5293 29.2129 82.723 29.2905V30.5708C82.6068 30.4932 82.413 30.4932 82.258 30.4932C81.3278 30.4932 80.6302 31.1916 80.4364 32.2391C80.3589 32.4331 80.3589 32.6658 80.3589 32.8986V36.8948H79.0024V31.6959Z" fill="#777777"/>
<path d="M85.9014 27.2343V29.4069H87.8392V30.4544H85.9014V34.4893C85.9014 35.4205 86.1339 35.9636 86.9091 35.9636C87.2579 35.9636 87.5679 35.886 87.6842 35.8473L87.7617 36.856C87.5292 36.9724 87.0641 37.05 86.5215 37.05C85.8626 37.05 85.3588 36.856 85.0487 36.468C84.6224 36.0412 84.5062 35.4205 84.5062 34.5281V30.4156H83.3434V29.3681H84.5062V27.5446L85.9014 27.2343Z" fill="#777777"/>
<path d="M90.7849 27.312C90.7849 27.7776 90.4361 28.1268 89.8935 28.1268C89.4284 28.1268 89.0796 27.7776 89.0796 27.312C89.0796 26.8465 89.4284 26.4973 89.8935 26.4973C90.4361 26.4197 90.7849 26.8465 90.7849 27.312ZM89.2734 36.8562V29.3683H90.6299V36.8562H89.2734Z" fill="#777777"/>
<path d="M92.5292 35.4592C92.9555 35.692 93.6531 36.0024 94.3507 36.0024C95.3584 36.0024 95.8235 35.5368 95.8235 34.8773C95.8235 34.2177 95.3972 33.8685 94.4283 33.5194C93.0718 33.0538 92.4517 32.2778 92.4517 31.4243C92.4517 30.1828 93.4593 29.2516 95.0096 29.2516C95.7847 29.2516 96.4049 29.4844 96.8312 29.7172L96.4824 30.7259C96.1723 30.532 95.6685 30.2992 94.9709 30.2992C94.157 30.2992 93.7306 30.7647 93.7306 31.3079C93.7306 31.9675 94.1957 32.2002 95.1259 32.5882C96.4049 33.0538 97.0637 33.7521 97.0637 34.7997C97.0637 36.08 96.056 37.0111 94.2345 37.0111C93.4206 37.0111 92.6454 36.8171 92.1416 36.4679L92.5292 35.4592Z" fill="#777777"/>
<path d="M100.164 27.312C100.164 27.7776 99.8153 28.1268 99.2728 28.1268C98.8077 28.1268 98.4589 27.7776 98.4589 27.312C98.4589 26.8465 98.8077 26.4973 99.2728 26.4973C99.8541 26.4197 100.164 26.8465 100.164 27.312ZM98.6139 36.8562V29.3683H99.9704V36.8562H98.6139Z" fill="#777777"/>
<path d="M102.102 31.4243C102.102 30.6484 102.102 30.0276 102.024 29.3681H103.265L103.342 30.6096H103.42C103.769 29.9112 104.66 29.2129 105.861 29.2129C106.908 29.2129 108.497 29.8724 108.497 32.3943V36.856H107.14V32.5107C107.14 31.2691 106.675 30.2992 105.396 30.2992C104.505 30.2992 103.807 30.9588 103.575 31.6959C103.497 31.8899 103.458 32.1227 103.458 32.3555V36.856H102.102V31.4243Z" fill="#777777"/>
<path d="M116.946 29.4068C116.868 29.9499 116.868 30.5319 116.868 31.463V35.8083C116.868 37.5154 116.519 38.5629 115.822 39.2225C115.124 39.9208 114.078 40.1148 113.109 40.1148C112.217 40.1148 111.248 39.882 110.667 39.4553L111.016 38.4077C111.481 38.7181 112.295 38.9897 113.186 38.9897C114.581 38.9897 115.589 38.2914 115.589 36.3515V35.5367H115.512C115.085 36.2351 114.271 36.7783 113.109 36.7783C111.248 36.7783 109.931 35.1876 109.931 33.1313C109.931 30.6095 111.558 29.1352 113.264 29.1352C114.543 29.1352 115.24 29.8335 115.589 30.4155H115.667L115.744 29.2904H116.907V29.4068H116.946ZM115.55 32.3554C115.55 32.1226 115.55 31.9286 115.473 31.6958C115.24 30.9199 114.543 30.2215 113.613 30.2215C112.334 30.2215 111.403 31.3466 111.403 33.0537C111.403 34.528 112.179 35.7695 113.613 35.7695C114.426 35.7695 115.202 35.2264 115.473 34.3728C115.55 34.14 115.589 33.9073 115.589 33.6745V32.3942H115.55V32.3554Z" fill="#777777"/>
</svg>
