<svg width="86" height="41" viewBox="0 0 86 41" fill="none" xmlns="http://www.w3.org/2000/svg">
<path d="M58.4017 12.8532C58.4017 13.6353 58.0111 13.733 57.0345 13.733C55.9602 13.733 55.7649 13.5375 55.6672 12.7554C55.4719 10.7025 54.1047 8.94277 51.7609 8.84501C51.0773 8.74725 50.882 8.55173 50.882 7.57413C50.882 6.69428 50.9796 6.30324 51.6632 6.30324C55.5696 6.401 58.4017 9.6271 58.4017 12.8532ZM64.1636 12.8532C64.1636 6.79204 60.0619 0.339844 50.4913 0.339844H31.6432C31.2526 0.339844 30.9596 0.535365 30.9596 0.926407C30.9596 1.12193 31.0572 1.31745 31.2526 1.41521C31.9362 2.00177 32.9128 2.58834 34.28 3.27266C35.5495 3.95698 36.6238 4.34803 37.6004 4.73907C37.991 4.93459 38.1863 5.13011 38.1863 5.32563C38.1863 5.61891 37.991 5.9122 37.5027 5.9122H22.5609C22.0726 5.81444 21.8773 6.10772 21.8773 6.401C21.8773 6.69428 21.975 6.8898 22.1703 7.08532C23.3422 8.35621 25.2954 9.92038 28.1275 11.6801C30.5689 13.2442 33.694 14.9062 36.1355 16.0793C36.5261 16.2748 36.7214 16.4703 36.7214 16.7636C36.7214 17.0569 36.5261 17.2524 36.0378 17.2524H29.1041C28.7134 17.2524 28.5181 17.4479 28.5181 17.7412C28.5181 17.9367 28.6158 18.1323 28.8111 18.3278C30.3736 19.7942 32.9128 21.2606 36.2332 22.727C40.7255 24.5845 45.2178 25.7576 50.296 25.7576C59.9642 25.7576 64.1636 18.5233 64.1636 12.8532ZM51.5656 21.5539C46.878 21.5539 42.874 17.7412 42.874 12.8532C42.874 8.16069 46.7803 4.34803 51.5656 4.34803C56.4485 4.34803 60.2572 8.16069 60.2572 12.8532C60.2572 17.6435 56.4485 21.5539 51.5656 21.5539Z" fill="#FF642D"/>
<path d="M49.9005 33.5411C49.9005 31.6492 48.7193 30.2894 46.5341 30.2894H39.3289V40.1034H41.6913V36.7336H44.4671L47.1838 40.1034H49.8414V39.8669L47.1838 36.6744C48.8965 36.3197 49.9005 35.0782 49.9005 33.5411ZM46.2388 34.7235H41.6913V32.2995H46.2388C47.0657 32.2995 47.5972 32.7725 47.5972 33.5411C47.6562 34.3096 47.1247 34.7235 46.2388 34.7235Z" fill="black"/>
<path d="M85.5714 30.2303H83.3863V33.9549H77.4213V30.2303H75.059V40.0443H77.4213V36.2014H83.3863V40.0443H85.5714V30.2303Z" fill="black"/>
<path d="M33.0092 30.2303L30.4106 38.448H30.2925L27.6349 30.2303H23.4417V40.0443H25.6859V32.0039H25.804L28.4026 40.0443H32.0052L34.6629 32.0039H34.781V40.0443H37.0843V30.2303H33.0092Z" fill="black"/>
<path d="M7.31886 34.2504C6.49203 34.1913 4.9565 34.014 4.07062 33.9548C3.2438 33.8957 2.77133 33.6001 2.77133 33.068C2.77133 32.536 3.30286 32.1221 5.31086 32.1221C7.08262 32.1221 8.73627 32.536 10.2127 33.1863V30.9988C8.79533 30.2894 7.20074 29.9938 5.19274 29.9938C2.41697 29.9938 0.468033 31.1762 0.468033 33.1272C0.468033 34.7825 1.59015 35.7285 3.89344 35.9649C4.72027 36.0832 6.13768 36.2014 7.08262 36.2605C8.14568 36.3197 8.44098 36.6744 8.44098 37.1473C8.44098 37.7977 7.67321 38.2115 5.84239 38.2115C3.9525 38.2115 2.00356 37.5612 0.586151 36.7335V38.9801C1.70827 39.7486 3.59815 40.3398 5.78333 40.3398C8.79533 40.3398 10.7443 39.1574 10.7443 37.0882C10.7443 35.492 9.74027 34.4869 7.31886 34.2504Z" fill="black"/>
<path d="M12.3383 30.2303V40.0443H21.4334V38.0342H14.5826V36.0241H21.3153V34.014H14.5826V32.2404H21.4334V30.2303H12.3383Z" fill="black"/>
<path d="M70.1575 34.2503C69.3307 34.1912 67.7952 34.0138 66.9093 33.9547C66.0825 33.8956 65.61 33.6 65.61 33.0679C65.61 32.5358 66.1415 32.122 68.1495 32.122C69.9213 32.122 71.5749 32.4767 73.0514 33.1862V30.9987C71.634 30.2893 70.0394 29.9937 68.0314 29.9937C65.2556 29.9937 63.3067 31.1761 63.3067 33.127C63.3067 34.7824 64.4288 35.7283 66.7321 35.9648C67.5589 36.0831 68.9764 36.2013 69.9213 36.2604C70.9844 36.3195 71.2796 36.6743 71.2796 37.1472C71.2796 37.7975 70.5119 38.2114 68.6811 38.2114C66.7912 38.2114 64.8422 37.5611 63.4248 36.7334V38.98C64.5469 39.7485 66.4368 40.3397 68.622 40.3397C71.634 40.3397 73.5829 39.1573 73.5829 37.0881C73.5829 35.4919 72.5199 34.4868 70.1575 34.2503Z" fill="black"/>
<path d="M59.3499 30.2303V35.2555C59.3499 37.1474 58.1687 38.2115 56.456 38.2115C54.6842 38.2115 53.5621 37.2065 53.5621 35.2555V30.2303H51.1998V35.019C51.1998 38.5663 53.444 40.3399 56.456 40.3399C59.409 40.3399 61.6532 38.6254 61.6532 35.1373V30.2303H59.3499Z" fill="black"/>
</svg>
